<?xml version="1.0" encoding="UTF-8"?><svg width="212px" height="212px" viewBox="0 0 212 212" version="1.1" xmlns="http://www.w3.org/2000/svg" xmlns:xlink="http://www.w3.org/1999/xlink"><title>apple</title><desc>Created with Sketch.</desc><g id="apple" stroke="none" stroke-width="1" fill="none" fill-rule="evenodd"><g id="Group" transform="translate(14.000000, 14.000000)"><path d="M92,29.7321429 C95.0928396,29.7321429 97.6000815,32.2393847 97.6000815,35.3322243 C97.6000815,35.4793895 97.5942804,35.6264975 97.5826918,35.7732057 L94.9713949,68.8314433 C94.8489343,70.3817572 93.555143,71.577381 92,71.577381 C90.444857,71.577381 89.1510657,70.3817572 89.0286051,68.8314433 L86.4173082,35.7732057 C86.1737609,32.6899701 88.4757831,29.9930798 91.5590187,29.7495325 C91.7057268,29.7379439 91.8528348,29.7321429 92,29.7321429 Z" id="Rectangle-197" fill="#743D00" opacity="0.807142857"/><path d="M70.4556019,51.9405926 L70.5913656,51.9406255 C95.7944998,51.9689234 116.224153,72.3985749 116.252452,97.6017091 L116.258899,124.146291 C116.28719,149.358084 95.8539538,169.801248 70.6421557,169.807372 C70.6347648,169.807374 70.6273739,169.807374 70.6199884,169.785205 L70.4842247,169.785172 C45.2810905,169.756874 24.8514378,149.327222 24.8231383,124.124088 L24.816691,97.5795063 C24.7884002,72.3677136 45.2216366,51.9245489 70.4334347,51.9184253 C70.4408255,51.9184235 70.4482164,51.9184235 70.4556019,51.9405926 Z" id="Rectangle-196" fill="#FF4B4B" transform="translate(70.537795, 110.862899) rotate(-31.000000) translate(-70.537795, -110.862899)"/><path d="M113.425662,51.9405926 L113.561426,51.9406255 C138.76456,51.9689234 159.194212,72.3985749 159.222512,97.6017091 L159.228959,124.146291 C159.25725,149.358084 138.824014,169.801248 113.612216,169.807372 C113.604825,169.807374 113.597434,169.807374 113.590048,169.785205 L113.454285,169.785172 C88.2511504,169.756874 67.8214977,149.327222 67.7931982,124.124088 L67.7867509,97.5795063 C67.75846,72.3677136 88.1916965,51.9245489 113.403495,51.9184253 C113.410885,51.9184235 113.418276,51.9184235 113.425662,51.9405926 Z" id="Rectangle-196" fill="#FF4B4B" transform="translate(113.507855, 110.862899) scale(-1, 1) rotate(-31.000000) translate(-113.507855, -110.862899)"/><ellipse id="Oval" fill="#FF7878" cx="58.3952096" cy="92.5" rx="16.5269461" ry="16.5178571"/><path d="M123.034317,60.3070264 C125.907803,60.306238 137.767642,44.9188732 137.596227,31.3705908 C137.424812,17.8223085 125.578094,1.99694752 123.050316,1.99764111 C120.522537,1.99833469 108.505205,17.5953626 108.488265,31.3785776 C108.471362,45.1617926 120.160831,60.3078149 123.034317,60.3070264 Z" id="Oval-2" fill="#5ABB1A" transform="translate(123.043166, 31.152334) scale(-1, -1) rotate(-313.000000) translate(-123.043166, -31.152334)"/><ellipse id="Oval-3" fill="#EA2B2B" cx="133.868263" cy="118.377976" rx="9.36526946" ry="9.36011905"/><ellipse id="Oval-3-Copy" fill="#EA2B2B" cx="120.095808" cy="136.547619" rx="6.61077844" ry="6.60714286"/></g></g></svg>