<svg xmlns="http://www.w3.org/2000/svg" xmlns:xlink="http://www.w3.org/1999/xlink" width="288" height="164" viewBox="0 0 288 164">
  <defs>
    <rect id="exp_have_a_dog-a" width="288" height="164"/>
  </defs>
  <g fill="none" fill-rule="evenodd">
    <mask id="exp_have_a_dog-b" fill="#fff">
      <use xlink:href="#exp_have_a_dog-a"/>
    </mask>
    <use fill="#FFF" xlink:href="#exp_have_a_dog-a"/>
    <g mask="url(#exp_have_a_dog-b)">
      <g transform="translate(69 7)">
        <g transform="matrix(-1 0 0 1 61.696 78.75)">
          <rect width="9.971" height="21.875" x="41.754" y="57.5" fill="#E39F87" rx="4.986" transform="scale(-1 1) rotate(15 0 -286.581)"/>
          <rect width="28.043" height="53.908" x="19.762" y="24.212" fill="#EAA993" rx="14.022" transform="scale(-1 1) rotate(22 0 -122.638)"/>
          <rect width="9.971" height="21.875" x="46.116" y="55.625" fill="#EAA993" rx="4.986" transform="scale(-1 1) rotate(36 0 -90.712)"/>
          <rect width="34.275" height="41.875" x="6.855" y="5.625" fill="#C168AD" rx="2.5" transform="rotate(-23 23.993 26.562)"/>
          <rect width="9.971" height="17.5" x="35.566" y="63.92" fill="#EAA993" rx="4.986" transform="rotate(15 40.551 72.67)"/>
        </g>
        <g transform="translate(24.304 51.875)">
          <path fill="#E080CB" d="M43.9232416,0.532298715 L43.9232416,0.532298715 C67.8746269,0.532298715 87.2910609,19.9487328 87.2910609,43.900118 L87.2910609,133.71875 C87.2910609,135.807077 85.5981376,137.5 83.5098109,137.5 L4.33667239,137.5 C2.24834568,137.5 0.555422391,135.807077 0.555422391,133.71875 L0.555422391,43.900118 C0.555422391,19.9487328 19.9718564,0.532298715 43.9232416,0.532298715 Z"/>
          <ellipse cx="43.623" cy="78.75" fill="#C168AD" opacity=".341" rx="8.101" ry="8.125"/>
          <ellipse cx="67.304" cy="101.25" fill="#C168AD" opacity=".341" rx="8.101" ry="8.125"/>
          <ellipse cx="19.942" cy="55" fill="#C168AD" opacity=".341" rx="8.101" ry="8.125"/>
          <ellipse cx="66.681" cy="55" fill="#C168AD" opacity=".341" rx="8.101" ry="8.125"/>
          <ellipse cx="89.116" cy="78.75" fill="#C168AD" opacity=".341" rx="8.101" ry="8.125"/>
          <ellipse cx="19.942" cy="101.25" fill="#C168AD" opacity=".341" rx="8.101" ry="8.125"/>
          <path fill="#D577C0" d="M0.555422391,86.5047493 L0.555422391,70.9952507 C3.84507972,72.0289018 6.23188406,75.1099066 6.23188406,78.75 C6.23188406,82.3900934 3.84507972,85.4710982 0.555422391,86.5047493 Z"/>
        </g>
        <path fill="#E080CB" d="M97.0195667,47.5803278 L97.0195667,47.5803278 C106.484447,47.5803278 114.157248,55.253129 114.157248,64.718009 L114.157248,116.153344 C114.157248,117.534056 113.03796,118.653344 111.657248,118.653344 L82.3818856,118.653344 C81.0011737,118.653344 79.8818856,117.534056 79.8818856,116.153344 L79.8818856,64.718009 C79.8818856,55.253129 87.5546868,47.5803278 97.0195667,47.5803278 Z" transform="rotate(-55 97.02 83.117)"/>
        <path fill="#C168AD" d="M51.1014493,32.5 L51.1014493,32.5 C63.4918376,32.5 73.5362319,42.5443943 73.5362319,54.9347826 L73.5362319,75.0652174 C73.5362319,87.4556057 63.4918376,97.5 51.1014493,97.5 L51.1014493,97.5 C38.711061,97.5 28.6666667,87.4556057 28.6666667,75.0652174 L28.6666667,54.9347826 C28.6666667,42.5443943 38.711061,32.5 51.1014493,32.5 Z"/>
        <path stroke="#FFF" stroke-dasharray=".625 6.875" stroke-linecap="round" stroke-linejoin="round" stroke-width="6.25" d="M52.6594203,64.375 L52.6594203,64.375 C59.7150581,64.375 65.4347826,70.0947245 65.4347826,77.1503623 L65.4347826,97.2246377 C65.4347826,104.280275 59.7150581,110 52.6594203,110 L52.6594203,110 C45.6037825,110 39.884058,104.280275 39.884058,97.2246377 L39.884058,77.1503623 C39.884058,70.0947245 45.6037825,64.375 52.6594203,64.375 Z"/>
        <path fill="#FFF" d="M53.5942029,26.25 L53.5942029,26.25 C66.3287687,26.25 76.6521739,36.5734053 76.6521739,49.307971 L76.6521739,86.8664093 C76.6521739,91.0085449 73.2943095,94.3664093 69.1521739,94.3664093 C68.4087908,94.3664093 67.6695381,94.2558889 66.9586594,94.0384727 L49.8464981,88.8048638 L41.5717075,93.2278317 C37.91867,95.1804209 33.3744117,93.8019353 31.4218224,90.1488978 C30.84041,89.0611516 30.5362319,87.8468046 30.5362319,86.6134222 L30.5362319,49.307971 C30.5362319,36.5734053 40.8596371,26.25 53.5942029,26.25 Z"/>
        <g transform="translate(59.826 65)">
          <rect width="38.5" height="100" x="18.696" stroke="#A13EAB" stroke-width="3.75" rx="19.25"/>
          <rect width="40.928" height="27.538" x="18" y="42" fill="#C98D56" rx="10.014"/>
          <g transform="translate(.2 53.549)">
            <path fill="#AF49BA" d="M11.0363062,0 L64.2619098,0 C67.8572258,-6.60448834e-16 70.869608,2.7201378 71.2352369,6.296814 L75.0189301,43.309879 C75.3001434,46.0607806 73.2980655,48.5187954 70.5471639,48.8000087 C70.3779876,48.8173029 70.2080401,48.8259669 70.0379822,48.8259669 L5.26023378,48.8259669 C2.49499591,48.8259669 0.253327702,46.5842986 0.253327702,43.8190608 C0.253327702,43.6490028 0.261991644,43.4790553 0.279285841,43.309879 L4.06297904,6.296814 C4.42860792,2.7201378 7.44099016,3.32498409e-15 11.0363062,2.66453526e-15 Z"/>
            <path stroke="#A13EAB" stroke-linecap="square" stroke-width="2.503" d="M17.0915191 1.00138122L17.0915191 49.0013812M58.2767713 1.00138122L58.2767713 49.0013812"/>
          </g>
          <ellipse cx="25.406" cy="63.938" fill="#A13EAB" rx="4.742" ry="4.757"/>
          <ellipse cx="49.863" cy="63.938" fill="#A13EAB" rx="4.742" ry="4.757"/>
          <ellipse cx="25.405" cy="66.184" fill="#93349E" rx="3.742" ry="5"/>
          <ellipse cx="49.862" cy="66.184" fill="#93349E" rx="3.742" ry="5"/>
          <path stroke="#93349E" stroke-width="3.75" d="M25.156581,69.695442 C25.156581,77.9911556 30.7432587,84.7161602 37.6347748,84.7161602 C44.5262909,84.7161602 50.1129686,77.9911556 50.1129686,69.695442"/>
        </g>
        <g transform="rotate(-32 169.73 -78.457)">
          <rect width="9.971" height="21.875" x="49.888" y="63.6" fill="#EAA993" rx="4.986" transform="scale(-1 1) rotate(27 0 -154.026)"/>
          <path fill="#EAA993" d="M37.8999985,31.0868461 L37.8999985,31.0868461 C45.6439912,31.0868461 51.9217376,37.3645926 51.9217376,45.1085853 L47.0676356,44.289929 L51.9217376,51.6751151 L51.9217376,70.973253 C51.9217376,78.7172457 45.6439912,84.9949922 37.8999985,84.9949922 L37.8999985,84.9949922 C30.1560058,84.9949922 23.8782593,78.7172457 23.8782593,70.973253 L23.8782593,45.1085853 C23.8782593,37.3645926 30.1560058,31.0868461 37.8999985,31.0868461 Z" transform="scale(-1 1) rotate(22 0 -136.938)"/>
          <rect width="9.971" height="21.875" x="42.283" y="70.225" fill="#EAA993" rx="4.986" transform="scale(-1 1) rotate(36 0 -64.316)"/>
          <path fill="#E080CB" d="M26.6224304,5.17353656 L26.6224304,5.17353656 C36.0873103,5.17353656 43.7601115,12.8463378 43.7601115,22.3112177 L43.7601115,52.1782631 C43.7601115,53.558975 42.6408234,54.6782631 41.2601115,54.6782631 L17.0598848,54.6782631 C15.6791729,54.6782631 14.5598848,53.558975 14.5598848,52.1782631 C14.5598848,51.3861271 14.9352967,50.6408611 15.5718255,50.169363 L15.8748152,49.9449285 L9.4847492,46.090224 L9.4847492,22.3112177 C9.4847492,12.8463378 17.1575504,5.17353656 26.6224304,5.17353656 Z" transform="rotate(-23 26.622 29.926)"/>
          <rect width="9.971" height="17.5" x="31.132" y="70.996" fill="#EAA993" rx="4.986" transform="rotate(15 36.117 79.746)"/>
        </g>
        <path fill="#DC9F67" d="M108.442029 116.125L114.65942 116.125C116.040132 116.125 117.15942 117.244288 117.15942 118.625L117.15942 120.5C117.15942 122.916246 115.200666 124.875 112.78442 124.875L110.317029 124.875C107.900783 124.875 105.942029 122.916246 105.942029 120.5L105.942029 118.625C105.942029 117.244288 107.061317 116.125 108.442029 116.125zM81.0217391 116.125L87.2391304 116.125C88.6198423 116.125 89.7391304 117.244288 89.7391304 118.625L89.7391304 120.5C89.7391304 122.916246 87.7803762 124.875 85.3641304 124.875L82.8967391 124.875C80.4804933 124.875 78.5217391 122.916246 78.5217391 120.5L78.5217391 118.625C78.5217391 117.244288 79.6410273 116.125 81.0217391 116.125z"/>
        <g transform="translate(65 85)">
          <g transform="translate(0 4.415)">
            <path fill="#AA7240" d="M7.46755769,1.04879857 L15.3972558,9.1232682 C17.558873,11.3243497 17.585114,14.8432121 15.4565634,17.0762865 L0.315835712,32.9605082 L2.95478298,2.66917256 C3.08130236,1.2169112 4.36115703,0.142184988 5.81341839,0.268704373 C6.44014332,0.323303948 7.02675968,0.599952966 7.46755769,1.04879857 Z" transform="rotate(180 9.27 16.58)"/>
            <path fill="#976334" d="M9.1228514,30.1262108 L3.37322246,24.2716116 C4.12147753,23.208301 5.34627457,22.5153152 6.73026316,22.5153152 C9.00843775,22.5153152 10.8552632,24.3930461 10.8552632,26.7093445 C10.8552632,28.1187444 10.1715006,29.3657706 9.1228514,30.1262108 Z"/>
            <ellipse cx="6.73" cy="18.321" fill="#976334" rx="2.388" ry="2.428"/>
          </g>
          <g transform="matrix(-1 0 0 1 66 4.415)">
            <path fill="#AA7240" d="M7.46755769,1.04879857 L15.3972558,9.1232682 C17.558873,11.3243497 17.585114,14.8432121 15.4565634,17.0762865 L0.315835712,32.9605082 L2.95478298,2.66917256 C3.08130236,1.2169112 4.36115703,0.142184988 5.81341839,0.268704373 C6.44014332,0.323303948 7.02675968,0.599952966 7.46755769,1.04879857 Z" transform="rotate(180 9.27 16.58)"/>
            <path fill="#976334" d="M9.1228514,30.1262108 L3.37322246,24.2716116 C4.12147753,23.208301 5.34627457,22.5153152 6.73026316,22.5153152 C9.00843775,22.5153152 10.8552632,24.3930461 10.8552632,26.7093445 C10.8552632,28.1187444 10.1715006,29.3657706 9.1228514,30.1262108 Z"/>
            <ellipse cx="6.73" cy="18.321" fill="#976334" rx="2.388" ry="2.428"/>
          </g>
          <path fill="#DC9F67" d="M26.932323,7.10542736e-15 L38.6334665,7.10542736e-15 C45.9222767,5.76649463e-15 51.8310249,5.90874818 51.8310249,13.1975584 L51.8310249,16.9968556 C51.8310249,26.3839597 44.2212735,33.9937112 34.8341694,33.9937112 L30.7316201,33.9937112 C21.344516,33.9937112 13.7347645,26.3839597 13.7347645,16.9968556 L13.7347645,13.1975584 C13.7347645,5.90874818 19.6435127,8.44436008e-15 26.932323,7.10542736e-15 Z"/>
          <rect width="5.218" height="10.131" x="23.447" y="6.181" fill="#895E37" rx="2.609"/>
          <rect width="5.218" height="10.131" x="37.342" y="6.181" fill="#895E37" rx="2.609"/>
          <path fill="#E9D9D0" d="M29.6005209,21.6323616 L36.3994791,21.6323616 C39.5579635,21.6323616 42.1184211,24.1928192 42.1184211,27.3513036 L42.1184211,27.8130364 C42.1184211,31.2265288 39.3512387,33.9937112 35.9377463,33.9937112 L30.0622537,33.9937112 C26.6487613,33.9937112 23.8815789,31.2265288 23.8815789,27.8130364 L23.8815789,27.3513036 C23.8815789,24.1928192 26.4420365,21.6323616 29.6005209,21.6323616 Z"/>
          <path fill="#F86E6E" d="M28.6656774,25.5519384 L31.6089451,25.5519384 L31.6089451,34.1663508 C31.6089451,36.8359015 29.4448466,39 26.7752959,39 L26.7752959,39 C24.1057451,39 21.9416467,36.8359015 21.9416467,34.1663508 L21.9416467,32.2759692 C21.9416467,28.5623896 24.9520978,25.5519384 28.6656774,25.5519384 Z"/>
          <path stroke="#DD5A5A" stroke-linecap="round" stroke-linejoin="round" stroke-width="1.573" d="M28.1577132,27.2980856 C27.1826439,27.7057634 26.6951093,28.6228838 26.6951093,30.0494466 C26.6951093,31.4760095 26.6951093,32.8348295 26.6951093,34.1259066"/>
          <path fill="#FFF" d="M27.4980956,13.6800464 L27.4980956,13.6800464 C31.4959449,13.6800464 34.7368421,16.9209436 34.7368421,20.9187929 L34.7368421,22.8833308 C34.7368421,26.0904073 32.1369929,28.6902565 28.9299164,28.6902565 L26.0662747,28.6902565 C22.8591982,28.6902565 20.259349,26.0904073 20.259349,22.8833308 L20.259349,20.9187929 C20.259349,16.9209436 23.5002462,13.6800464 27.4980956,13.6800464 Z"/>
          <path fill="#FFF" d="M39.2217798,13.6800464 L39.2217798,13.6800464 C43.2196291,13.6800464 46.4605263,16.9209436 46.4605263,20.9187929 L46.4605263,22.8833308 C46.4605263,26.0904073 43.8606771,28.6902565 40.6536006,28.6902565 L37.789959,28.6902565 C34.5828824,28.6902565 31.9830332,26.0904073 31.9830332,22.8833308 L31.9830332,20.9187929 C31.9830332,16.9209436 35.2239305,13.6800464 39.2217798,13.6800464 Z"/>
          <rect width="11.724" height="5.739" x="27.789" y="13.686" fill="#FFF"/>
          <path fill="#6A6868" d="M30.9717642,13.3475054 L35.1158397,13.3475054 C35.8447207,13.3475054 36.4355956,13.9383802 36.4355956,14.6672613 L36.4355956,16.5680181 C36.4355956,17.7342277 35.4901959,18.6796274 34.3239862,18.6796274 L31.7636177,18.6796274 C30.597408,18.6796274 29.6520083,17.7342277 29.6520083,16.5680181 L29.6520083,14.6672613 C29.6520083,13.9383802 30.2428831,13.3475054 30.9717642,13.3475054 Z"/>
          <ellipse cx="41.684" cy="20.308" fill="#DEDEDE" rx="1.303" ry="1.324"/>
          <ellipse cx="39.079" cy="23.84" fill="#DEDEDE" rx="1.303" ry="1.324"/>
          <ellipse cx="24.75" cy="20.308" fill="#DEDEDE" rx="1.303" ry="1.324" transform="matrix(-1 0 0 1 49.5 0)"/>
          <ellipse cx="27.355" cy="23.84" fill="#DEDEDE" rx="1.303" ry="1.324" transform="matrix(-1 0 0 1 54.71 0)"/>
        </g>
        <path fill="#DB8B6F" d="M80.3913043 74.375C86.930676 74.375 92.2318841 69.1982924 92.2318841 62.8125 92.2318841 56.4267076 86.930676 51.25 80.3913043 51.25 73.8519327 51.25 68.5507246 56.4267076 68.5507246 62.8125 68.5507246 69.1982924 73.8519327 74.375 80.3913043 74.375zM23.057971 74.375C29.5973426 74.375 34.8985507 69.1982924 34.8985507 62.8125 34.8985507 56.4267076 29.5973426 51.25 23.057971 51.25 16.5185994 51.25 11.2173913 56.4267076 11.2173913 62.8125 11.2173913 69.1982924 16.5185994 74.375 23.057971 74.375z"/>
        <g transform="translate(5.609)">
          <path fill="#EAA993" d="M21.1902174,34.375 L70.4184783,34.375 C70.7636562,34.375 71.0434783,34.654822 71.0434783,35 L71.0434783,72.5 C71.0434783,80.0939153 64.8873936,86.25 57.2934783,86.25 L34.3152174,86.25 C26.7213021,86.25 20.5652174,80.0939153 20.5652174,72.5 L20.5652174,35 C20.5652174,34.654822 20.8450394,34.375 21.1902174,34.375 Z"/>
          <path fill="#E7E2E2" d="M17.1376812,23.125 L17.1376812,23.125 C26.6025611,23.125 34.2753623,30.7978012 34.2753623,40.2626812 L34.2753623,41.6123188 C34.2753623,51.0771988 26.6025611,58.75 17.1376812,58.75 L17.1376812,58.75 C7.67280121,58.75 -1.66044549e-14,51.0771988 -1.77635684e-14,41.6123188 L-1.77635684e-14,40.2626812 C-1.89226819e-14,30.7978012 7.67280121,23.125 17.1376812,23.125 Z"/>
          <path fill="#E7E2E2" d="M36.4565217,0 L36.4565217,0 C49.7073537,-2.43413834e-15 60.4492754,10.7419217 60.4492754,23.9927536 L60.4492754,26.0072464 C60.4492754,39.2580783 49.7073537,50 36.4565217,50 L36.4565217,50 C23.2056898,50 12.4637681,39.2580783 12.4637681,26.0072464 L12.4637681,23.9927536 C12.4637681,10.7419217 23.2056898,2.43413834e-15 36.4565217,0 Z"/>
          <path fill="#E7E2E2" d="M72.6014493,23.125 L72.6014493,23.125 C82.0663292,23.125 89.7391304,30.7978012 89.7391304,40.2626812 L89.7391304,41.6123188 C89.7391304,51.0771988 82.0663292,58.75 72.6014493,58.75 L72.6014493,58.75 C63.1365693,58.75 55.4637681,51.0771988 55.4637681,41.6123188 L55.4637681,40.2626812 C55.4637681,30.7978012 63.1365693,23.125 72.6014493,23.125 Z"/>
          <path fill="#EAA993" d="M35.6596467,31.875 L55.3258605,31.875 C66.7598807,31.875 76.0289855,41.1441048 76.0289855,52.578125 L76.0289855,57.6033031 C76.0289855,66.2619941 69.0097296,73.28125 60.3510386,73.28125 L30.6344686,73.28125 C21.9757777,73.28125 14.9565217,66.2619941 14.9565217,57.6033031 L14.9565217,52.578125 C14.9565217,41.1441048 24.2256265,31.875 35.6596467,31.875 Z"/>
          <path stroke="#E29A81" stroke-linecap="round" stroke-linejoin="round" stroke-width="3.125" d="M33.6521739,63.75 C33.4812383,64.6055934 32.8859191,65.4489407 31.8662164,66.2800416 C30.8465138,67.1111426 29.7799972,67.6222621 28.6666667,67.8134002 L28.6666667,76.25"/>
          <path stroke="#E29A81" stroke-linecap="round" stroke-linejoin="round" stroke-width="3.125" d="M51.7246377,63.75 C51.553702,64.6055934 50.9583829,65.4489407 49.9386802,66.2800416 C48.9189776,67.1111426 47.852461,67.6222621 46.7391304,67.8134002 L46.7391304,76.25" transform="matrix(-1 0 0 1 98.464 0)"/>
          <path fill="#DB8B6F" d="M33.6612319,60.625 L42.3677536,60.625 C44.0936435,60.625 45.4927536,62.0241102 45.4927536,63.75 L45.4927536,63.75 C45.4927536,65.4758898 44.0936435,66.875 42.3677536,66.875 L33.6612319,66.875 C31.935342,66.875 30.5362319,65.4758898 30.5362319,63.75 L30.5362319,63.75 C30.5362319,62.0241102 31.935342,60.625 33.6612319,60.625 Z"/>
          <ellipse cx="33.029" cy="33.125" fill="#E7E2E2" rx="13.087" ry="13.125"/>
          <polyline stroke="#DB8B6F" stroke-linecap="round" stroke-linejoin="round" stroke-width="1.875" points="24.304 53.125 27.42 55.235 24.304 56.875" opacity=".471"/>
          <polyline stroke="#DB8B6F" stroke-linecap="round" stroke-linejoin="round" stroke-width="1.875" points="63.565 53.75 66.681 55.86 63.565 57.5" opacity=".471" transform="matrix(-1 0 0 1 130.246 0)"/>
          <path stroke="#B46F57" stroke-linecap="round" stroke-linejoin="round" stroke-width="3.125" d="M33.6521739,55.625 L31.1594203,55.625"/>
          <path stroke="#B46F57" stroke-linecap="round" stroke-linejoin="round" stroke-width="2.5" d="M36.1449275,70.625 C37.3076446,71.4583333 38.7979615,71.875 40.6158783,71.875 C42.4337952,71.875 43.8516908,71.4583333 44.8695652,70.625" opacity=".428"/>
          <g transform="translate(9.971 33.75)">
            <path fill="#D7F8FF" fill-opacity=".507" stroke="#8D6284" stroke-width="4.375" d="M4.375,-2.1875 L18.0597826,-2.1875 C21.6841513,-2.1875 24.6222826,0.750631329 24.6222826,4.375 L24.6222826,21.25 C24.6222826,24.8743687 21.6841513,27.8125 18.0597826,27.8125 L4.375,27.8125 C0.750631329,27.8125 -2.1875,24.8743687 -2.1875,21.25 L-2.1875,4.375 C-2.1875,0.750631329 0.750631329,-2.1875 4.375,-2.1875 Z"/>
            <path fill="#FFF" fill-opacity=".3" d="M8.77196814,0 L18.0597826,0 C20.4760284,1.70220021e-15 22.4347826,1.95875422 22.4347826,4.375 L22.4347826,7.48890142 L4.29932533,25.6243587 C1.91798883,25.5839702 2.92809407e-16,23.6409703 0,21.25 L0,8.77196814 L8.77196814,-1.77635684e-15 Z"/>
          </g>
          <path stroke="#B46F57" stroke-linecap="round" stroke-linejoin="round" stroke-width="3.125" d="M57.3333333,55.625 L54.8405797,55.625"/>
          <g transform="translate(44.87 33.75)">
            <rect width="28.679" height="30" x="-2.188" y="-2.188" fill="#D7F8FF" fill-opacity=".497" stroke="#8D6284" stroke-width="4.375" rx="4.375"/>
            <path fill="#FFF" fill-opacity=".3" d="M9.06134584,0 L19.9293478,0 C22.3455936,1.70220021e-15 24.3043478,1.95875422 24.3043478,4.375 L24.3043478,6.7900354 L5.46938323,25.625 L4.375,25.625 C1.95875422,25.625 -5.92273654e-16,23.6662458 -8.8817842e-16,21.25 L-8.8817842e-16,9.06134584 L9.06134584,1.77635684e-15 Z"/>
          </g>
          <path fill="#DB8B6F" d="M34.9057971,50.625 L39.8768116,50.625 C41.2575235,50.625 42.3768116,51.7442881 42.3768116,53.125 L42.3768116,63.1394928 C42.3768116,65.8929124 40.144724,68.125 37.3913043,68.125 L37.3913043,68.125 C34.6378847,68.125 32.4057971,65.8929124 32.4057971,63.1394928 L32.4057971,53.125 C32.4057971,51.7442881 33.5250852,50.625 34.9057971,50.625 Z"/>
          <rect width="12.464" height="4.375" x="32.406" y="46.25" fill="#8D6284"/>
        </g>
      </g>
    </g>
  </g>
</svg>
