<?xml version="1.0" encoding="UTF-8"?>
<svg version="1.1" viewBox="0 0 360 205" xml:space="preserve" xmlns="http://www.w3.org/2000/svg" xmlns:cc="http://creativecommons.org/ns#" xmlns:dc="http://purl.org/dc/elements/1.1/" xmlns:rdf="http://www.w3.org/1999/02/22-rdf-syntax-ns#"><metadata><rdf:RDF><cc:Work rdf:about=""><dc:format>image/svg+xml</dc:format><dc:type rdf:resource="http://purl.org/dc/dcmitype/StillImage"/></cc:Work></rdf:RDF></metadata><defs><clipPath id="cs"><path d="m0 164h288v-164h-288v164z" clip-rule="evenodd"/></clipPath><clipPath id="cc"><path d="m-16-97h320v1706h-320v-1706z"/></clipPath><clipPath id="bm"><path d="m-17-14h319v183h-319v-183z"/></clipPath><clipPath id="bb"><path d="m0 0h288v164h-288v-164z"/></clipPath><clipPath id="aq"><path d="m129.79 47.162 6.0663-6.0663c4.2726-4.2726 4.2726-11.2 0-15.472l-34.62-34.62c-4.2726-4.2726-11.2-4.2726-15.472 0l-6.0663 6.0663c-4.2726 4.2726-4.2726 11.2 0 15.472l34.62 34.62c4.2726 4.2726 11.2 4.2726 15.472 0z" clip-rule="evenodd"/></clipPath><clipPath id="af"><path d="m0 0h288v164h-288v-164z"/></clipPath><clipPath id="u"><path d="m157.97 47.162-6.0663-6.0663c-4.2726-4.2726-4.2726-11.2 0-15.472l15.468-15.468c4.2726-4.2726 11.2-4.2726 15.472 0l6.0663 6.0663c4.2726 4.2726 4.2726 11.2 0 15.472l-15.468 15.468c-4.2726 4.2726-11.2 4.2726-15.472 0z" clip-rule="evenodd"/></clipPath><clipPath id="m"><path d="m0 0h288v164h-288v-164z"/></clipPath><clipPath id="l"><path d="m136.15 142.42c15.726 0 28.474-12.748 28.474-28.474v-6.0348c0-15.726-12.748-28.474-28.474-28.474-15.726 0-28.474 12.748-28.474 28.474v6.0348c0 15.726 12.748 28.474 28.474 28.474z" clip-rule="evenodd"/></clipPath><clipPath id="k"><path d="m0 0h288v164h-288v-164z"/></clipPath><clipPath id="j"><path d="m102 74h68v74h-68v-74z"/></clipPath><clipPath id="i"><path d="m107 79h58v64h-58v-64z"/></clipPath><clipPath id="h"><path d="m148.94 113.72c0.5299 1.368 1.1947 2.7034 1.9985 3.9897 5.5415 8.8682 16.076 12.819 26.136 10.723l-6.0003-9.6025-22.134-5.1101z" clip-rule="evenodd"/></clipPath><clipPath id="g"><path d="m0 0h288v164h-288v-164z"/></clipPath><clipPath id="f"><path d="m0 0h288v164h-288v-164z"/></clipPath><clipPath id="e"><path d="m146.11 126.32c-0.53 1.368-1.1947 2.7033-1.9985 3.9897-5.5415 8.8682-16.076 12.819-26.136 10.723l6.0003-9.6025 22.134-5.1101z" clip-rule="evenodd"/></clipPath><clipPath id="d"><path d="m0 0h288v164h-288v-164z"/></clipPath><clipPath id="c"><path d="m0 0h288v164h-288v-164z"/></clipPath><clipPath id="b"><path d="m163.63 127.51c10.057 0 18.21-8.1529 18.21-18.21v-1.7009c0-10.057-8.1529-18.21-18.21-18.21s-18.21 8.1529-18.21 18.21v1.7009c0 10.057 8.1529 18.21 18.21 18.21z" clip-rule="evenodd"/></clipPath><clipPath id="a"><path d="m0 0h288v164h-288v-164z"/></clipPath><clipPath id="dm"><path d="m140 84h47v49h-47v-49z"/></clipPath><clipPath id="dl"><path d="m145 89h37v39h-37v-39z"/></clipPath><clipPath id="dk"><path d="m157.37 122.53c-1.1875-4.5813-3.5671-8.9041-7.1422-12.479-8.4101-8.4101-20.958-10.205-31.274-5.4268l17.906 17.906h20.511z" clip-rule="evenodd"/></clipPath><clipPath id="dj"><path d="m0 0h288v164h-288v-164z"/></clipPath><clipPath id="di"><path d="m156.68 72.812h27.02c-2.3716-5.0907-7.5292-8.6186-13.51-8.6186s-11.138 3.528-13.51 8.6186z" clip-rule="evenodd"/></clipPath><clipPath id="dh"><path d="m0 0h288v164h-288v-164z"/></clipPath><clipPath id="dg"><path d="m0 0h288v164h-288v-164z"/></clipPath><clipPath id="df"><path d="m157.06 80.439 19.106-19.106c-5.2766-1.9226-11.418-0.77034-15.647 3.4586-4.229 4.2289-5.3813 10.371-3.4586 15.647z" clip-rule="evenodd"/></clipPath><clipPath id="de"><path d="m0 0h288v164h-288v-164z"/></clipPath><clipPath id="dd"><path d="m0 0h288v164h-288v-164z"/></clipPath><clipPath id="dc"><path d="m132.18 72.812h-27.02c2.3717-5.0907 7.5293-8.6186 13.51-8.6186s11.138 3.528 13.51 8.6186z" clip-rule="evenodd"/></clipPath><clipPath id="db"><path d="m0 0h288v164h-288v-164z"/></clipPath><clipPath id="da"><path d="m0 0h288v164h-288v-164z"/></clipPath><clipPath id="cz"><path d="m131.79 80.439-19.106-19.106c5.2767-1.9226 11.418-0.77034 15.647 3.4586 4.229 4.2289 5.3813 10.371 3.4586 15.647z" clip-rule="evenodd"/></clipPath><clipPath id="cy"><path d="m0 0h288v164h-288v-164z"/></clipPath><clipPath id="cx"><path d="m0 0h288v164h-288v-164z"/></clipPath><clipPath id="cw"><path d="m144.43 53.585c13.714 0 24.832-11.118 24.832-24.832v-21.907c0-2.0141-1.6327-3.6469-3.6468-3.6469h-42.37c-2.0141 0-3.6468 1.6328-3.6468 3.6469v21.907c0 13.714 11.118 24.832 24.832 24.832z" clip-rule="evenodd"/></clipPath><clipPath id="cv"><path d="m0 0h288v164h-288v-164z"/></clipPath><clipPath id="cu"><path d="m114-2h61v61h-61v-61z"/></clipPath><clipPath id="ct"><path d="m119 3h51v51h-51v-51z"/></clipPath><clipPath id="cr"><path d="m124.24 48.945h7.2716c2.5634 0 4.6415-2.0781 4.6415-4.6415v-31.821c0-2.5634-2.0781-4.6415-4.6415-4.6415h-11.913v36.463c0 2.5634 2.078 4.6415 4.6414 4.6415z" clip-rule="evenodd"/></clipPath><clipPath id="cq"><path d="m119 3h51v51h-51v-51z"/></clipPath><clipPath id="cp"><path d="m164.62 48.945h-7.2716c-2.5634 0-4.6415-2.0781-4.6415-4.6415v-31.821c0-2.5634 2.0781-4.6415 4.6415-4.6415h11.913v36.463c0 2.5634-2.078 4.6415-4.6414 4.6415z" clip-rule="evenodd"/></clipPath><clipPath id="co"><path d="m119 3h51v51h-51v-51z"/></clipPath><clipPath id="cn"><path d="m112.32 102.65h63.557c2.9292 0 5.3038-2.3745 5.3038-5.3037 0-2.9292-2.3746-5.3038-5.3038-5.3038h-63.557c-2.9292 0-5.3038 2.3746-5.3038 5.3038 0 2.9292 2.3746 5.3037 5.3038 5.3037z" clip-rule="evenodd"/></clipPath><clipPath id="cm"><path d="m0 0h288v164h-288v-164z"/></clipPath><clipPath id="cl"><path d="m126.84 60.709c9.0622-2.6691 15.036-3.9156 17.921-3.7396 3.1255-0.17343 8.8596 1.0339 17.202 3.6221v-1e-5c2.1615 0.67057 4.4573-0.53808 5.1279-2.6996 0.122-0.39318 0.184-0.8025 0.184-1.2142v-6.2874c0-2.2631-1.8346-4.0978-4.0978-4.0978h-37.495c-2.2632 0-4.0978 1.8346-4.0978 4.0978v6.3878c0 2.2631 1.8346 4.0978 4.0978 4.0978 0.3919 0 0.7818-0.05623 1.1577-0.16695z" clip-rule="evenodd"/></clipPath><clipPath id="ck"><path d="m0 0h288v164h-288v-164z"/></clipPath><clipPath id="cj"><path d="m144.43 62.867c4.2057 0 7.6151-3.4094 7.6151-7.6151v-7.3109c0-4.2057-3.4094-7.6151-7.6151-7.6151-4.2056 0-7.615 3.4094-7.615 7.6151v7.3109c0 4.2057 3.4094 7.6151 7.615 7.6151z" clip-rule="evenodd"/></clipPath><clipPath id="ci"><path d="m0 0h288v164h-288v-164z"/></clipPath><clipPath id="ch"><path d="m174.89 72.812c5.6685 0 10.264 4.6008 10.264 10.276s-4.5953 10.276-10.264 10.276c-5.6686 0-10.264-4.6008-10.264-10.276s4.5952-10.276 10.264-10.276z" clip-rule="evenodd"/></clipPath><clipPath id="cg"><path d="m0 0h288v164h-288v-164z"/></clipPath><clipPath id="cf"><path d="m113.3 72.812c5.6686 0 10.264 4.6008 10.264 10.276s-4.5952 10.276-10.264 10.276c-5.6685 0-10.264-4.6008-10.264-10.276s4.5953-10.276 10.264-10.276z" clip-rule="evenodd"/></clipPath><clipPath id="ce"><path d="m0 0h288v164h-288v-164z"/></clipPath><clipPath id="cd"><path d="m128.22 113.25h31.744c8.4226 0 15.251-6.8279 15.251-15.251v-12.592c0-8.0565-6.5311-14.588-14.588-14.588h-33.07c-8.0565 0-14.588 6.531-14.588 14.588v12.592c0 8.4227 6.828 15.251 15.251 15.251z" clip-rule="evenodd"/></clipPath><clipPath id="cb"><path d="m0 0h288v164h-288v-164z"/></clipPath><clipPath id="ca"><path d="m132.2 101.98h23.798c8.4227 0 15.251-6.828 15.251-15.251v-9.2794c0-13.548-10.982-24.53-24.53-24.53h-5.2389c-13.548 0-24.53 10.982-24.53 24.53v9.2794c0 8.4227 6.828 15.251 15.251 15.251z" clip-rule="evenodd"/></clipPath><clipPath id="bz"><path d="m0 0h288v164h-288v-164z"/></clipPath><clipPath id="by"><path d="m132.84 99.993c1.8285 0 3.3109-1.4824 3.3109-3.3109v-6.6376c0-1.8286-1.4824-3.3109-3.3109-3.3109-1.8286 0-3.3109 1.4823-3.3109 3.3109v6.6376c0 1.8286 1.4823 3.3109 3.3109 3.3109z" clip-rule="evenodd"/></clipPath><clipPath id="bx"><path d="m0 0h288v164h-288v-164z"/></clipPath><clipPath id="bw"><path d="m126.79 96.679c1.798-3.535 4.8339-5.8552 9.1077-6.9606 4.2738-1.1054 2.4393-2.542-5.5034-4.31l-7.484 7.127 3.8797 4.1436z" clip-rule="evenodd"/></clipPath><clipPath id="bv"><path d="m0 0h288v164h-288v-164z"/></clipPath><clipPath id="bu"><path d="m156.01 99.993c1.8286 0 3.3109-1.4824 3.3109-3.3109v-6.6376c0-1.8286-1.4823-3.3109-3.3109-3.3109-1.8285 0-3.3109 1.4823-3.3109 3.3109v6.6376c0 1.8286 1.4824 3.3109 3.3109 3.3109z" clip-rule="evenodd"/></clipPath><clipPath id="bt"><path d="m0 0h288v164h-288v-164z"/></clipPath><clipPath id="bs"><path d="m140.66 100.66h6.8785c1.0262 0 1.8582-0.83194 1.8582-1.8582v-13.521c0-1.0263-0.832-1.8582-1.8582-1.8582h-6.8785c-1.0262 0-1.8582 0.83196-1.8582 1.8582v13.521c0 1.0263 0.832 1.8582 1.8582 1.8582z" clip-rule="evenodd"/></clipPath><clipPath id="br"><path d="m0 0h288v164h-288v-164z"/></clipPath><clipPath id="bq"><path d="m162.73 96.679c-1.7979-3.535-4.8338-5.8552-9.1077-6.9606-4.2738-1.1054-2.4393-2.542 5.5035-4.31l7.484 7.127-3.8798 4.1436z" clip-rule="evenodd"/></clipPath><clipPath id="bp"><path d="m0 0h288v164h-288v-164z"/></clipPath><clipPath id="bo"><path d="m137.55 48.253-14.36 8.4971c-1.6231 0.9604-3.7174 0.42319-4.6778-1.1999-0.3116-0.52655-0.476-1.1271-0.476-1.739v-8.4143c0-1.8859 1.5289-3.4148 3.4148-3.4148h15.135c1.4578 0 2.6396 1.1818 2.6396 2.6396v0.69238c0 1.207-0.6371 2.3242-1.6758 2.9389z" clip-rule="evenodd"/></clipPath><clipPath id="bn"><path d="m0 0h288v164h-288v-164z"/></clipPath><clipPath id="bl"><path d="m151.72 48.253 14.36 8.4971c1.623 0.9604 3.7174 0.42319 4.6778-1.1999 0.3115-0.52655 0.4759-1.1271 0.4759-1.739v-8.4143c0-1.8859-1.5288-3.4148-3.4148-3.4148h-15.135c-1.4579 0-2.6397 1.1818-2.6397 2.6396v0.69238c0 1.207 0.6371 2.3242 1.6759 2.9389z" clip-rule="evenodd"/></clipPath><clipPath id="bk"><path d="m0 0h288v164h-288v-164z"/></clipPath><clipPath id="bj"><path d="m132.7 46.231c-0.9152 0-1.6572-0.74193-1.6572-1.6572v-15.298c0-0.91522 0.742-1.6572 1.6572-1.6572s1.6571 0.74193 1.6571 1.6572v15.298c0 0.91522-0.7419 1.6572-1.6571 1.6572z" clip-rule="evenodd"/></clipPath><clipPath id="bi"><path d="m0 0h288v164h-288v-164z"/></clipPath><clipPath id="bh"><path d="m155.7 46.231c-0.9152 0-1.6572-0.74193-1.6572-1.6572v-15.298c0-0.91522 0.742-1.6572 1.6572-1.6572s1.6571 0.74193 1.6571 1.6572v15.298c0 0.91522-0.7419 1.6572-1.6571 1.6572z" clip-rule="evenodd"/></clipPath><clipPath id="bg"><path d="m0 0h288v164h-288v-164z"/></clipPath><clipPath id="bf"><path d="m186.48 2.5365c8.7771 0 15.892 7.1238 15.892 15.911 0 8.7876-7.1153 15.911-15.892 15.911s-15.892-7.1238-15.892-15.911c0-8.7876 7.1152-15.911 15.892-15.911z" clip-rule="evenodd"/></clipPath><clipPath id="be"><path d="m0 0h288v164h-288v-164z"/></clipPath><clipPath id="bd"><path d="m0 0h288v164h-288v-164z"/></clipPath><clipPath id="bc"><path d="m140 70h15v12h-15v-12z"/></clipPath><clipPath id="ba"><path d="m140 71h14v11h-14v-11z"/></clipPath><clipPath id="az"><path d="m163.05 72.035-1.795-0.54879c-0.2511-0.07679-0.3925-0.34264-0.3157-0.5938l11.617-37.997c0.0768-0.25115 0.3426-0.39251 0.5938-0.31572l1.795 0.54879c0.2512 0.07678 0.3925 0.34263 0.3157 0.59379l-11.617 37.997c-0.0768 0.25116-0.3426 0.39251-0.5938 0.31573z" clip-rule="evenodd"/></clipPath><clipPath id="ay"><path d="m0 0h288v164h-288v-164z"/></clipPath><clipPath id="ax"><path d="m163.2 73.134-2.6966-0.82441c-0.2511-0.07679-0.3925-0.34264-0.3157-0.5938l2.1597-7.064c0.0768-0.25116 0.3427-0.39251 0.5938-0.31573l2.6965 0.82441c0.2512 0.07679 0.3925 0.34264 0.3158 0.5938l-2.1597 7.064c-0.0768 0.25116-0.3427 0.39251-0.5938 0.31573z" clip-rule="evenodd"/></clipPath><clipPath id="aw"><path d="m0 0h288v164h-288v-164z"/></clipPath><clipPath id="av"><path d="m147.37 77.728-0.58-1.7852c-0.0812-0.24978 0.0555-0.51806 0.3053-0.59921l15.142-4.92c0.2497-0.08116 0.518 0.05554 0.5992 0.30532l0.58 1.7852c0.0812 0.24978-0.0555 0.51806-0.3053 0.59921l-15.142 4.92c-0.2497 0.08116-0.518-0.05554-0.5992-0.30532z" clip-rule="evenodd"/></clipPath><clipPath id="au"><path d="m0 0h288v164h-288v-164z"/></clipPath><clipPath id="at"><path d="m162.97 70.139 0.8713 2.6817c0.0812 0.24977-0.0555 0.51805-0.3053 0.59921l-7.194 2.3375c-0.2497 0.08116-0.518-0.05554-0.5992-0.30532l-0.8713-2.6817c-0.0812-0.24978 0.0555-0.51806 0.3053-0.59922l7.194-2.3375c0.2498-0.08115 0.518 0.05554 0.5992 0.30532z" clip-rule="evenodd"/></clipPath><clipPath id="as"><path d="m0 0h288v164h-288v-164z"/></clipPath><clipPath id="ar"><path d="m0 0h288v164h-288v-164z"/></clipPath><clipPath id="ap"><path d="m160 14h30v46h-30v-46z"/></clipPath><clipPath id="ao"><path d="m187.19 59.659h-25.184c-1.0505 0-1.9021-0.85162-1.9021-1.9022v-41.063c0-1.3566 1.0997-2.4563 2.4563-2.4563h24.076c1.3566 0 2.4563 1.0997 2.4563 2.4563v41.063c0 1.0505-0.8516 1.9022-1.9022 1.9022z" clip-rule="evenodd"/></clipPath><clipPath id="an"><path d="m158 12h32v48h-32v-48z"/></clipPath><clipPath id="am"><path d="m183.66 58.239h-5.871c-0.6566 0-1.1888-0.53226-1.1888-1.1888v-29.458c0-2.2778 1.8465-4.1243 4.1243-4.1243s4.1243 1.8465 4.1243 4.1243v29.458c0 0.65659-0.5322 1.1888-1.1888 1.1888z" clip-rule="evenodd"/></clipPath><clipPath id="al"><path d="m158 12h32v48h-32v-48z"/></clipPath><clipPath id="ak"><path d="m186.74 43.811h-23.803v-24.826c0-1.0505 0.8516-1.9022 1.9021-1.9022h19.999c1.0505 0 1.9021 0.85162 1.9021 1.9022v24.826z" clip-rule="evenodd"/></clipPath><clipPath id="aj"><path d="m0 0h288v164h-288v-164z"/></clipPath><clipPath id="ai"><path d="m157 12h35v41h-35v-41z"/></clipPath><clipPath id="ah"><path d="m162 17h25v27h-25v-27z"/></clipPath><clipPath id="ag"><path d="m183.9 52.326h-6.3465c-0.5253 0-0.9511-0.42581-0.9511-0.95108v-22.224c0-0.52527 0.4258-0.95108 0.9511-0.95108h6.3465c0.5252 0 0.951 0.42581 0.951 0.95108v22.224c0 0.52527-0.4258 0.95108-0.951 0.95108z" clip-rule="evenodd"/></clipPath><clipPath id="ae"><path d="m162 17h25v27h-25v-27z"/></clipPath><clipPath id="ad"><path d="m175.79 63.13c3.6312 5.5916 11.088 7.1936 16.655 3.5782 5.5672-3.6154 7.1367-11.079 3.5054-16.671l-20.161 13.093z" clip-rule="evenodd"/></clipPath><clipPath id="ac"><path d="m0 0h288v164h-288v-164z"/></clipPath><clipPath id="ab"><path d="m0 0h288v164h-288v-164z"/></clipPath><clipPath id="aa"><path d="m190.98 65.079 0.6657-0.43231-5.3964-8.3097-0.6657 0.4323 5.3964 8.3097z" clip-rule="evenodd"/></clipPath><clipPath id="z"><path d="m0 0h288v164h-288v-164z"/></clipPath><clipPath id="y"><path d="m195.9 57.811-0.1242 0.78397-9.7862-1.55 0.1242-0.78397 9.7862 1.55z" clip-rule="evenodd"/></clipPath><clipPath id="x"><path d="m0 0h288v164h-288v-164z"/></clipPath><clipPath id="w"><path d="m183.1 66.125 0.7667 0.20544 2.5644-9.5706-0.7667-0.20544-2.5644 9.5706z" clip-rule="evenodd"/></clipPath><clipPath id="v"><path d="m0 0h288v164h-288v-164z"/></clipPath><clipPath id="t"><path d="m-13.491 14.47h311.98c1.938 0 3.509-1.571 3.509-3.509v-6.9045c0-1.9379-1.571-3.509-3.509-3.509h-311.98c-1.9379 0-3.509 1.571-3.509 3.509v6.9045c0 1.938 1.571 3.509 3.509 3.509z" clip-rule="evenodd"/></clipPath><clipPath id="s"><path d="m0 0h288v164h-288v-164z"/></clipPath><clipPath id="r"><path d="m155.08 115.9c-0.8626-1.2704-1.855-2.4758-2.9776-3.5985-7.7399-7.7399-19.414-9.2886-29.181-4.7822l8.3807 8.3807h23.778z" clip-rule="evenodd"/></clipPath><clipPath id="q"><path d="m0 0h288v164h-288v-164z"/></clipPath><clipPath id="p"><path d="m0 0h288v164h-288v-164z"/></clipPath><clipPath id="o"><path d="m180.69 26.403h9.587c3.3869 0 6.1325-2.7456 6.1325-6.1325v-4.1433c0-1.0986-0.8906-1.9892-1.9892-1.9892h-17.874c-1.0986 0-1.9892 0.8906-1.9892 1.9892v4.1433c0 3.3869 2.7456 6.1325 6.1325 6.1325z" clip-rule="evenodd"/></clipPath><clipPath id="n"><path d="m0 0h288v164h-288v-164z"/></clipPath></defs><g transform="matrix(1.25,0,0,-1.25,0,205)"><g clip-path="url(#cs)"><g clip-path="url(#cc)"><g clip-path="url(#bm)"><g clip-path="url(#bb)"><path d="m-5-5h298v174h-298v-174z" fill="#fff"/></g><g clip-path="url(#aq)"><g clip-path="url(#af)"><path d="m122.05 61.969 28.61-28.61-57.163-57.163-28.61 28.61 57.163 57.163z" fill="#52c2a1"/></g></g><g clip-path="url(#u)"><g clip-path="url(#m)"><path d="m165.71 61.969-28.61-28.61 38.011-38.011 28.61 28.61-38.011 38.011z" fill="#52c2a1"/></g></g><g clip-path="url(#l)"><g clip-path="url(#k)"><g clip-path="url(#j)"><g clip-path="url(#i)"><path d="m102.68 74.441h66.948v72.982h-66.948v-72.982z" fill="#363636"/></g></g></g></g><g clip-path="url(#h)"><g clip-path="url(#g)"><path d="m184.87 116.89-39.679-9.1607-4.5897 19.88 39.679 9.1607 4.5897-19.88z" fill="#363636"/></g></g><g clip-path="url(#f)"><g transform="matrix(-.97437 -.22495 -.22495 .97437 178.89 120.64)"><path d="m30.741 0c-0.82407 1.2137-1.7722 2.3653-2.8447 3.4379-7.3944 7.3944-18.547 8.874-27.878 4.5687l8.0066-8.0066h22.716z" fill="none" stroke="#363636" stroke-linecap="round" stroke-linejoin="round" stroke-miterlimit="10" stroke-width="1.9892"/></g></g><g clip-path="url(#e)"><g clip-path="url(#d)"><path d="m110.18 129.48 39.679-9.1607 4.5896 19.88-39.679 9.1607-4.5897-19.88z" fill="#363636"/></g></g><g clip-path="url(#c)"><g transform="matrix(.97437 -.22495 .22495 .97437 116.15 133.23)"><path d="m30.741 0c-0.82407 1.2137-1.7722 2.3653-2.8447 3.4379-7.3944 7.3944-18.547 8.874-27.878 4.5687l8.0066-8.0066h22.716z" fill="none" stroke="#363636" stroke-linecap="round" stroke-linejoin="round" stroke-miterlimit="10" stroke-width="1.9892"/></g></g><g clip-path="url(#b)"><g clip-path="url(#a)"><g clip-path="url(#dm)"><g clip-path="url(#dl)"><path d="m140.42 84.386h46.42v48.121h-46.42v-48.121z" fill="#363636"/></g></g></g></g><g clip-path="url(#dk)"><g clip-path="url(#dj)"><path d="m113.95 97.026h48.417v30.509h-48.417v-30.509z" fill="#363636"/></g></g><g clip-path="url(#di)"><g clip-path="url(#dh)"><path d="m151.68 59.193h37.02v18.619h-37.02v-18.619z" fill="#363636"/></g></g><g clip-path="url(#dg)"><g transform="matrix(1 0 0 -1 156.68 72.812)"><path d="m-3.7982e-6 0h27.02c-2.3716 5.0907-7.5292 8.6186-13.51 8.6186-5.9806 0-11.138-3.528-13.51-8.6186h-3.7982e-6z" fill="none" stroke="#363636" stroke-linecap="round" stroke-linejoin="round" stroke-miterlimit="10" stroke-width="2.6523"/></g></g><g clip-path="url(#df)"><g clip-path="url(#de)"><path d="m157.06 87.51 26.177-26.177-13.165-13.165-26.177 26.177 13.165 13.165z" fill="#363636"/></g></g><g clip-path="url(#dd)"><g transform="matrix(.70711 -.70711 -.70711 -.70711 157.06 80.439)"><path d="m-3.7982e-6 0h27.02c-2.3716 5.0907-7.5292 8.6186-13.51 8.6186-5.9806 0-11.138-3.528-13.51-8.6186h-3.7982e-6z" fill="none" stroke="#363636" stroke-linecap="round" stroke-linejoin="round" stroke-miterlimit="10" stroke-width="2.6523"/></g></g><g clip-path="url(#dc)"><g clip-path="url(#db)"><path d="m100.16 59.193h37.02v18.619h-37.02v-18.619z" fill="#363636"/></g></g><g clip-path="url(#da)"><g transform="matrix(-1 0 0 -1 132.18 72.812)"><path d="m-3.7982e-6 0h27.02c-2.3716 5.0907-7.5292 8.6186-13.51 8.6186-5.9806 0-11.138-3.528-13.51-8.6186h-3.7982e-6z" fill="none" stroke="#363636" stroke-linecap="round" stroke-linejoin="round" stroke-miterlimit="10" stroke-width="2.6523"/></g></g><g clip-path="url(#cz)"><g clip-path="url(#cy)"><path d="m131.79 87.51-26.177-26.177 13.165-13.165 26.177 26.177-13.165 13.165z" fill="#363636"/></g></g><g clip-path="url(#cx)"><g transform="matrix(-.70711 -.70711 .70711 -.70711 131.79 80.439)"><path d="m-3.7982e-6 0h27.02c-2.3716 5.0907-7.5292 8.6186-13.51 8.6186-5.9806 0-11.138-3.528-13.51-8.6186h-3.7982e-6z" fill="none" stroke="#363636" stroke-linecap="round" stroke-linejoin="round" stroke-miterlimit="10" stroke-width="2.6523"/></g></g><g clip-path="url(#cw)"><g clip-path="url(#cv)"><g clip-path="url(#cu)"><g clip-path="url(#ct)"><path d="m114.6-1.8006h59.664v60.386h-59.664v-60.386z" fill="#e5e5e5"/></g><g clip-path="url(#cr)"><g clip-path="url(#cq)"><path d="m114.6 2.8402h26.555v51.104h-26.555v-51.104z" fill="#52c2a1"/></g></g><g clip-path="url(#cp)"><g clip-path="url(#co)"><path d="m147.7 2.8402h26.555v51.104h-26.555v-51.104z" fill="#52c2a1"/></g></g></g></g></g><g clip-path="url(#cn)"><g clip-path="url(#cm)"><path d="m102.01 87.038h84.164v20.608h-84.164v-20.608z" fill="#363636"/></g></g><g clip-path="url(#cl)"><g clip-path="url(#ck)"><path d="m116.58 41.293h55.69v24.583h-55.69v-24.583z" fill="#42a185"/></g></g><g clip-path="url(#cj)"><g clip-path="url(#ci)"><path d="m131.81 35.326h25.23v32.541h-25.23v-32.541z" fill="#ce7354"/></g></g><g clip-path="url(#ch)"><g clip-path="url(#cg)"><path d="m159.62 67.812h30.528v30.552h-30.528v-30.552z" fill="#ce7354"/></g></g><g clip-path="url(#cf)"><g clip-path="url(#ce)"><path d="m98.04 67.812h30.528v30.552h-30.528v-30.552z" fill="#ce7354"/></g></g><g clip-path="url(#cd)"><g clip-path="url(#cb)"><path d="m107.97 65.823h72.245v52.43h-72.245v-52.43z" fill="#d98f76"/></g></g><g clip-path="url(#ca)"><g clip-path="url(#bz)"><path d="m111.95 47.922h64.299v59.06h-64.299v-59.06z" fill="#d98f76"/></g></g><g clip-path="url(#by)"><g clip-path="url(#bx)"><path d="m124.53 81.734h16.622v23.259h-16.622v-23.259z" fill="#ac6952"/></g></g><g clip-path="url(#bw)"><g clip-path="url(#bv)"><path d="m117.91 80.408h25.23v21.271h-25.23v-21.271z" fill="#d98f76"/></g></g><g clip-path="url(#bu)"><g clip-path="url(#bt)"><path d="m147.7 81.734h16.622v23.259h-16.622v-23.259z" fill="#ac6952"/></g></g><g clip-path="url(#bs)"><g clip-path="url(#br)"><path d="m133.8 78.419h20.595v27.237h-20.595v-27.237z" fill="#ce7354"/></g></g><g clip-path="url(#bq)"><g clip-path="url(#bp)"><path d="m146.38 80.408h25.23v21.271h-25.23v-21.271z" fill="#d98f76"/></g></g><g clip-path="url(#bo)"><g clip-path="url(#bn)"><path d="m113.04 36.982h31.19v25.244h-31.19v-25.244z" fill="#52c2a1"/></g></g><g clip-path="url(#bl)"><g clip-path="url(#bk)"><path d="m145.04 36.982h31.19v25.244h-31.19v-25.244z" fill="#52c2a1"/></g></g><g clip-path="url(#bj)"><g clip-path="url(#bi)"><path d="m126.04 22.618h13.314v28.612h-13.314v-28.612z" fill="#fff"/></g></g><g clip-path="url(#bh)"><g clip-path="url(#bg)"><path d="m149.04 22.618h13.314v28.612h-13.314v-28.612z" fill="#fff"/></g></g><g clip-path="url(#bf)"><g clip-path="url(#be)"><path d="m165.58-2.4635h41.785v41.823h-41.785v-41.823z" fill="#52c2a1"/></g></g><g clip-path="url(#bd)"><g clip-path="url(#bc)" opacity=".4275"><g clip-path="url(#ba)"><g transform="matrix(1 0 0 -1 144.1 77.431)"><path d="m0 0c1.0726 0.59995 2.2959 0.93975 3.5944 0.93975 1.1889 0 2.3147-0.28485 3.3196-0.79341" fill="none" stroke="#ba725a" stroke-linecap="round" stroke-linejoin="round" stroke-miterlimit="10" stroke-width="1.9318"/></g><g transform="matrix(0 -1 -1 0 152.35 79.516)"><path d="m0 0c1.0726 0.59995 2.2959 0.93975 3.5944 0.93975 1.1889 0 2.3147-0.28485 3.3196-0.79341" fill="none" stroke="#ba725a" stroke-linecap="round" stroke-linejoin="round" stroke-miterlimit="10" stroke-width="1.9318"/></g><g transform="matrix(0 -1 1 0 142.75 80.036)"><path d="m0 0c1.0726 0.59995 2.2959 0.93975 3.5944 0.93975 1.1889 0 2.3147-0.28485 3.3196-0.79341" fill="none" stroke="#ba725a" stroke-linecap="round" stroke-linejoin="round" stroke-miterlimit="10" stroke-width="1.9318"/></g></g></g></g><g clip-path="url(#az)"><g clip-path="url(#ay)"><path d="m166.82 78.417-12.268-3.7506 14.819-48.469 12.268 3.7506-14.819 48.469z" fill="#ff7979"/></g></g><g clip-path="url(#ax)"><g clip-path="url(#aw)"><path d="m166.98 79.517-13.169-4.0262 5.3615-17.537 13.169 4.0262-5.3615 17.537z" fill="#ff5858"/></g></g><g clip-path="url(#av)"><g clip-path="url(#au)"><path d="m144.3 84.48-3.9641-12.2 25.557-8.304 3.9641 12.2-25.557 8.3041z" fill="#ff7979"/></g></g><g clip-path="url(#at)"><g clip-path="url(#as)"><path d="m166.04 63.387 4.2555 13.097-17.609 5.7215-4.2554-13.097 17.609-5.7215z" fill="#ff5858"/></g></g><g clip-path="url(#ar)"><g clip-path="url(#ap)" opacity=".8767"><g clip-path="url(#ao)"><g clip-path="url(#an)"><path d="m155.11 9.2376h38.988v55.421h-38.988v-55.421z" fill="#abefff"/></g></g><g clip-path="url(#am)"><g clip-path="url(#al)"><path d="m171.6 18.469h18.249v44.771h-18.249v-44.771z" fill="#e5f5ff"/></g></g></g></g><g clip-path="url(#ak)"><g clip-path="url(#aj)"><g clip-path="url(#ai)"><g clip-path="url(#ah)"><path d="m157.93 12.082h33.803v36.729h-33.803v-36.729z" fill="#ffa600"/></g><g clip-path="url(#ag)"><g clip-path="url(#ae)"><path d="m171.6 23.199h18.249v34.127h-18.249v-34.127z" fill="#ffbc00"/></g></g></g></g></g><g clip-path="url(#ad)"><g clip-path="url(#ac)"><path d="m180.89 80.171 28.547-18.539-12.021-18.511-28.547 18.539 12.021 18.511z" fill="#ffd53d"/></g></g><g clip-path="url(#ab)"><g transform="matrix(.83867 -.54464 -.54464 -.83867 182.93 70.581)"><path d="m0 10.136c0-5.598 4.5183-10.136 10.092-10.136 5.5736 0 10.092 4.538 10.092 10.136" fill="none" stroke="#fff" stroke-miterlimit="10" stroke-width="1.5978"/></g><g transform="matrix(.83867 -.54464 -.54464 -.83867 182.36 73.255)"><path d="m0 12.072c0-6.6672 5.3813-12.072 12.019-12.072 6.6382 0 12.019 5.4049 12.019 12.072" fill="none" stroke="#ffa600" stroke-miterlimit="10" stroke-width="2.2826"/></g></g><g clip-path="url(#aa)"><g clip-path="url(#z)"><path d="m189.51 71.995 9.0524-5.8787-10.843-16.696-9.0524 5.8787 10.843 16.696z" fill="#fff"/></g></g><g clip-path="url(#y)"><g clip-path="url(#x)"><path d="m201.62 53.655-1.6885 10.661-19.663-3.1143 1.6885-10.661 19.663 3.1143z" fill="#fff"/></g></g><g clip-path="url(#w)"><g clip-path="url(#v)"><path d="m176.98 69.66 10.426 2.7936 5.1526-19.23-10.426-2.7936-5.1527 19.23z" fill="#fff"/></g></g><g clip-path="url(#t)"><g clip-path="url(#s)"><path d="m-22 19.47h329v-23.922h-329v23.922z" fill="#b4864b"/></g></g><g clip-path="url(#r)"><g clip-path="url(#q)"><path d="m117.92 120.9h42.158v-20.889h-42.158v20.889z" fill="#363636"/></g></g><g clip-path="url(#p)"><g transform="matrix(1 0 0 -1 122.91 115.9)"><path d="m32.177 0c-0.86257 1.2704-1.855 2.4758-2.9776 3.5985-7.7399 7.7399-19.414 9.2886-29.181 4.7822l8.3807-8.3807h23.778z" fill="none" stroke="#363636" stroke-linecap="round" stroke-linejoin="round" stroke-miterlimit="10" stroke-width="1.9892"/></g></g><g clip-path="url(#o)"><g clip-path="url(#n)"><path d="m169.56 31.403h31.852v-22.265h-31.852v22.265z" fill="#d98f76"/></g></g></g></g></g></g></svg>
