<svg xmlns="http://www.w3.org/2000/svg" xmlns:xlink="http://www.w3.org/1999/xlink" width="288" height="164" viewBox="0 0 288 164">
  <defs>
    <rect id="exp_coffee_please-a" width="288" height="164"/>
  </defs>
  <g fill="none" fill-rule="evenodd">
    <mask id="exp_coffee_please-b" fill="#fff">
      <use xlink:href="#exp_coffee_please-a"/>
    </mask>
    <use fill="#FFF" xlink:href="#exp_coffee_please-a"/>
    <g mask="url(#exp_coffee_please-b)">
      <g transform="translate(28 24)">
        <g transform="translate(60.96 54.079)">
          <g fill-rule="nonzero" transform="translate(82.056)">
            <path fill="#D73F3F" d="M88.1951173,76.3851661 L88.1951173,13.891332 C88.1951173,6.36468766 82.0333304,0.206362072 74.5024559,0.206362072 L14.0275751,0.206362072 C6.49670049,0.206362072 0.334913651,6.36468766 0.334913651,13.891332 L0.334913651,76.3851661 L88.1951173,76.3851661 Z"/>
            <path fill="#EF4C4C" d="M5.81215661,76.3851661 L5.81215661,13.891332 C5.81215661,9.36384615 9.49799059,5.68052831 14.0275751,5.68052831 L74.5029018,5.68052831 C79.0329323,5.68052831 82.7183203,9.36429186 82.7183203,13.891332 L82.7183203,76.3851661 L5.81215661,76.3851661 Z"/>
            <g fill="#D73F3F" transform="translate(35.677 32.537)">
              <ellipse cx="7.562" cy="7.717" rx="2.945" ry="2.943"/>
              <path d="M3.43609811 3.99798658C3.26083704 3.99798658 3.08557597 3.93113061 2.95223485 3.79741869L.663583905 1.51049905C.39600975 1.2430752.39600975.810294269.663583905.542870418.93115806.275446567 1.36418223.275446567 1.63175639.542870418L3.92040733 2.82979005C4.18798149 3.0972139 4.18798149 3.52999484 3.92040733 3.79741869 3.7861743 3.93113061 3.61135918 3.99798658 3.43609811 3.99798658zM.86738622 14.8117157C.692125148 14.8117157.516864076 14.7448597.383522956 14.6111478.115948801 14.343724.115948801 13.910943.383522956 13.6435192L2.6721739 11.3565996C2.93974805 11.0891757 3.37277223 11.0891757 3.64034638 11.3565996 3.90792054 11.6240234 3.90792054 12.0568043 3.64034638 12.3242282L1.35169544 14.6111478C1.21746241 14.7448597 1.04264729 14.8117157.86738622 14.8117157zM13.9758441 15.0916193C13.800583 15.0916193 13.6253219 15.0247634 13.4919808 14.8910515L11.2033299 12.6041318C10.9357557 12.336708 10.9357557 11.903927 11.2033299 11.6365032 11.470904 11.3690793 11.9039282 11.3690793 12.1715024 11.6365032L14.4601533 13.9234228C14.7277275 14.1908467 14.7277275 14.6236276 14.4601533 14.8910515 14.3263662 15.0247634 14.1511052 15.0916193 13.9758441 15.0916193zM11.9672541 4.2774445C11.791993 4.2774445 11.6167319 4.21058854 11.4833908 4.07687661 11.2158167 3.80945276 11.2158167 3.37667183 11.4833908 3.10924798L13.7720418.822328343C14.0396159.554904491 14.4726401.554904491 14.7402143.822328343 15.0077884 1.08975219 15.0077884 1.52253313 14.7402143 1.78995698L12.4515633 4.07687661C12.3173303 4.21103425 12.1420692 4.2774445 11.9672541 4.2774445z"/>
            </g>
            <g fill="#FF6464" transform="translate(17.838 9.806)">
              <path d="M39.2723047 3.69624333L1.71425842 3.69624333C.772843352 3.69624333.00267574155 2.92650835.00267574155 1.9856221.00267574155 1.04473585.772843352.27500086 1.71425842.27500086L39.2723047.27500086C40.2137198.27500086 40.9838874 1.04473585 40.9838874 1.9856221 40.9838874 2.92650835 40.2137198 3.69624333 39.2723047 3.69624333zM51.1392185 3.69624333L46.4330351 3.69624333C45.49162 3.69624333 44.7214524 2.92650835 44.7214524 1.9856221 44.7214524 1.04473585 45.49162.27500086 46.4330351.27500086L51.1392185.27500086C52.0806336.27500086 52.8508012 1.04473585 52.8508012 1.9856221 52.8508012 2.92650835 52.0806336 3.69624333 51.1392185 3.69624333z"/>
            </g>
          </g>
          <path fill="#D73F3F" fill-rule="nonzero" d="M87.8682309,76.3851661 L87.8682309,13.891332 C87.8682309,6.36468766 81.706444,0.206362072 74.1755694,0.206362072 L13.7002427,0.206362072 C6.1693681,0.206362072 0.00758126773,6.36468766 0.00758126773,13.891332 L0.00758126773,76.3851661 L87.8682309,76.3851661 Z"/>
          <g fill-rule="nonzero" transform="translate(5.351 5.348)">
            <path fill="#EF4C4C" d="M0.133341121,71.036689 L0.133341121,8.54285493 C0.133341121,4.01536913 3.81917511,0.332051282 8.3487596,0.332051282 L68.8240863,0.332051282 C73.3541168,0.332051282 77.0395048,4.01581483 77.0395048,8.54285493 L77.0395048,71.036689 L0.133341121,71.036689 Z"/>
            <g fill="#D73F3F" transform="translate(29.88 27.188)">
              <ellipse cx="7.68" cy="7.717" rx="2.945" ry="2.943"/>
              <path d="M3.55472265 3.99798658C3.37946158 3.99798658 3.20420051 3.93113061 3.07085939 3.79741869L.782208447 1.51049905C.514634292 1.2430752.514634292.810294269.782208447.542870418 1.0497826.275446567 1.48280678.275446567 1.75038093.542870418L4.03903187 2.82979005C4.30660603 3.0972139 4.30660603 3.52999484 4.03903187 3.79741869 3.90524479 3.93113061 3.72998372 3.99798658 3.55472265 3.99798658zM.986010762 14.8117157C.81074969 14.8117157.635488619 14.7448597.502147498 14.6111478.234573343 14.343724.234573343 13.910943.502147498 13.6435192L2.79079844 11.3565996C3.05837259 11.0891757 3.49139677 11.0891757 3.75897092 11.3565996 4.02654508 11.6240234 4.02654508 12.0568043 3.75897092 12.3242282L1.47031998 14.6111478C1.33653291 14.7448597 1.16127183 14.8117157.986010762 14.8117157zM14.0944686 15.0916193C13.9192076 15.0916193 13.7439465 15.0247634 13.6106054 14.8910515L11.3219544 12.6041318C11.0543803 12.336708 11.0543803 11.903927 11.3219544 11.6365032 11.5895286 11.3690793 12.0225527 11.3690793 12.2901269 11.6365032L14.5787778 13.9234228C14.846352 14.1908467 14.846352 14.6236276 14.5787778 14.8910515 14.4449908 15.0247634 14.2697297 15.0916193 14.0944686 15.0916193zM12.0858786 4.2774445C11.9106176 4.2774445 11.7353565 4.21058854 11.6020154 4.07687661 11.3344412 3.80945276 11.3344412 3.37667183 11.6020154 3.10924798L13.8906663.822328343C14.1582405.554904491 14.5912646.554904491 14.8588388.822328343 15.1264129 1.08975219 15.1264129 1.52253313 14.8588388 1.78995698L12.5701879 4.07687661C12.4359548 4.21103425 12.2611397 4.2774445 12.0858786 4.2774445z"/>
            </g>
            <g fill="#FF6464" transform="translate(12.04 4.457)">
              <path d="M39.3913752 3.69624333L1.83288296 3.69624333C.891467894 3.69624333.121300284 2.92650835.121300284 1.9856221.121300284 1.04473585.891467894.27500086 1.83288296.27500086L39.3913752.27500086C40.3327903.27500086 41.1029579 1.04473585 41.1029579 1.9856221 41.1029579 2.92650835 40.3327903 3.69624333 39.3913752 3.69624333zM51.258289 3.69624333L46.5521056 3.69624333C45.6106905 3.69624333 44.8405229 2.92650835 44.8405229 1.9856221 44.8405229 1.04473585 45.6106905.27500086 46.5521056.27500086L51.258289.27500086C52.1997041.27500086 52.9698717 1.04473585 52.9698717 1.9856221 52.9698717 2.92650835 52.1992581 3.69624333 51.258289 3.69624333z"/>
            </g>
          </g>
        </g>
        <g transform="translate(117.081 19.314)">
          <path fill="#FFDB31" fill-rule="nonzero" d="M72.6020441,111.806198 L72.6020441,93.7252257 C72.6020441,79.3556508 60.8385924,67.5988069 46.4609411,67.5988069 C32.0832898,67.5988069 20.3198381,79.3556508 20.3198381,93.7252257 L20.3198381,111.806198 L72.6020441,111.806198 Z"/>
          <polygon fill="#FFDB31" fill-rule="nonzero" points="24.811 80.153 10.644 101.738 24.811 101.738"/>
          <polygon fill="#FFDB31" fill-rule="nonzero" points="68.7 80.153 82.867 101.738 68.7 101.738"/>
          <path fill="#825035" fill-rule="nonzero" d="M46.3404735,91.2889944 C52.1365756,91.2889944 56.8788816,86.5493524 56.8788816,80.7560603 L56.8788816,69.8366988 C53.6501535,68.4028612 50.0856197,67.5988069 46.3404735,67.5988069 C42.5948813,67.5988069 39.0307935,68.4024155 35.8016194,69.8366988 L35.8016194,80.7560603 C35.8016194,86.5493524 40.5439254,91.2889944 46.3404735,91.2889944 Z"/>
          <path fill="#282828" fill-rule="nonzero" d="M29.2114128,64.5525521 C28.0461274,64.5525521 27.0931174,63.5996317 27.0931174,62.4354466 L27.0931174,48.4705731 C27.0931174,47.3059422 28.0465733,46.3534676 29.2114128,46.3534676 C30.3766982,46.3534676 31.3297082,47.3063879 31.3297082,48.4705731 L31.3297082,62.4354466 C31.3297082,63.5996317 30.3766982,64.5525521 29.2114128,64.5525521 Z"/>
          <path fill="#6A3A21" fill-rule="nonzero" d="M47.1488634,81.7599398 C43.5687212,81.7599398 40.6396761,78.83254 40.6396761,75.2544089 L40.6396761,61.5498279 C40.6396761,57.9716968 43.5687212,55.0447427 47.1484174,55.0447427 C50.7285596,55.0447427 53.6571588,57.9721425 53.6571588,61.5498279 L53.6571588,75.2544089 C53.6580507,78.83254 50.7290056,81.7599398 47.1488634,81.7599398 Z"/>
          <g fill="#282828" fill-rule="nonzero" transform="translate(11.611)">
            <ellipse cx="37.859" cy="5.307" rx="5.108" ry="5.106"/>
            <g transform="translate(0 .891)">
              <ellipse cx="27.241" cy="15.79" rx="15.568" ry="15.559"/>
              <ellipse cx="12.927" cy="28.684" rx="12.902" ry="12.895"/>
              <ellipse cx="18.19" cy="43.106" rx="12.902" ry="12.895"/>
              <g transform="translate(32.555)">
                <ellipse cx="15.921" cy="15.79" rx="15.568" ry="15.559"/>
                <ellipse cx="30.235" cy="28.684" rx="12.902" ry="12.895"/>
                <ellipse cx="24.972" cy="43.106" rx="12.902" ry="12.895"/>
              </g>
            </g>
          </g>
          <ellipse cx="27.869" cy="44.24" fill="#6A3A21" fill-rule="nonzero" rx="6.581" ry="6.578"/>
          <path fill="#FFDB31" fill-rule="nonzero" d="M25.2262413,52.1127373 C24.6563084,52.1127373 24.1902834,51.6469741 24.1902834,51.0773613 L24.1902834,48.3545408 C24.1902834,47.784928 24.6563084,47.3191648 25.2262413,47.3191648 C25.7961743,47.3191648 26.2621993,47.784928 26.2621993,48.3545408 L26.2621993,51.0773613 C26.2621993,51.6469741 25.7961743,52.1127373 25.2262413,52.1127373 Z"/>
          <path fill="#825035" fill-rule="nonzero" d="M47.1112319,14.4854586 C36.1014473,14.4854586 27.0931174,23.4887283 27.0931174,34.4923283 L27.0931174,40.887324 L27.0931174,51.0770642 C27.0931174,54.8562089 28.6548586,58.467768 31.4086426,61.0573223 L38.4748301,67.7019136 C40.8125363,69.9001377 43.9012339,71.1240475 47.1112319,71.1240475 C50.3207839,71.1240475 53.4099275,69.9001377 55.7476337,67.7019136 L62.8138212,61.0573223 C65.5680511,58.467768 67.1293463,54.8562089 67.1293463,51.0770642 L67.1293463,34.4923283 C67.1293463,23.4887283 58.1214624,14.4854586 47.1112319,14.4854586 Z"/>
          <g fill-rule="nonzero" transform="translate(36.77 54.079)">
            <path fill="#61361E" d="M9.9118883,7.47258632 L5.34814117,7.47258632 C2.42449066,7.47258632 0,5.12405919 0,2.13502466 L0,1.56568475 C0,0.996344843 0.427851293,0.56933991 0.998319684,0.56933991 L14.1904012,0.56933991 C14.7608696,0.56933991 15.1887209,0.996344843 15.1887209,1.56568475 L15.1887209,2.13502466 C15.2600295,5.0528917 12.8355388,7.47258632 9.9118883,7.47258632 Z"/>
            <path fill="#FFF" d="M12.1224533,3.27370448 L3.2088847,3.27370448 C2.42449066,3.27370448 1.85402227,2.63319709 1.85402227,1.9215222 L1.85402227,0.56933991 L13.5486243,0.56933991 L13.5486243,1.9215222 C13.4773157,2.63319709 12.8355388,3.27370448 12.1224533,3.27370448 Z"/>
            <path fill="#F34848" d="M4.13589584,7.33025135 C4.56374713,7.40141883 4.92028987,7.47258632 5.34814117,7.47258632 L9.9118883,7.47258632 C10.3397396,7.47258632 10.7675909,7.40141883 11.1241336,7.33025135 C10.5536652,5.97806906 9.19880281,4.98172422 7.63001473,4.98172422 C6.06122666,4.98172422 4.70636423,5.90690157 4.13589584,7.33025135 Z"/>
          </g>
          <path fill="#FFDB31" fill-rule="nonzero" d="M49.0464545,11.5883669 C38.036224,11.5883669 29.0283401,20.5916366 29.0283401,31.5952366 L29.0283401,35.12434 L29.0283401,34.7263242 C29.0283401,23.7227241 38.03667,14.7194545 49.0464545,14.7194545 C60.0562391,14.7194545 69.064569,23.7227241 69.064569,34.7263242 L69.064569,31.5952366 C69.064569,20.5911908 60.0562391,11.5883669 49.0464545,11.5883669 Z"/>
          <g fill="#282828" fill-rule="nonzero" transform="translate(29.028 14.485)">
            <path d="M1.73254265,8.81384443 C6.20727444,16.2098967 16.0441923,21.3462175 27.4620275,21.3462175 C31.2709456,21.3462175 34.9028188,20.7734848 38.2198464,19.7372173 C38.006679,8.91412838 29.0893243,0.124797797 18.2119889,0.124797797 C11.3968752,0.124352091 5.35192906,3.5759026 1.73254265,8.81384443 Z"/>
            <path d="M0.373265946,11.0927414 C1.40476431,15.8511031 4.8390786,19.7140406 9.34502737,21.3462175 L9.34502737,2.21204096 C5.48883784,4.13214421 2.33190876,7.26011186 0.373265946,11.0927414 Z"/>
          </g>
          <path fill="#6A3A21" fill-rule="nonzero" d="M45.4465306,51.1819538 L42.3386568,51.1819538 C41.9346198,51.1819538 41.6072874,50.8735788 41.6072874,50.4929417 L41.6072874,38.3512045 C41.6072874,37.9705673 41.9346198,37.6621924 42.3386568,37.6621924 L45.4465306,37.6621924 C45.8505676,37.6621924 46.1779,37.9705673 46.1779,38.3512045 L46.1779,50.4929417 C46.177454,50.8735788 45.8501216,51.1819538 45.4465306,51.1819538 Z"/>
          <path fill="#55321F" fill-rule="nonzero" d="M37.5689467 47.3460558C36.5967606 47.3460558 35.8016194 46.5513612 35.8016194 45.5797212L35.8016194 39.4285269C35.8016194 38.4568869 36.5967606 37.6621924 37.5689467 37.6621924 38.5411328 37.6621924 39.336274 38.4568869 39.336274 39.4285269L39.336274 45.5797212C39.3358281 46.5513612 38.5406869 47.3460558 37.5689467 47.3460558zM51.1155054 47.3460558C50.1437653 47.3460558 49.3481781 46.5513612 49.3481781 45.5797212L49.3481781 39.4285269C49.3481781 38.4568869 50.1433193 37.6621924 51.1155054 37.6621924 52.0876915 37.6621924 52.8828327 38.4568869 52.8828327 39.4285269L52.8828327 45.5797212C52.8828327 46.5513612 52.0872456 47.3460558 51.1155054 47.3460558z"/>
          <rect width="6.689" height="8.238" x="62.895" y="33.799" fill="#282828" fill-rule="nonzero"/>
          <path fill="#282828" fill-rule="nonzero" d="M65.0130322,64.5525521 C63.8477468,64.5525521 62.8947368,63.5996317 62.8947368,62.4354466 L62.8947368,48.4705731 C62.8947368,47.3059422 63.8481927,46.3534676 65.0130322,46.3534676 C66.1783177,46.3534676 67.1313276,47.3063879 67.1313276,48.4705731 L67.1313276,62.4354466 C67.1313276,63.5996317 66.1783177,64.5525521 65.0130322,64.5525521 Z"/>
          <g fill-rule="nonzero" transform="translate(62.895 37.662)">
            <path fill="#6A3A21" d="M0.352305971,0.00757700912 L0.352305971,13.1082258 C3.73399734,12.8332249 6.39368444,10.0083376 6.39368444,6.55767854 C6.39368444,3.10746515 3.73355138,0.283023576 0.352305971,0.00757700912 Z"/>
            <path fill="#FFDB31" d="M1.39807496,14.4578248 C0.82814201,14.4578248 0.362117023,13.9920616 0.362117023,13.4224488 L0.362117023,10.6996283 C0.362117023,10.1300155 0.82814201,9.66425228 1.39807496,9.66425228 C1.96800791,9.66425228 2.4340329,10.1300155 2.4340329,10.6996283 L2.4340329,13.4224488 C2.4340329,13.9920616 1.96800791,14.4578248 1.39807496,14.4578248 Z"/>
          </g>
          <rect width="10.587" height="11.67" x="66.765" y="100.433" fill="#FFDB31" fill-rule="nonzero"/>
          <g fill-rule="nonzero" transform="translate(71.603 62.77)">
            <g transform="translate(4.46)">
              <g fill="#6A3A21" transform="translate(4.46)">
                <path d="M14.3731917 7.27972294L10.632505 11.0169713C9.6045743 12.0438789 7.92287073 12.0438789 6.89494002 11.0169713 5.8661174 9.98917226 5.8661174 8.30796765 6.89494002 7.28016865L10.6356267 3.54292032C11.6635574 2.51601273 13.345261 2.51601273 14.3731917 3.54292032 15.4015684 4.57071933 15.4015684 6.25236964 14.3731917 7.27972294zM8.12711901 4.40357942L5.09327404 8.73183445C4.25933459 9.92142488 2.60305057 10.2133626 1.41234558 9.38033729.220748678 8.54686629-.071799065 6.89062124.763032299 5.69969368L3.79687726 1.37143865C4.63081671.181848219 6.28710073-.110089485 7.47780572.722935811 8.66984858 1.55685252 8.96195037 3.21309757 8.12711901 4.40357942z"/>
              </g>
              <path fill="#825035" d="M20.5046535,9.93078472 L5.68818058,13.8984633 C4.28430818,14.2746395 2.82736691,13.4340372 2.45142522,12.0305077 C2.07503757,10.6274239 2.91611233,9.17130098 4.32043069,8.79557047 L19.1369036,4.82789193 C20.540776,4.45171571 21.9977173,5.29231802 22.3736589,6.69584753 C22.7496006,8.09893134 21.9089718,9.5546085 20.5046535,9.93078472 Z"/>
              <path fill="#825035" d="M3.1328474,3.55406298 L0.376833602,4.29215281 L3.13552314,14.5821769 L13.8509761,11.712719 C13.8474085,11.0036001 13.7542035,10.2842299 13.562442,9.56931681 C12.350777,5.04896231 7.65752636,2.34218723 3.1328474,3.55406298 Z"/>
            </g>
            <path fill="#825035" d="M12.8337484,10.464741 L12.8337484,43.615493 C12.8337484,47.124094 9.96133984,49.994889 6.45076692,49.994889 C2.94019401,49.994889 0.0677854526,47.124094 0.0677854526,43.615493 L0.0677854526,10.464741 C0.0677854526,6.95614008 2.94019401,4.08534504 6.45076692,4.08534504 C9.96133984,4.08489933 12.8337484,6.95569437 12.8337484,10.464741 Z"/>
            <rect width="6.383" height="9.581" x=".068" y="40.43" fill="#825035"/>
          </g>
          <path fill="#6A3A21" fill-rule="nonzero" d="M45.9085568,107.192394 L40.1940648,107.192394 C38.8428153,107.192394 37.7368421,108.2973 37.7368421,109.648236 C37.7368421,110.998727 38.8423693,112.104078 40.1940648,112.104078 L45.9085568,112.104078 C47.2598063,112.104078 48.3657795,110.999172 48.3657795,109.648236 C48.3653335,108.297746 47.2598063,107.192394 45.9085568,107.192394 Z"/>
          <g fill="#825035" fill-rule="nonzero" transform="translate(0 101.398)">
            <path d="M36.3325567,0.0106969541 L6.03736485,0.0106969541 C2.83093456,0.0106969541 0.20736997,2.63278782 0.20736997,5.83741697 C0.20736997,9.04204612 2.83093456,11.664137 6.03736485,11.664137 L36.3325567,11.664137 C39.538987,11.664137 42.1625515,9.04204612 42.1625515,5.83741697 C42.1625515,2.63278782 39.538987,0.0106969541 36.3325567,0.0106969541 Z"/>
            <path d="M41.3821269,2.93765101 L44.1278837,8.46708484 C44.8583612,9.93836173 43.7876186,11.6645827 42.1442673,11.6645827 L34.1388945,11.6645827 L41.3821269,2.93765101 Z"/>
          </g>
          <path fill="#282828" fill-rule="nonzero" d="M62.1101982 43.3072128C60.9449128 43.3072128 59.9919028 42.3542924 59.9919028 41.1901073L59.9919028 27.2252338C59.9919028 26.0606029 60.9453587 25.1081283 62.1101982 25.1081283 63.2754837 25.1081283 64.2284936 26.0610486 64.2284936 27.2252338L64.2284936 41.1901073C64.2284936 42.3547381 63.2754837 43.3072128 62.1101982 43.3072128zM29.2114128 43.3072128C28.0461274 43.3072128 27.0931174 42.3542924 27.0931174 41.1901073L27.0931174 27.2252338C27.0931174 26.0606029 28.0465733 25.1081283 29.2114128 25.1081283 30.3766982 25.1081283 31.3297082 26.0610486 31.3297082 27.2252338L31.3297082 41.1901073C31.3301542 42.3547381 30.3766982 43.3072128 29.2114128 43.3072128z"/>
        </g>
        <path fill="#FF9D8A" fill-rule="nonzero" d="M24.1902834,78.8641852 C24.1902834,75.3239391 27.0885575,72.4272931 30.6307933,72.4272931 L60.7649947,72.4272931 C64.3072305,72.4272931 67.2055046,75.3239391 67.2055046,78.8641852 C67.2055046,82.4044313 64.3072305,85.3010773 60.7649947,85.3010773 L30.6312393,85.3010773 C27.0885575,85.301523 24.1902834,82.404877 24.1902834,78.8641852 Z"/>
        <path fill="#CFCFCF" fill-rule="nonzero" d="M52.596948,72.4272931 L33.5336273,72.4272931 C29.9913915,72.4272931 27.0931174,75.3239391 27.0931174,78.8641852 C27.0931174,82.4044313 29.9913915,85.3010773 33.5336273,85.3010773 L52.597394,85.3010773 L52.597394,72.4272931 L52.596948,72.4272931 Z"/>
        <g transform="matrix(-1 0 0 1 111.086 15.556)">
          <path fill="#423E3E" d="M10.4209832,0.244945858 L25.6347281,4.05520412 C25.9848571,4.14289337 26.2304278,4.4575513 26.2304278,4.81849413 L26.2304278,9.98690072 C26.2304278,10.4214739 25.8781366,10.7737651 25.4435634,10.7737651 L10.2298184,10.7737651 C9.7952452,10.7737651 9.442954,10.4214739 9.442954,9.98690072 L9.442954,1.00823587 C9.442954,0.573662652 9.7952452,0.221371452 10.2298184,0.221371452 C10.294265,0.221371452 10.3584675,0.229288889 10.4209832,0.244945858 Z"/>
          <rect width="13.902" height="5.781" x="23.87" y="6.569" fill="#4E4A4A" rx="2.891"/>
          <rect width="35.936" height="26.54" y="12.088" fill="#B4EFFD" rx="13.27"/>
          <path fill="#743D00" d="M32.7653771,22.0730798 C33.1204077,23.1405939 33.3126433,24.2824476 33.3126433,25.4692002 L33.3126433,25.5091031 C33.3126433,31.4482704 28.4979969,36.2629168 22.5588296,36.2629168 L13.1145522,36.2629168 C7.1753849,36.2629168 2.3607385,31.4482704 2.3607385,25.5091031 L2.3607385,25.4692002 C2.3607385,24.2824476 2.55297405,23.1405939 2.90800466,22.0730798 L32.7653771,22.0730798 Z"/>
          <rect width="15.491" height="4.204" x="30.509" y="11.849" fill="#4E4A4A" rx="2.102" transform="scale(-1 1) rotate(-66 0 72.858)"/>
          <rect width="24.919" height="7.358" x="5.508" y="6.569" fill="#4E4A4A" rx="1.311"/>
          <rect width="4.721" height="5.781" x="8.918" y="7.358" fill="#827C7C" rx="1.049"/>
          <rect width="6.295" height="1.839" x="10.492" y="18.394" fill="#7ED8ED" rx=".92"/>
          <rect width="6.295" height="1.839" x="10.492" y="24.175" fill="#502A00" rx=".92"/>
          <rect width="6.295" height="1.839" x="10.492" y="29.694" fill="#502A00" rx=".92"/>
        </g>
        <path fill="#CFCFCF" fill-rule="nonzero" d="M56.1130435,53.9259259 C56.1130435,55.6980546 57.5637414,57.1479376 59.3368661,57.1479376 L118.767762,57.1479376 C120.540886,57.1479376 121.991584,55.6980546 121.991584,53.9259259 L56.1130435,53.9259259 Z"/>
        <path fill="#DDD" fill-rule="nonzero" d="M49.7339786,113.951532 L49.7339786,93.4120427 C49.7339786,81.870475 40.2854892,72.4272931 28.7374346,72.4272931 C17.1893801,72.4272931 7.74089069,81.870475 7.74089069,93.4120427 L7.74089069,113.951532 L49.7339786,113.951532 Z"/>
        <path fill="#282828" fill-rule="nonzero" d="M7.74089069,113.952274 C7.75025578,119.890867 12.613862,124.746392 18.5580219,124.746392 L38.9164015,124.746392 C44.8601154,124.746392 49.7237216,119.890421 49.7335326,113.952274 L7.74089069,113.952274 Z"/>
        <rect width="23.599" height="25.282" x="20.32" y="89.81" fill="#363636" fill-rule="nonzero"/>
        <rect width="27.245" height="24.816" x="16.449" y="113.952" fill="#363636" fill-rule="nonzero"/>
        <path fill="#363636" fill-rule="nonzero" d="M0 108.158091L1.95641303 108.158091C5.15526206 108.158091 7.74805562 110.749874 7.74805562 113.94648L5.79164259 113.94648C2.59323952 113.946926 0 111.355143 0 108.158091zM7.74805562 113.952274L5.79164259 113.952274C2.59279356 113.952274 0 116.544057 0 119.740664L1.95641303 119.740664C5.1548161 119.740664 7.74805562 117.149327 7.74805562 113.952274zM37.7368421 74.3586875C39.5795361 75.9133115 40.7546326 78.2349963 40.7546326 80.8285619L40.7546326 114.060878 44.322288 114.060878 44.322288 80.8285619C44.322288 80.1399455 44.260746 79.4660374 44.1492567 78.8086204 42.3181576 76.9522532 40.1454555 75.4364057 37.7368421 74.3586875zM23.9439144 113.63092L23.9439144 80.3986038C23.9439144 77.7863185 23.1041775 75.3679154 21.6838047 73.3929903 20.5332359 73.8173028 19.4317222 74.3445735 18.3846154 74.9551913 19.6252676 76.4286967 20.376259 78.3265147 20.376259 80.3986038L20.376259 113.63092 23.9439144 113.63092z"/>
        <g transform="translate(7.74 82.136)">
          <g transform="translate(2.078 3.111)">
            <path fill="#FF9D8A" fill-rule="nonzero" d="M57.3757677,29.2703786 C57.0838056,29.2703786 56.7873725,29.2146507 56.5003286,29.0965076 C55.3244323,28.6141271 54.7637578,27.2721999 55.2479767,26.1001313 C55.9378656,24.4278492 58.3848923,21.3788657 62.725425,21.8211222 C63.9902959,21.9490734 64.9113401,23.0756681 64.7825728,24.3373471 C64.6538054,25.5981346 63.5320094,26.5200965 62.2590905,26.3885787 C60.2269808,26.1830543 59.5120537,27.8308161 59.5053471,27.8477574 C59.139165,28.7344993 58.280716,29.2703786 57.3757677,29.2703786 Z"/>
            <path fill="#D4D1D1" fill-rule="nonzero" d="M71.2841411,33.8925718 L67.3835635,33.8925718 C64.0338241,33.8925718 61.3086957,31.1752807 61.3086957,27.8351748 C61.3086957,24.4950689 64.0338241,21.7777778 67.3835635,21.7777778 L71.2841411,21.7777778 C74.6338805,21.7777778 77.3590089,24.4950689 77.3590089,27.8351748 C77.3590089,31.1752807 74.6338805,33.8925718 71.2841411,33.8925718 Z M67.3835635,24.3278853 C65.4440053,24.3278853 63.8666053,25.9011947 63.8666053,27.834729 C63.8666053,29.7687091 65.4444525,31.3415726 67.3835635,31.3415726 L71.2841411,31.3415726 C73.2236992,31.3415726 74.8010992,29.7682633 74.8010992,27.834729 C74.8010992,25.9007488 73.2232521,24.3278853 71.2841411,24.3278853 L67.3835635,24.3278853 Z"/>
            <path fill="#D4D1D1" fill-rule="nonzero" d="M68.5826087,21.7777778 L68.5826087,27.0763841 C68.5826087,33.0299043 73.4677199,37.9005205 79.4379643,37.9005205 C85.4086558,37.9005205 90.2933199,33.0294585 90.2933199,27.0763841 L90.2933199,21.7777778 L68.5826087,21.7777778 Z"/>
            <path stroke="#FFF" stroke-linecap="round" stroke-width="1.783" d="M85.7198913,31.1111111 C84.3968962,33.4672856 81.8689428,35.0628861 78.973913,35.0628861" opacity=".5"/>
            <path fill="#FFF" fill-rule="nonzero" d="M85.2743057 10.3703704L84.2879836 10.3703704C81.9741953 10.3703704 80.0985737 12.2405978 80.0985737 14.5477318L80.0990208 17.6355019C80.0990208 18.4036549 79.6742674 19.0728352 79.0460795 19.4228063 78.9204419 19.4928005 78.9691768 19.6809378 79.1126987 19.6809378L80.0990208 19.6809378C82.4128091 19.6809378 84.2884307 17.8107103 84.2884307 15.5035763L84.2879836 12.4158063C84.2879836 11.6476532 84.712737 10.9784729 85.3409249 10.6289477 85.4665625 10.5585077 85.4182747 10.3703704 85.2743057 10.3703704zM93.5877963 5.18518519L92.6014742 5.18518519C90.2876859 5.18518519 88.4120643 7.05541265 88.4120643 9.36254664L88.4120643 12.4503167C88.4120643 13.2184697 87.9873109 13.88765 87.359123 14.2371753 87.2334854 14.3071695 87.2822203 14.4953068 87.4257422 14.4953068L88.4120643 14.4953068C90.7258526 14.4953068 92.6014742 12.6250793 92.6014742 10.3179453L92.6014742 7.23017526C92.6014742 6.46202224 93.0262276 5.79284193 93.6544155 5.44287088 93.7800531 5.37332249 93.7313182 5.18518519 93.5877963 5.18518519z" opacity=".5"/>
            <path fill="#FFB5A1" fill-rule="nonzero" d="M56.4464785,35.1129006 C54.7371814,38.0646946 50.9166363,39.0856293 47.9563287,37.381248 L3.10281658,11.559626 C0.142508922,9.85524465 -0.881370329,6.04568717 0.82792678,3.09389312 C2.53722389,0.142099078 6.35776896,-0.878835579 9.31807661,0.825545728 L54.1715887,26.6471677 C57.1318963,28.3519949 58.1557756,32.1611065 56.4464785,35.1129006 Z"/>
            <path fill="#FFB5A1" fill-rule="nonzero" d="M44.6826087,32.1233114 C44.6826087,28.7149946 47.4792745,25.9259259 50.8978687,25.9259259 L56.6923993,25.9259259 C60.1105465,25.9259259 62.9076594,28.7145488 62.9076594,32.1233114 C62.9076594,35.5316282 60.1109936,38.3206968 56.6923993,38.3206968 L50.8978687,38.3206968 C47.4792745,38.3206968 44.6826087,35.532074 44.6826087,32.1233114 Z"/>
            <path fill="#FFB5A1" fill-rule="nonzero" d="M64.7415496,30.5901261 L53.2562177,30.5901261 C51.9698855,30.5901261 50.9173913,29.5406588 50.9173913,28.258026 C50.9173913,26.9753933 51.9698855,25.9259259 53.2562177,25.9259259 L64.7415496,25.9259259 C66.0278818,25.9259259 67.080376,26.9753933 67.080376,28.258026 C67.080376,29.5406588 66.0278818,30.5901261 64.7415496,30.5901261 Z"/>
          </g>
          <path fill="#CFCFCF" fill-rule="nonzero" d="M22.7441495,9.82755924 L9.42396175,1.06092152 C6.47128094,-0.882551408 2.66057902,0.281600567 0.955685691,3.64747403 C-0.749207634,7.01334749 0.272033724,11.357312 3.22471453,13.3007849 L16.1877902,21.8323905 C17.054728,22.4029627 18.22006,22.162711 18.7906323,21.2957732 C18.8296471,21.2364934 18.8652726,21.1750512 18.8973375,21.1117417 L23.387472,12.2463698 C23.8192756,11.3938119 23.542442,10.3529528 22.7441495,9.82755924 Z"/>
        </g>
        <path fill="#FF9D8A" fill-rule="nonzero" d="M30.984322,46.3534676 L30.9312531,46.3534676 C27.7560398,46.3534676 25.1578947,48.9501532 25.1578947,52.1235829 L25.1578947,71.7475908 L25.1578947,75.2218723 C25.1578947,75.8414042 25.4798756,76.4168112 26.0078886,76.7408398 L34.0400188,81.6725813 C35.228494,82.4022027 36.7576803,81.5477835 36.7576803,80.1536138 L36.7576803,76.2193633 L36.7576803,71.7475908 L36.7576803,52.1235829 C36.7576803,48.9497075 34.1595353,46.3534676 30.984322,46.3534676 Z"/>
        <path fill="#FF9400" fill-rule="nonzero" d="M52.0067311,40.0763672 L51.9616894,40.0763672 C49.2587445,40.0763672 47.0472441,37.8661091 47.0472441,35.1646825 L47.0472441,18.0660472 C47.0472441,15.3646205 49.2587445,13.1543624 51.9616894,13.1543624 L52.0067311,13.1543624 C54.709676,13.1543624 56.9211764,15.3646205 56.9211764,18.0660472 L56.9211764,35.1646825 C56.9211764,37.8661091 54.709676,40.0763672 52.0067311,40.0763672 Z"/>
        <rect width="5.098" height="17.876" x="49.348" y="16.417" fill="#FF9400" fill-rule="nonzero"/>
        <path fill="#FF9400" fill-rule="nonzero" d="M47.6736428,31.4671703 L18.4309093,31.4671703 C14.6799656,31.4671703 11.611336,28.4002644 11.611336,24.6514278 L11.611336,13.5756232 C11.611336,9.82678655 14.6799656,6.75988069 18.4309093,6.75988069 L47.6736428,6.75988069 C51.4245865,6.75988069 54.4932161,9.82678655 54.4932161,13.5756232 L54.4932161,24.6514278 C54.4932161,28.3998187 51.4245865,31.4671703 47.6736428,31.4671703 Z"/>
        <path fill="#FF9400" fill-rule="nonzero" d="M54.5461794,18.3474084 L54.5461794,14.2068921 C54.5461794,6.39321287 48.2077936,0 40.4606299,0 L40.4606299,20.226603 L52.6669848,20.226603 C53.7048353,20.226603 54.5461794,19.3852589 54.5461794,18.3474084 Z"/>
        <ellipse cx="52.085" cy="41.301" fill="#FF9D8A" fill-rule="nonzero" rx="7.575" ry="7.502"/>
        <path fill="#E59B81" fill-rule="nonzero" d="M30.8865011,70.8934687 L30.6764554,70.8934687 C18.0616718,70.8934687 7.74089069,60.5780394 7.74089069,47.9707876 L7.74089069,29.6825618 C7.74089069,17.0748643 18.0621178,6.75988069 30.6764554,6.75988069 L30.8865011,6.75988069 C43.5012846,6.75988069 53.8220657,17.07531 53.8220657,29.6825618 L53.8220657,47.9707876 C53.8220657,60.5784851 43.5012846,70.8934687 30.8865011,70.8934687 Z"/>
        <path fill="#FFB5A1" fill-rule="nonzero" d="M30.8865011,70.8934687 L30.6764554,70.8934687 C18.0616718,70.8934687 7.74089069,60.5780394 7.74089069,47.9707876 L7.74089069,29.6825618 C7.74089069,17.0748643 18.0621178,6.75988069 30.6764554,6.75988069 L30.8865011,6.75988069 C43.5012846,6.75988069 53.8220657,17.07531 53.8220657,29.6825618 L53.8220657,47.9707876 C53.8220657,60.5784851 43.5012846,70.8934687 30.8865011,70.8934687 Z"/>
        <path fill="#FF9400" fill-rule="nonzero" d="M44.1608401,6.75988069 L21.933901,6.75988069 C16.2327876,6.75988069 11.611336,11.3368399 11.611336,16.9830488 L11.611336,29.5782665 L15.5473519,29.5782665 L15.5473519,27.3675627 C15.5473519,25.2491201 17.2816783,23.5318132 19.4204878,23.5318132 L50.6200802,23.5318132 C52.7593356,23.5318132 54.4932161,25.2491201 54.4932161,27.3675627 L54.4932161,16.9928544 C54.4932161,11.3408513 49.8673049,6.75988069 44.1608401,6.75988069 Z"/>
        <g transform="translate(27.093 33.8)">
          <path fill="#FF9D8A" fill-rule="nonzero" d="M12.3440877,16.3828308 L7.86757208,16.3828308 C7.40466879,16.3828308 7.02961901,16.0079917 7.02961901,15.5453485 L7.02961901,0.861996214 C7.02961901,0.399352951 7.40466879,0.024513853 7.86757208,0.024513853 L12.3440877,0.024513853 C12.806991,0.024513853 13.1820408,0.399352951 13.1820408,0.861996214 L13.1820408,15.5453485 C13.1820408,16.0079917 12.806991,16.3828308 12.3440877,16.3828308 Z"/>
          <path fill="#E58D7F" fill-rule="nonzero" d="M2.32967898 11.0691189L2.31094879 11.0691189C1.19739434 11.0691189.286304346 10.1585407.286304346 9.04561177L.286304346 2.0484667C.286304346.935537773 1.19739434.0249595595 2.31094879.0249595595L2.32967898.0249595595C3.44323342.0249595595 4.35432342.935537773 4.35432342 2.0484667L4.35432342 9.04561177C4.35432342 10.1585407 3.44323342 11.0691189 2.32967898 11.0691189zM15.2254154 11.0691189L15.2066852 11.0691189C14.0931308 11.0691189 13.1820408 10.1585407 13.1820408 9.04561177L13.1820408 2.0484667C13.1820408.935537773 14.0931308.0249595595 15.2066852.0249595595L15.2254154.0249595595C16.3389698.0249595595 17.2500598.935537773 17.2500598 2.0484667L17.2500598 9.04561177C17.2500598 10.1585407 16.3389698 11.0691189 15.2254154 11.0691189z"/>
        </g>
        <path fill="#E88700" fill-rule="nonzero" d="M23.0779428 28.9356153C22.4941852 28.9356153 21.9224684 28.6525917 21.5808654 28.1302238 21.0443792 27.3105697 21.2628981 26.2159147 22.0785533 25.6725986 22.2159081 25.5812288 25.4972591 23.4391637 29.9621798 24.3813871 30.9272306 24.5850749 31.544435 25.5322011 31.3406327 26.4967098 31.1372763 27.4616642 30.1869421 28.0785218 29.2245671 27.8743883 26.275008 27.2530735 24.1366445 28.5946499 24.0470072 28.6517003 23.7468782 28.8437998 23.4106267 28.9356153 23.0779428 28.9356153zM47.7152474 32.7125758C47.3165619 32.7125758 46.9160926 32.580201 46.5843006 32.3083201 44.2537297 30.3998052 41.7363029 30.6052758 41.6301651 30.6164185 40.6637765 30.7037769 39.7807818 29.9942123 39.6813334 29.0194524 39.5827769 28.0446924 40.2811454 27.1733364 41.2551154 27.0663669 41.4214573 27.0489843 45.3204587 26.6580998 48.847978 29.5471688 49.6110103 30.1720492 49.7224995 31.2965665 49.0977138 32.0591702 48.744516 32.4897226 48.2316655 32.7125758 47.7152474 32.7125758z"/>
        <g transform="translate(20.32 45.388)">
          <path fill="#BD413C" fill-rule="nonzero" d="M14.9257323,14.2153605 C18.0233491,14.2153605 20.5376543,13.5851316 20.9925303,13.3908036 C23.2236528,12.4374376 24.3635187,10.5333798 23.7423007,8.39443469 C23.1224206,6.25994665 20.8917441,5.03024264 18.7560564,5.64219756 C17.7874379,5.91496988 14.8374329,6.41950955 12.7160158,5.88956462 C9.02527625,4.96739804 8.10972669,2.7147978 8.09991563,2.69340389 C7.18213628,0.664102564 4.79269908,-0.237561521 2.76181124,0.679702289 C0.731369357,1.5969661 -0.170801502,3.9855068 0.74697785,6.01436242 C1.004295,6.58352951 3.4641934,11.6324918 10.4969341,13.6430735 C11.9770651,14.0664946 13.5066974,14.2153605 14.9257323,14.2153605 Z"/>
          <path fill="#FFF" fill-rule="nonzero" d="M2.76181124,0.679702289 C4.79225312,-0.237561521 7.18213628,0.664102564 8.09991563,2.69340389 C8.10972669,2.7147978 9.02527625,4.96784374 12.7160158,5.88956462 C14.8374329,6.41950955 17.7878839,5.91496988 18.7560564,5.64219756 C19.0900781,5.54637068 19.4258837,5.49600585 19.7581216,5.48664602 L19.7581216,7.00962485 C19.7581216,8.45950783 18.5709842,9.64597832 17.1202864,9.64597832 L3.43921981,9.64597832 C1.66118955,7.91975736 0.885670454,6.32011702 0.747423807,6.01436242 C-0.170801502,3.98506109 0.731369357,1.59652039 2.76181124,0.679702289 Z"/>
          <path fill="#FFF" fill-rule="nonzero" d="M18.2579225,9.64597832 C19.7086204,9.64597832 20.8957577,10.8324488 20.8957577,12.2823318 L20.8957577,13.4273516 C20.2526878,13.6537704 17.8494259,14.2149148 14.9257323,14.2149148 C13.5066974,14.2149148 11.9770651,14.0660489 10.4964882,13.6426278 C7.24278642,12.7124385 4.96929802,11.1319635 3.43832789,9.64553261 L18.2579225,9.64553261 L18.2579225,9.64597832 Z"/>
          <polygon fill="#FFF" fill-rule="nonzero" points="2.546 8.479 16.972 8.479 16.972 11.023 5.092 11.023"/>
        </g>
        <path fill="#FF9400" fill-rule="nonzero" d="M10.3953415,17.3825503 L10.3623407,17.3825503 C8.38808938,17.3825503 6.77327935,18.996899 6.77327935,20.9695956 L6.77327935,38.6507692 C6.77327935,40.6239115 8.38853534,42.2378145 10.3623407,42.2378145 L10.3953415,42.2378145 C12.3695928,42.2378145 13.9844028,40.6234658 13.9844028,38.6507692 L13.9844028,29.8101824 L13.9844028,20.9695956 L13.9844028,17.3825503 L10.3953415,17.3825503 Z"/>
        <path fill="#FF9D8A" fill-rule="nonzero" d="M12.117196,34.011114 C11.557966,33.8778478 10.9773301,33.7994034 10.3770721,33.7994034 C6.24929478,33.7994034 2.90283401,37.1439844 2.90283401,41.269443 C2.90283401,45.3949016 6.24929478,48.7394826 10.3770721,48.7394826 C10.9773301,48.7394826 11.557966,48.6610383 12.117196,48.527772 L12.117196,34.011114 Z"/>
        <path fill="#FF9400" fill-rule="nonzero" d="M12.1939862,43.0848053 C10.8092899,43.0848053 9.67611336,41.9522652 9.67611336,40.5683468 L9.67611336,27.6245867 C9.67611336,26.2406683 10.8092899,25.1081283 12.1939862,25.1081283 C13.5786824,25.1081283 14.711859,26.2406683 14.711859,27.6245867 L14.711859,40.5683468 C14.711859,41.9522652 13.5791284,43.0848053 12.1939862,43.0848053 Z"/>
        <path fill="#FF9400" fill-rule="nonzero" d="M8.70850202,33.8219859 C8.70850202,33.8219859 9.97145204,33.5162313 9.97145204,35.0249475 L11.5742212,35.0249475 L11.5742212,31.8680089 L8.70850202,31.8680089 L8.70850202,33.8219859 Z"/>
        <path fill="#FF9D8A" fill-rule="nonzero" d="M98.8976532,56.9761372 L75.6784599,56.9761372 C74.4953362,56.9761372 73.3608218,57.4459118 72.5246525,58.282057 L56.0666122,74.7357552 C53.5594424,77.2401795 53.5594424,81.3388958 56.0666122,83.8433201 C58.5715522,86.345516 62.6703423,86.345516 65.1748364,83.8433201 L84.7733054,64.2366948 C85.0243792,63.9857621 85.3646443,63.8444731 85.719626,63.8444731 L92.0780799,63.8444731 C95.8303614,63.8444731 98.899883,60.7762301 98.899883,57.026502 C98.899883,57.0095652 98.8976532,56.9930741 98.8976532,56.9761372 Z"/>
        <path fill="#282828" fill-rule="nonzero" d="M236.698751,139.278847 L56.1991288,139.278847 C55.0871793,139.278847 54.1862348,138.340189 54.1862348,137.18269 L54.1862348,132.465285 C54.1862348,131.30734 55.0876073,130.369128 56.1991288,130.369128 L236.698751,130.369128 C237.810701,130.369128 238.711645,131.307785 238.711645,132.465285 L238.711645,137.18269 C238.711645,138.340189 237.810273,139.278847 236.698751,139.278847 Z"/>
      </g>
    </g>
  </g>
</svg>
