<svg xmlns="http://www.w3.org/2000/svg" xmlns:xlink="http://www.w3.org/1999/xlink" width="124" height="124" viewBox="0 0 124 124">
  <defs>
    <rect id="exp_expensive_watch-a" width="124" height="124"/>
  </defs>
  <g fill="none" fill-rule="evenodd">
    <mask id="exp_expensive_watch-b" fill="#fff">
      <use xlink:href="#exp_expensive_watch-a"/>
    </mask>
    <use fill="#FFF" xlink:href="#exp_expensive_watch-a"/>
    <g mask="url(#exp_expensive_watch-b)">
      <g transform="translate(39 11)">
        <path fill="#353535" fill-rule="nonzero" d="M45.9487179,65.6240964 L43.2530598,65.6240964 L43.2530598,52.9662651 L45.9487179,52.9662651 C46.8064274,52.9662651 47.5416068,53.7036145 47.5416068,54.5638554 L47.5416068,63.9036145 C47.5416068,64.886747 46.8064274,65.6240964 45.9487179,65.6240964 Z"/>
        <path fill="#1E1E1E" fill-rule="nonzero" d="M45.2135385,43.0120482 L43.1305299,43.0120482 L43.1305299,38.7108434 L45.2135385,38.7108434 C46.0712479,38.7108434 46.8064274,39.4481928 46.8064274,40.3084337 L46.8064274,41.4144578 C46.8064274,42.3975904 46.0712479,43.0120482 45.2135385,43.0120482 Z"/>
        <path fill="#353535" fill-rule="nonzero" d="M44.7234188,43.5036145 L44.7234188,38.3421687 C44.7234188,37.7277108 45.2135385,37.2361446 45.826188,37.2361446 L46.3163077,37.2361446 C46.9289573,37.2361446 47.4190769,37.7277108 47.4190769,38.3421687 L47.4190769,43.5036145 C47.4190769,44.1180723 46.9289573,44.6096386 46.3163077,44.6096386 L45.826188,44.6096386 C45.3360684,44.6096386 44.7234188,44.1180723 44.7234188,43.5036145 Z"/>
        <path fill="#FF931E" fill-rule="nonzero" d="M30.6324786,101.877108 L14.336,101.877108 C11.8854017,101.877108 9.92492308,99.9108434 9.92492308,97.453012 L9.92492308,4.79277108 C9.92492308,2.33493976 11.8854017,0.368674699 14.336,0.368674699 L30.6324786,0.368674699 C33.0830769,0.368674699 35.0435556,2.33493976 35.0435556,4.79277108 L35.0435556,97.453012 C35.0435556,99.9108434 33.0830769,101.877108 30.6324786,101.877108 Z"/>
        <rect width="25.241" height="54.318" x="9.925" y="23.964" fill="#F97C00" fill-rule="nonzero"/>
        <path fill="#AAA" fill-rule="nonzero" d="M36.1463248,74.226506 L8.69962393,74.226506 C3.92095726,74.226506 0.122529915,70.4168675 0.122529915,65.6240964 L0.122529915,36.6216867 C0.122529915,31.8289157 3.92095726,28.0192771 8.69962393,28.0192771 L36.1463248,28.0192771 C40.9249915,28.0192771 44.7234188,31.8289157 44.7234188,36.6216867 L44.7234188,65.6240964 C44.8459487,70.4168675 40.9249915,74.226506 36.1463248,74.226506 Z"/>
        <path fill="#282828" fill-rule="nonzero" d="M35.1660855,69.8024096 L9.67986325,69.8024096 C6.86167521,69.8024096 4.53360684,67.4674699 4.53360684,64.6409639 L4.53360684,37.7277108 C4.53360684,34.9012048 6.86167521,32.5662651 9.67986325,32.5662651 L35.1660855,32.5662651 C37.9842735,32.5662651 40.3123419,34.9012048 40.3123419,37.7277108 L40.3123419,64.5180723 C40.4348718,67.4674699 38.1068034,69.8024096 35.1660855,69.8024096 Z"/>
        <path fill="#353535" fill-rule="nonzero" d="M38.9645128,34.0409639 C39.9447521,35.0240964 40.4348718,36.253012 40.4348718,37.7277108 L40.4348718,51.1228916 L40.4348718,64.5180723 C40.4348718,65.9927711 39.8222222,67.2216867 38.9645128,68.2048193 C37.9842735,69.1879518 36.7589744,69.6795181 35.2886154,69.6795181 L22.4229744,69.6795181 L9.67986325,69.6795181 C8.20950427,69.6795181 6.98420513,69.0650602 6.00396581,68.2048193"/>
        <g fill-rule="nonzero" transform="translate(7.352 35.639)">
          <path fill="#C9C9C9" d="M25.6087521 15.6072289C25.6087521 15.2385542 25.9763419 14.8698795 26.3439316 14.8698795L29.0395897 14.8698795C29.4071795 14.8698795 29.7747692 15.2385542 29.7747692 15.6072289 29.7747692 15.9759036 29.4071795 16.3445783 29.0395897 16.3445783L26.3439316 16.3445783C25.853812 16.3445783 25.6087521 15.9759036 25.6087521 15.6072289zM.735179487 15.6072289C.735179487 15.2385542 1.10276923 14.8698795 1.47035897 14.8698795L4.16601709 14.8698795C4.53360684 14.8698795 4.90119658 15.2385542 4.90119658 15.6072289 4.90119658 15.9759036 4.53360684 16.3445783 4.16601709 16.3445783L1.47035897 16.3445783C.980239316 16.3445783.735179487 15.9759036.735179487 15.6072289zM15.1937094 5.16144578C14.8261197 5.16144578 14.4585299 4.79277108 14.4585299 4.42409639L14.4585299 1.72048193C14.4585299 1.35180723 14.8261197.98313253 15.1937094.98313253 15.5612991.98313253 15.9288889 1.35180723 15.9288889 1.72048193L15.9288889 4.42409639C15.9288889 4.91566265 15.5612991 5.16144578 15.1937094 5.16144578zM15.1937094 29.9855422C14.8261197 29.9855422 14.4585299 29.6168675 14.4585299 29.2481928L14.4585299 26.5445783C14.4585299 26.1759036 14.8261197 25.8072289 15.1937094 25.8072289 15.5612991 25.8072289 15.9288889 26.1759036 15.9288889 26.5445783L15.9288889 29.2481928C15.9288889 29.6168675 15.5612991 29.9855422 15.1937094 29.9855422z"/>
          <path fill="#353535" d="M25.1186325,9.33975904 C24.8735726,8.97108434 24.9961026,8.60240964 25.3636923,8.35662651 L26.4664615,7.61927711 C26.8340513,7.37349398 27.201641,7.49638554 27.4467009,7.86506024 C27.6917607,8.23373494 27.5692308,8.60240964 27.201641,8.84819277 L26.0988718,9.58554217 C25.7312821,9.70843373 25.3636923,9.58554217 25.1186325,9.33975904 Z"/>
          <path fill="#282828" d="M2.94071795 23.4722892C2.69565812 23.1036145 2.81818803 22.7349398 3.18577778 22.4891566L4.41107692 21.7518072C4.77866667 21.5060241 5.14625641 21.6289157 5.39131624 21.9975904 5.63637607 22.3662651 5.51384615 22.7349398 5.14625641 22.9807229L3.92095726 23.7180723C3.67589744 23.8409639 3.18577778 23.7180723 2.94071795 23.4722892zM20.9526154 5.40722892C20.5850256 5.28433735 20.4624957 4.79277108 20.7075556 4.42409639L21.442735 3.31807229C21.565265 2.94939759 22.0553846 2.82650602 22.4229744 3.07228916 22.7905641 3.19518072 22.913094 3.68674699 22.6680342 4.05542169L22.0553846 5.16144578C21.6877949 5.40722892 21.3202051 5.53012048 20.9526154 5.40722892z"/>
          <path fill="#353535" d="M8.08697436,28.2650602 C7.71938462,28.1421687 7.5968547,27.6506024 7.84191453,27.2819277 L8.57709402,26.053012 C8.69962393,25.6843373 9.18974359,25.5614458 9.55733333,25.8072289 C9.92492308,25.9301205 10.047453,26.4216867 9.80239316,26.7903614 L9.06721368,28.0192771 C8.82215385,28.2650602 8.33203419,28.5108434 8.08697436,28.2650602 Z"/>
          <path fill="#545454" d="M28.4269402,15.6072289 C28.4269402,16.4674699 27.6917607,17.0819277 26.9565812,17.0819277 L15.3162393,17.0819277 C14.4585299,17.0819277 13.8458803,16.3445783 13.8458803,15.6072289 C13.8458803,14.746988 14.5810598,14.1325301 15.3162393,14.1325301 L26.9565812,14.1325301 C27.6917607,14.1325301 28.4269402,14.8698795 28.4269402,15.6072289 Z"/>
          <path fill="#545454" d="M15.3162393,24.5783133 C14.4585299,24.5783133 13.8458803,23.8409639 13.8458803,23.1036145 L13.8458803,15.853012 C13.8458803,14.9927711 14.5810598,14.3783133 15.3162393,14.3783133 C16.1739487,14.3783133 16.7865983,15.1156627 16.7865983,15.853012 L16.7865983,23.1036145 C16.7865983,23.8409639 16.0514188,24.5783133 15.3162393,24.5783133 Z"/>
          <path fill="#282828" d="M8.94468376,5.65301205 C8.57709402,5.89879518 8.20950427,5.77590361 7.96444444,5.40722892 L7.22926496,4.30120482 C6.98420513,3.93253012 7.10673504,3.56385542 7.47432479,3.31807229 C7.84191453,3.07228916 8.20950427,3.19518072 8.4545641,3.56385542 L9.18974359,4.66987952 C9.3122735,5.03855422 9.3122735,5.40722892 8.94468376,5.65301205 Z"/>
          <path fill="#353535" d="M22.913094,27.8963855 C22.5455043,28.1421687 22.1779145,28.0192771 21.9328547,27.6506024 L21.1976752,26.4216867 C20.9526154,26.053012 21.0751453,25.6843373 21.442735,25.4385542 C21.8103248,25.1927711 22.1779145,25.3156627 22.4229744,25.6843373 L23.1581538,26.913253 C23.2806838,27.2819277 23.2806838,27.773494 22.913094,27.8963855 Z"/>
          <path fill="#282828" d="M4.90119658,9.8313253 C4.77866667,10.2 4.28854701,10.3228916 3.92095726,10.0771084 L2.81818803,9.4626506 C2.45059829,9.33975904 2.32806838,8.84819277 2.57312821,8.47951807 C2.69565812,8.11084337 3.18577778,7.98795181 3.55336752,8.23373494 L4.65613675,8.84819277 C5.0237265,9.0939759 5.0237265,9.58554217 4.90119658,9.8313253 Z"/>
          <path fill="#353535" d="M27.8142906,22.7349398 C27.6917607,23.1036145 27.201641,23.226506 26.8340513,22.9807229 L25.6087521,22.2433735 C25.2411624,22.1204819 25.1186325,21.6289157 25.3636923,21.260241 C25.4862222,20.8915663 25.9763419,20.7686747 26.3439316,21.0144578 L27.5692308,21.7518072 C27.9368205,21.8746988 28.0593504,22.3662651 27.8142906,22.7349398 Z"/>
          <ellipse cx="15.194" cy="15.607" fill="#AAA" rx="1.96" ry="1.966"/>
        </g>
      </g>
    </g>
  </g>
</svg>
