<svg xmlns="http://www.w3.org/2000/svg" xmlns:xlink="http://www.w3.org/1999/xlink" width="124" height="124" viewBox="0 0 124 124">
  <defs>
    <rect id="exp_red_shirt-a" width="124" height="124"/>
  </defs>
  <g fill="none" fill-rule="evenodd">
    <mask id="exp_red_shirt-b" fill="#fff">
      <use xlink:href="#exp_red_shirt-a"/>
    </mask>
    <use fill="#FFF" xlink:href="#exp_red_shirt-a"/>
    <g mask="url(#exp_red_shirt-b)">
      <g transform="translate(13 24)">
        <path fill="#E53535" d="M26.0004449,6 L36.3149602,6 L34.7641827,35.6453513 C34.6692663,37.4598151 33.1703745,38.8823478 31.3534298,38.8823478 L11.4154332,38.8823478 C9.52915081,38.8823478 8.00001683,37.3532138 8.00001683,35.4669315 C8.00001683,35.4074277 8.00157185,35.3479341 8.0046803,35.2885116 L8.6767372,22.4411739 C9.15883129,13.2252497 16.7719199,6 26.0004449,6 Z" transform="scale(-1 1) rotate(-60 0 60.82)"/>
        <path fill="#E53535" d="M81.0004449,6 L91.3149602,6 L89.7641827,35.6453513 C89.6692663,37.4598151 88.1703745,38.8823478 86.3534298,38.8823478 L66.4154332,38.8823478 C64.5291508,38.8823478 63.0000168,37.3532138 63.0000168,35.4669315 C63.0000168,35.4074277 63.0015719,35.3479341 63.0046803,35.2885116 L63.6767372,22.4411739 C64.1588313,13.2252497 71.7719199,6 81.0004449,6 Z" transform="rotate(-60 77.157 22.441)"/>
        <path fill="#FF4F4F" d="M66.4069357,0.724235788 C73.1674097,2.09166325 78.2570423,8.06662918 78.2570423,15.2303425 L78.2570423,74.0255493 C78.2570423,75.2830709 77.2376196,76.3024936 75.980098,76.3024936 L23.3156766,76.3024936 C22.058155,76.3024936 21.0387324,75.2830709 21.0387324,74.0255493 L21.0387324,15.2303425 C21.0387324,8.06662918 26.1283649,2.09166325 32.888839,0.724235788 C34.5921282,8.33065128 41.4486767,14.0192716 49.6478873,14.0192716 C57.8470979,14.0192716 64.7036464,8.33065128 66.4069357,0.724235788 Z"/>
        <path fill="#E53535" d="M70.7256701,2.33513882 C68.3390708,11.6540914 59.8071631,18.5489605 49.6478873,18.5489605 C39.4886115,18.5489605 30.9567039,11.6540914 28.5701045,2.33513882 C29.8960892,1.58610008 31.3491301,1.03566959 32.888839,0.724235788 C34.5921282,8.33065128 41.4486767,14.0192716 49.6478873,14.0192716 C57.8470979,14.0192716 64.7036464,8.33065128 66.4069357,0.724235788 C67.9466445,1.03566959 69.3996855,1.58610008 70.7256701,2.33513882 Z"/>
      </g>
    </g>
  </g>
</svg>
