<svg xmlns="http://www.w3.org/2000/svg" xmlns:xlink="http://www.w3.org/1999/xlink" width="288" height="164" viewBox="0 0 288 164">
  <defs>
    <rect id="exp_taxi_is_yellow-a" width="288" height="164"/>
    <path id="exp_taxi_is_yellow-c" d="M24.9498901,1.77635684e-15 L138.05011,1.0658141e-14 C141.716736,9.9845927e-15 145.089327,2.00665418 146.838644,5.22908137 L163,35 L0,35 L16.1613558,5.22908137 C17.9106734,2.00665418 21.2832638,2.44990518e-15 24.9498901,1.77635684e-15 Z"/>
    <path id="exp_taxi_is_yellow-e" d="M3.03116547,0 L59,0 L74,28 L11.9807873,28 L1.1924189,2.78677255 C0.757896413,1.77126086 1.22888122,0.595775912 2.24439291,0.16125343 C2.49304938,0.0548569926 2.76070245,-1.72361356e-16 3.03116547,-2.22044605e-16 Z"/>
  </defs>
  <g fill="none" fill-rule="evenodd">
    <mask id="exp_taxi_is_yellow-b" fill="#fff">
      <use xlink:href="#exp_taxi_is_yellow-a"/>
    </mask>
    <use fill="#FFF" xlink:href="#exp_taxi_is_yellow-a"/>
    <g mask="url(#exp_taxi_is_yellow-b)">
      <g transform="translate(22 28)">
        <rect width="17.583" height="14.018" x="184.601" y="35.168" fill="#4C4C4C" rx="5.049"/>
        <rect width="31.399" height="36.956" x="32.631" y="71.044" fill="#393939" rx="15.699"/>
        <path fill="#393939" d="M36.3988095,105.451327 C42.8878968,105.026549 46.655754,105.026549 47.702381,105.451327 C48.7490079,105.876106 48.7490079,106.725664 47.702381,108 L36.3988095,108 L36.3988095,105.451327 Z"/>
        <rect width="31.399" height="36.956" x="112.631" y="71.044" fill="#393939" rx="15.699"/>
        <path fill="#393939" d="M116.39881,105.451327 C122.887897,105.026549 126.655754,105.026549 127.702381,105.451327 C128.749008,105.876106 128.749008,106.725664 127.702381,108 L116.39881,108 L116.39881,105.451327 Z"/>
        <rect width="31.399" height="36.956" x="195.631" y="71.044" fill="#393939" rx="15.699"/>
        <path fill="#393939" d="M199.39881,105.451327 C205.887897,105.026549 209.655754,105.026549 210.702381,105.451327 C211.749008,105.876106 211.749008,106.725664 210.702381,108 L199.39881,108 L199.39881,105.451327 Z"/>
        <g transform="translate(27 10)">
          <mask id="exp_taxi_is_yellow-d" fill="#fff">
            <use xlink:href="#exp_taxi_is_yellow-c"/>
          </mask>
          <use fill="#FFE600" xlink:href="#exp_taxi_is_yellow-c"/>
          <g mask="url(#exp_taxi_is_yellow-d)">
            <g transform="translate(89 6)">
              <mask id="exp_taxi_is_yellow-f" fill="#fff">
                <use xlink:href="#exp_taxi_is_yellow-e"/>
              </mask>
              <use fill="#20C5FF" xlink:href="#exp_taxi_is_yellow-e"/>
              <path fill="#12BCF8" d="M58.2257197,0 L59,0 L74,28 L11.9807873,28 L11.9082053,27.8303704 L58.2257197,-3.55271368e-15 Z" mask="url(#exp_taxi_is_yellow-f)"/>
            </g>
          </g>
          <g mask="url(#exp_taxi_is_yellow-d)">
            <g transform="translate(53 6)">
              <path fill="#20C5FF" d="M4,-3.05311332e-15 L29.3624154,-1.77635684e-15 C30.9625278,-6.49107392e-16 32.4086803,0.953587414 33.0389955,2.42432281 L41.6104241,22.4243228 C42.4806465,24.4548419 41.5400403,26.8063576 39.5095211,27.6765801 C39.0116137,27.889969 38.475551,28 37.9338439,28 L4,28 C1.790861,28 -6.17636919e-16,26.209139 -8.8817842e-16,24 L-4.4408921e-16,4 C-7.1463071e-16,1.790861 1.790861,-3.14690143e-15 4,-3.55271368e-15 Z"/>
              <path fill="#FFF" fill-opacity=".15" d="M18.8198787,-2.30707333e-15 L29.3624154,-1.77635684e-15 C30.9625278,-6.49107392e-16 32.4086803,0.953587414 33.0389955,2.42432281 L36.2921116,10.0149272 L6.35992396,28 L4,28 C1.790861,28 -6.17636919e-16,26.209139 -8.8817842e-16,24 L-6.06362159e-16,11.3081239 L18.8198787,-5.32907052e-15 Z"/>
            </g>
          </g>
          <g mask="url(#exp_taxi_is_yellow-d)">
            <g transform="translate(12 6)">
              <path fill="#4CD0FF" d="M4.54933271,-2.92078712e-15 L23.3353772,0 C24.8717545,1.08234921e-15 26.2723636,0.87997335 26.9390969,2.2641416 L36.5728007,22.2641416 C37.5314888,24.254421 36.6952188,26.6450316 34.7049394,27.6037197 C34.1634413,27.8645513 33.5701245,28 32.969081,28 L4.54933271,28 C2.34019371,28 0.549332712,26.209139 0.549332712,24 L0.549332712,4 C0.549332712,1.790861 2.34019371,-3.14690143e-15 4.54933271,-3.55271368e-15 Z" transform="matrix(-1 0 0 1 37.52 0)"/>
              <path fill="#FFF" fill-opacity=".15" d="M36.9700012,13.6994698 L36.9700012,24 C36.9700012,26.209139 35.1791402,28 32.9700012,28 L13.1699223,28 L36.9700012,13.6994698 Z"/>
            </g>
          </g>
        </g>
        <rect width="170" height="51" x="4" y="44" fill="#FFE600" rx="10"/>
        <rect width="31.399" height="36.956" x="21.327" y="71.044" fill="#525252" rx="15.699"/>
        <rect width="15.071" height="20.389" x="28.863" y="78.69" fill="#DDD" rx="7.536"/>
        <rect width="31.399" height="36.956" x="101.327" y="71.044" fill="#525252" rx="15.699"/>
        <rect width="31.399" height="36.956" x="184.327" y="71.044" fill="#525252" rx="15.699"/>
        <rect width="15.071" height="20.389" x="108.863" y="78.69" fill="#DDD" rx="7.536"/>
        <polygon fill="#4C4C4C" points="21 54 147 54 147 66 21 66"/>
        <polygon fill="#FFE600" points="21 54 27 54 27 60 21 60"/>
        <polygon fill="#FFE600" points="27 60 33 60 33 66 27 66"/>
        <polygon fill="#FFE600" points="33 54 39 54 39 60 33 60"/>
        <polygon fill="#FFE600" points="39 60 45 60 45 66 39 66"/>
        <polygon fill="#FFE600" points="45 54 51 54 51 60 45 60"/>
        <polygon fill="#FFE600" points="51 60 57 60 57 66 51 66"/>
        <polygon fill="#FFE600" points="57 54 63 54 63 60 57 60"/>
        <polygon fill="#FFE600" points="63 60 69 60 69 66 63 66"/>
        <polygon fill="#FFE600" points="69 54 75 54 75 60 69 60"/>
        <polygon fill="#FFE600" points="75 60 81 60 81 66 75 66"/>
        <polygon fill="#FFE600" points="81 54 87 54 87 60 81 60"/>
        <polygon fill="#FFE600" points="87 60 93 60 93 66 87 66"/>
        <polygon fill="#FFE600" points="93 54 99 54 99 60 93 60"/>
        <polygon fill="#FFE600" points="99 60 105 60 105 66 99 66"/>
        <polygon fill="#FFE600" points="105 54 111 54 111 60 105 60"/>
        <polygon fill="#FFE600" points="111 60 117 60 117 66 111 66"/>
        <polygon fill="#FFE600" points="117 54 123 54 123 60 117 60"/>
        <polygon fill="#FFE600" points="123 60 129 60 129 66 123 66"/>
        <polygon fill="#FFE600" points="129 54 135 54 135 60 129 60"/>
        <polygon fill="#FFE600" points="135 60 141 60 141 66 135 66"/>
        <polygon fill="#FFE600" points="141 54 147 54 147 60 141 60"/>
        <path fill="#F54D37" d="M8,53 L17.5799999,53 L17.5799999,67 L8,67 C5.790861,67 4,65.209139 4,63 L4,57 C4,54.790861 5.790861,53 8,53 Z" transform="matrix(-1 0 0 1 21.58 0)"/>
        <rect width="17.583" height="14.018" x="104.601" y="35.168" fill="#4C4C4C" rx="5.049"/>
        <rect width="87" height="51" x="151" y="44" fill="#FFD300" rx="10"/>
        <path fill="#4C4C4C" d="M180,53 L208,53 C210.209139,53 212,54.790861 212,57 L212,69 C212,71.209139 210.209139,73 208,73 L180,73 C177.790861,73 176,71.209139 176,69 L176,57 C176,54.790861 177.790861,53 180,53 Z"/>
        <polygon fill="#777" fill-opacity=".6" points="176 65 212 65 212 68 176 68"/>
        <polygon fill="#777" fill-opacity=".6" points="176 58 212 58 212 61 176 61"/>
        <ellipse cx="194.5" cy="63" fill="#DDD" rx="4.5" ry="3"/>
        <path fill="#FFF" d="M220,53 L229.583333,53 C231.792472,53 233.583333,54.790861 233.583333,57 L233.583333,62 C233.583333,64.209139 231.792472,66 229.583333,66 L220,66 C217.790861,66 216,64.209139 216,62 L216,57 C216,54.790861 217.790861,53 220,53 Z"/>
        <path fill="#FFF" d="M159,53 L168.583333,53 C170.792472,53 172.583333,54.790861 172.583333,57 L172.583333,62 C172.583333,64.209139 170.792472,66 168.583333,66 L159,66 C156.790861,66 155,64.209139 155,62 L155,57 C155,54.790861 156.790861,53 159,53 Z" transform="matrix(-1 0 0 1 327.583 0)"/>
        <rect width="98.4" height="15.292" x="145" y="80" fill="#A5A2A2" rx="5.049"/>
        <path fill="#BAB9B9" d="M149.049405 80L152.766071 80C155.554781 80 157.815476 82.2606956 157.815476 85.0494049L157.815476 90.2426305C157.815476 93.0313398 155.554781 95.2920354 152.766071 95.2920354L149.049405 95.2920354C146.260696 95.2920354 144 93.0313398 144 90.2426305L144 85.0494049C144 82.2606956 146.260696 80 149.049405 80zM5.04940495 80L8.76607124 80C11.5547806 80 13.8154762 82.2606956 13.8154762 85.0494049L13.8154762 90.2426305C13.8154762 93.0313398 11.5547806 95.2920354 8.76607124 95.2920354L5.04940495 95.2920354C2.2606956 95.2920354-5.46660022e-16 93.0313398-8.8817842e-16 90.2426305L-8.8817842e-16 85.0494049C-1.22969682e-15 82.2606956 2.2606956 80 5.04940495 80z"/>
        <path fill="#777" d="M114,0 L138.968901,0 C140.195615,-2.25343663e-16 141.298741,0.746852833 141.754331,1.88582797 L145,10 L111,10 L111,3 C111,1.34314575 112.343146,3.04359188e-16 114,0 Z"/>
        <path fill="#4C4C4C" d="M110.232092,0 L113.767908,8.8817842e-16 C115.092733,6.44812078e-16 116.260701,0.869004459 116.641387,2.13795634 L119,10 L105,10 L107.358613,2.13795634 C107.739299,0.869004459 108.907267,2.43366342e-16 110.232092,0 Z"/>
      </g>
    </g>
  </g>
</svg>
