<svg xmlns="http://www.w3.org/2000/svg" xmlns:xlink="http://www.w3.org/1999/xlink" width="288" height="164" viewBox="0 0 288 164">
  <defs>
    <rect id="exp_taxi_is_here-a" width="288" height="164"/>
    <path id="exp_taxi_is_here-c" d="M31.4875382,2.24438897e-15 L174.095188,2.66453526e-14 C178.731254,2.57937211e-14 182.994978,2.53901126 185.203784,6.61507348 L205.582727,44.2217534 L0,44.2217534 L20.3789429,6.61507348 C22.5877484,2.53901126 26.8514725,2.62798828e-15 31.4875382,1.77635684e-15 Z"/>
  </defs>
  <g fill="none" fill-rule="evenodd">
    <mask id="exp_taxi_is_here-b" fill="#fff">
      <use xlink:href="#exp_taxi_is_here-a"/>
    </mask>
    <use fill="#FFF" xlink:href="#exp_taxi_is_here-a"/>
    <g mask="url(#exp_taxi_is_here-b)">
      <g transform="translate(-109 26.544)">
        <rect width="22.177" height="17.711" x="232.827" y="44.434" fill="#4C4C4C" rx="6.38"/>
        <rect width="39.602" height="46.693" x="142.055" y="89.763" fill="#393939" rx="19.801"/>
        <path fill="#393939" d="M146.807268,133.235503 C154.991588,132.698804 159.743774,132.698804 161.063826,133.235503 C162.383878,133.772202 162.383878,134.845599 161.063826,136.455696 L146.807268,136.455696 L146.807268,133.235503 Z"/>
        <rect width="39.602" height="46.693" x="246.738" y="89.763" fill="#393939" rx="19.801"/>
        <path fill="#393939" d="M251.490496,133.235503 C259.674817,132.698804 264.427003,132.698804 265.747055,133.235503 C267.067107,133.772202 267.067107,134.845599 265.747055,136.455696 L251.490496,136.455696 L251.490496,133.235503 Z"/>
        <g transform="translate(34.054 12.635)">
          <mask id="exp_taxi_is_here-d" fill="#fff">
            <use xlink:href="#exp_taxi_is_here-c"/>
          </mask>
          <use fill="#DBE7E7" xlink:href="#exp_taxi_is_here-c"/>
          <path fill="#20C5FF" d="M185.727147,7.58087201 L204.898051,42.9582747 L127.361384,42.9582747 L113.753987,11.1004128 C113.205798,9.81698438 113.801828,8.33216533 115.085256,7.78397662 C115.399014,7.64996197 115.73666,7.58087201 116.07784,7.58087201 L185.727147,7.58087201 Z" mask="url(#exp_taxi_is_here-d)"/>
          <path fill="#12BCF8" d="M185.799261,7.58087201 L186.664071,7.58087201 L205.582727,42.9582747 L127.361384,42.9582747 L127.271521,42.7478859 L185.799261,7.58087201 Z" mask="url(#exp_taxi_is_here-d)"/>
          <path fill="#20C5FF" d="M71.8998319,7.58087201 L103.870861,7.58087201 C105.893746,7.58087201 107.721754,8.78709427 108.517416,10.6469285 L119.328077,35.9165019 C120.42594,38.4827233 119.235601,41.4530513 116.66938,42.5509151 C116.041114,42.8196954 115.364867,42.9582747 114.681522,42.9582747 L71.8998319,42.9582747 C69.1086319,42.9582747 66.8459172,40.6955601 66.8459172,37.9043601 L66.8459172,12.6347867 C66.8459172,9.84358668 69.1086319,7.58087201 71.8998319,7.58087201 Z" mask="url(#exp_taxi_is_here-d)"/>
          <path fill="#43CEFF" d="M90.6020284,7.58087201 L103.870861,7.58087201 C105.893746,7.58087201 107.721754,8.78709427 108.517416,10.6469285 L112.615517,20.2261092 L74.7828406,42.9582747 L71.8998319,42.9582747 C69.1086319,42.9582747 66.8459172,40.6955601 66.8459172,37.9043601 L66.8459172,21.8549837 L90.6020284,7.58087201 Z" mask="url(#exp_taxi_is_here-d)"/>
        </g>
        <rect width="214.411" height="64.437" x="5.045" y="55.593" fill="#7AC70C" rx="12.635"/>
        <rect width="39.602" height="46.693" x="127.799" y="89.763" fill="#525252" rx="19.801"/>
        <rect width="39.602" height="46.693" x="232.482" y="89.763" fill="#525252" rx="19.801"/>
        <rect width="19.009" height="25.762" x="137.303" y="99.423" fill="#BAB9B9" rx="9.504"/>
        <polygon fill="#4C4C4C" points="26.486 68.228 185.403 68.228 185.403 83.39 26.486 83.39"/>
        <polygon fill="#FFE600" points="102.161 68.228 109.728 68.228 109.728 75.809 102.161 75.809"/>
        <polygon fill="#7AC70C" points="109.728 75.809 117.296 75.809 117.296 83.809 109.728 83.809"/>
        <polygon fill="#7AC70C" points="117.296 67.228 124.863 67.228 124.863 75.808 117.296 75.808"/>
        <polygon fill="#7AC70C" points="124.863 75.809 132.431 75.809 132.431 83.809 124.863 83.809"/>
        <polygon fill="#7AC70C" points="132.431 67.228 139.998 67.228 139.998 75.808 132.431 75.808"/>
        <polygon fill="#7AC70C" points="139.998 75.809 147.566 75.809 147.566 83.809 139.998 83.809"/>
        <polygon fill="#7AC70C" points="147.566 67.228 155.133 67.228 155.133 75.808 147.566 75.808"/>
        <polygon fill="#7AC70C" points="155.133 75.809 162.7 75.809 162.7 83.809 155.133 83.809"/>
        <polygon fill="#7AC70C" points="162.7 67.228 170.268 67.228 170.268 75.808 162.7 75.808"/>
        <polygon fill="#7AC70C" points="170.268 75.809 177.835 75.809 177.835 83.809 170.268 83.809"/>
        <polygon fill="#7AC70C" points="177.835 67.228 186.386 67.228 186.386 75.808 177.835 75.808"/>
        <rect width="22.177" height="17.711" x="131.928" y="44.434" fill="#4C4C4C" rx="6.38"/>
        <rect width="109.728" height="64.437" x="190.448" y="55.593" fill="#70B60B" rx="12.635"/>
        <path fill="#4C4C4C" d="M227.03281,66.9643694 L262.329754,66.9643694 C265.120954,66.9643694 267.383669,69.2270841 267.383669,72.0182841 L267.383669,87.1800281 C267.383669,89.9712281 265.120954,92.2339428 262.329754,92.2339428 L227.03281,92.2339428 C224.24161,92.2339428 221.978895,89.9712281 221.978895,87.1800281 L221.978895,72.0182841 C221.978895,69.2270841 224.24161,66.9643694 227.03281,66.9643694 Z"/>
        <polygon fill="#777" fill-opacity=".6" points="221.979 82.126 267.384 82.126 267.384 85.917 221.979 85.917"/>
        <polygon fill="#777" fill-opacity=".6" points="221.979 73.282 267.384 73.282 267.384 77.072 221.979 77.072"/>
        <ellipse cx="245.312" cy="79.599" fill="#DDD" rx="5.676" ry="3.79"/>
        <path fill="#FFF" d="M277.482558,66.9643694 L289.551598,66.9643694 C292.342798,66.9643694 294.605513,69.2270841 294.605513,72.0182841 L294.605513,78.3356774 C294.605513,81.1268775 292.342798,83.3895921 289.551598,83.3895921 L277.482558,83.3895921 C274.691358,83.3895921 272.428644,81.1268775 272.428644,78.3356774 L272.428644,72.0182841 C272.428644,69.2270841 274.691358,66.9643694 277.482558,66.9643694 Z"/>
        <path fill="#FFF" d="M200.546691,66.9643694 L212.615731,66.9643694 C215.406931,66.9643694 217.669646,69.2270841 217.669646,72.0182841 L217.669646,78.3356774 C217.669646,81.1268775 215.406931,83.3895921 212.615731,83.3895921 L200.546691,83.3895921 C197.755491,83.3895921 195.492777,81.1268775 195.492777,78.3356774 L195.492777,72.0182841 C195.492777,69.2270841 197.755491,66.9643694 200.546691,66.9643694 Z" transform="matrix(-1 0 0 1 413.162 0)"/>
        <rect width="124.106" height="19.321" x="182.88" y="101.078" fill="#A5A2A2" rx="6.38"/>
        <path fill="#BAB9B9" d="M187.998911,101.078293 L192.663963,101.078293 C196.187438,101.078293 199.043778,103.934634 199.043778,107.458109 L199.043778,114.019639 C199.043778,117.543113 196.187438,120.399454 192.663963,120.399454 L187.998911,120.399454 C184.475436,120.399454 181.619096,117.543113 181.619096,114.019639 L181.619096,107.458109 C181.619096,103.934634 184.475436,101.078293 187.998911,101.078293 Z"/>
        <g transform="translate(132.43)">
          <path fill="#777" d="M11.3578983,0 L42.8368372,2.22044605e-15 C44.3876073,4.69029524e-15 45.7819639,0.944645864 46.3570269,2.38485085 L50.4497488,12.6347867 L7.56746233,12.6347867 L7.56746233,3.79043601 C7.56746233,1.697036 9.26449833,-5.03627078e-16 11.3578983,-8.8817842e-16 Z"/>
          <path fill="#4C4C4C" d="M6.60536567,0 L11.0520464,0 C12.7266169,-3.07613597e-16 14.2027524,1.09884848 14.6831556,2.70303016 L17.6574121,12.6347867 L0,12.6347867 L2.97425652,2.70303016 C3.45465974,1.09884848 4.93079524,-5.80564823e-16 6.60536567,-8.8817842e-16 Z"/>
        </g>
      </g>
    </g>
    <g mask="url(#exp_taxi_is_here-b)">
      <g transform="matrix(-1 0 0 1 278 9)">
        <path fill="#EEE6E6" stroke="#EEE6E6" stroke-width="1.949" d="M3.66178365,59.7313508 C2.10503403,58.1685831 2.10503403,55.6105812 3.66178365,54.0478135 C5.21890473,52.484673 7.76668465,52.484673 9.32380572,54.0478135 L26.2574974,71.0469669 C27.8146185,72.6097346 27.8146185,75.1677365 26.2574974,76.7305042 C24.7003763,78.2936447 22.1525964,78.2936447 20.5954753,76.7305042 L3.66178365,59.7313508 Z" transform="matrix(-1 0 0 1 29.92 0)"/>
        <path fill="#B4725C" d="M23.3005051,76.6690197 L17.8551371,82.1427052 C16.7854735,83.2184389 15.0508042,83.2184389 13.9807187,82.1427052 C12.9106332,81.0673958 12.9106332,79.3235705 13.9807187,78.2482611 L19.4260867,72.7737272 C20.4961722,71.6984177 22.2304196,71.6984177 23.3005051,72.7737272 C24.3705906,73.849885 24.3705906,75.5932861 23.3005051,76.6690197"/>
        <g transform="rotate(-20 130.51 -81.202)">
          <rect width="7.897" height="28.313" x="38.375" y=".404" fill="#C68873" rx="3.949" transform="rotate(90 42.324 14.561)"/>
          <rect width="4.568" height="13.328" x="53.678" y=".381" fill="#B4725C" rx="2.284" transform="rotate(28 55.962 7.045)"/>
          <rect width="4.568" height="15.994" x="51.775" y=".381" fill="#C68873" rx="2.284" transform="rotate(13 54.059 8.378)"/>
          <rect width="4.568" height="12.947" x="54.439" y="7.235" fill="#C68873" rx="2.284" transform="rotate(54 56.724 13.709)"/>
          <path fill="#EEE6E6" d="M18.5189679,-3.39605165 L18.5189679,-3.39605165 C21.4099359,-3.39605165 23.7535285,-1.05245905 23.7535285,1.83850892 L23.7535285,33.12189 C23.7535285,33.3581112 23.5620333,33.5496064 23.325812,33.5496064 L13.7121238,33.5496064 C13.4759025,33.5496064 13.2844073,33.3581112 13.2844073,33.12189 L13.2844073,1.83850892 C13.2844073,-1.05245905 15.6279999,-3.39605165 18.5189679,-3.39605165 Z" transform="rotate(-90 18.519 15.077)"/>
          <rect width="15.121" height="5.742" x="28.666" y="12.114" fill="#E2E2E2" rx="2.871" transform="rotate(90 36.227 14.985)"/>
          <path fill="#C68873" d="M58.6033779 9.61531681C60.0626479 8.61570466 60.4353501 9.17894718 59.7214845 11.3050444L54.7250444 13.3043616 53.7970066 8.56810409C55.9699528 6.56945264 56.9851713 5.88717769 56.842662 6.52127922 56.2596294 9.11551074 56.4144728 11.114735 58.6033779 9.61531681zM49.2167661 10.6030288C47.6147043 10.6030288 48.1659039 11.372556 50.8703649 12.9116104L53.4401047 9.88902013C52.3030121 8.85288038 51.6942961 8.5117429 51.6139569 8.8656077 51.1559328 10.8830354 50.0678249 10.6030288 49.2167661 10.6030288z"/>
        </g>
        <g transform="matrix(-1 0 0 1 60.78 98.443)">
          <path fill="#C68873" d="M17.6952283,41.9113924 L17.6952283,44.2517845 C17.6952283,45.7930913 16.7758925,47.1864669 15.357048,47.7948662 L8.07861562,50.9163867 L9.85988235,55.0533311 L17.6952283,51.6932395 L17.6952283,52.8172605 L23.9275199,52.8172605 L23.9275199,41.9113924 L17.6952283,41.9113924 Z"/>
          <path fill="#C68873" d="M13.921846 2.92405063L24.5954803 2.92405063 24.5954803 53.8419018C24.5954803 54.6978508 18.7380108 54.7833602 18.6791315 53.9872678L13.921846 2.92405063zM39.2035563 0L28.529922 0 28.529922 50.9178511C28.529922 51.7738002 29.0261619 52.4677089 29.6382829 52.4677089L33.688004 52.4677089C34.2597653 52.4677089 34.7379657 51.8593096 34.7914728 51.0632171L39.2035563 0z"/>
          <path fill="#4C4C4C" d="M8.64314022,47.3463054 C12.6062231,47.3463054 15.8187578,50.5524802 15.8187578,54.5077172 L15.8187578,55.4675601 L1.46752266,55.4675601 L1.46752266,54.5077172 C1.46752266,50.5524802 4.68005735,47.3463054 8.64314022,47.3463054"/>
          <path fill="#4C4C4C" d="M22.8802069,50.7816881 L10.3963459,50.7816881 C9.10516311,50.7816881 8.04874085,51.8360189 8.04874085,53.1242179 C8.04874085,54.413272 9.10516311,55.4676029 10.3963459,55.4676029 L22.8802069,55.4676029 C24.1713896,55.4676029 25.2278119,54.413272 25.2278119,53.1242179 C25.2278119,51.8360189 24.1713896,50.7816881 22.8802069,50.7816881"/>
          <path stroke="#4C4C4C" stroke-linecap="round" stroke-width="1.764" d="M10.3083976,52.2046499 C10.3083976,49.6192734 12.4083902,47.5238657 14.9988953,47.5238657 C17.5889719,47.5238657 19.6889646,49.6192734 19.6889646,52.2046499"/>
          <path fill="#5A6468" d="M25.1340374,53.3365377 L1.61043526,53.3365377 C1.02310561,53.3365377 0.54244633,53.8158179 0.54244633,54.4019848 C0.54244633,54.9881517 1.02310561,55.4674318 1.61043526,55.4674318 L25.1340374,55.4674318 C25.7213671,55.4674318 26.2020263,54.9881517 26.2020263,54.4019848 C26.2020263,53.8158179 25.7213671,53.3365377 25.1340374,53.3365377"/>
          <path fill="#4C4C4C" d="M31.561676,47.3463054 C35.5247588,47.3463054 38.7372935,50.5524802 38.7372935,54.5077172 L38.7372935,55.4675601 L24.3860584,55.4675601 L24.3860584,54.5077172 C24.3860584,50.5524802 27.5985931,47.3463054 31.561676,47.3463054"/>
          <path fill="#5A6468" d="M38.659497,53.3365377 L24.4641977,53.3365377 C23.9064273,53.3365377 23.4497581,53.7918753 23.4497581,54.3485414 L23.4497581,54.4550006 C23.4497581,55.0120943 23.9064273,55.4674318 24.4641977,55.4674318 L38.659497,55.4674318 C39.2172674,55.4674318 39.6739365,55.0120943 39.6739365,54.4550006 L39.6739365,54.3485414 C39.6739365,53.7918753 39.2172674,53.3365377 38.659497,53.3365377"/>
        </g>
        <path fill="#45BBCD" d="M34.1732506,73.1012658 L34.1732506,73.1012658 C44.3207002,73.1012658 52.5468335,81.3273991 52.5468335,91.4748487 C52.5468335,92.2718426 52.4949765,93.0679922 52.3915912,93.8582521 L48.160308,126.201479 C48.0333316,127.172065 47.2062686,127.897976 46.2274115,127.897976 L22.1190897,127.897976 C21.1402326,127.897976 20.3131696,127.172065 20.1861932,126.201479 L15.95491,93.8582521 C14.6385926,83.7965405 21.7281354,74.5728254 31.7898471,73.2565081 C32.5801071,73.1531228 33.3762567,73.1012658 34.1732506,73.1012658 Z"/>
        <path fill="#E2E2E2" d="M28.2755117,73.8452208 L28.2755117,114.85696 C28.2755117,115.933566 27.4027503,116.806327 26.3261446,116.806327 L17.4617926,116.806327 C16.3851869,116.806327 15.5124255,115.933566 15.5124255,114.85696 L15.5124255,86.608307 C15.5124255,79.5594491 21.2266538,73.8452208 28.2755117,73.8452208 Z"/>
        <path fill="#E2E2E2" d="M53.1965378,73.8452208 L53.1965378,114.85696 C53.1965378,115.933566 52.3237764,116.806327 51.2471707,116.806327 L42.3828186,116.806327 C41.3062129,116.806327 40.4334516,115.933566 40.4334516,114.85696 L40.4334516,86.608307 C40.4334516,79.5594491 46.1476799,73.8452208 53.1965378,73.8452208 Z" transform="matrix(-1 0 0 1 93.63 0)"/>
        <g transform="translate(15.908 48.117)">
          <rect width="36.922" height="30.751" fill="#50CADC" rx="15.376"/>
          <path fill="#E2E2E2" d="M12.3072617,30.4449235 C5.28572298,29.0229519 -2.26462419e-13,22.8165263 -2.27373675e-13,15.3755539 C-2.28284932e-13,7.93458153 5.28572298,1.72815591 12.3072617,0.306184302 L12.3072617,30.4449235 Z"/>
          <path fill="#EEE6E6" d="M5.21993113,3.83099118 C7.19739596,2.09007669 9.62574763,0.849232916 12.3072617,0.306184302 L12.3072617,13.5666652 L5.21993113,3.83099118 Z"/>
          <path fill="#E2E2E2" d="M24.6145234,0.306184302 C31.6360621,1.72815591 36.9217851,7.93458153 36.9217851,15.3755539 C36.9217851,22.8165263 31.6360621,29.0229519 24.6145234,30.4449235 L24.6145234,0.306184302 Z"/>
          <path fill="#EEE6E6" d="M24.6145234,0.306184302 C27.2960374,0.849232916 29.7243891,2.09007669 31.7018539,3.83099118 L24.6145234,13.5666652 L24.6145234,0.306184302 Z"/>
        </g>
        <g transform="matrix(-1 0 0 1 28.641 67.253)">
          <path fill="#E2E2E2" d="M20.0806013,15.9523474 L20.0407605,15.9523474 C15.932184,15.9523474 12.5706214,12.5775986 12.5706214,8.45383136 C12.5706214,4.32964752 15.932184,0.954898708 20.0407605,0.954898708 L20.0806013,0.954898708 C24.1891778,0.954898708 27.5507405,4.32964752 27.5507405,8.45383136 C27.5507405,12.5775986 24.1891778,15.9523474 20.0806013,15.9523474"/>
          <path fill="#C68873" d="M13.9127772,19.9339692 L6.14073275,19.9339692 C4.89258099,19.9339692 3.8807257,18.9171973 3.8807257,17.6624575 L3.8807257,17.3133531 C3.8807257,16.0581892 4.89258099,15.0414173 6.14073275,15.0414173 L13.9127772,15.0414173 C15.1609289,15.0414173 16.1727842,16.0581892 16.1727842,17.3133531 L16.1727842,17.6624575 C16.1727842,18.9171973 15.1609289,19.9339692 13.9127772,19.9339692" transform="matrix(-1 0 0 1 20.054 0)"/>
          <path fill="#C68873" d="M12.8843389,16.8126449 L3.49957104,16.8126449 C2.1556348,16.8126449 1.06613924,15.7173988 1.06613924,14.3659448 C1.06613924,13.0153392 2.1556348,11.9200931 3.49957104,11.9200931 L12.8843389,11.9200931 C14.2282752,11.9200931 15.3177707,13.0153392 15.3177707,14.3659448 C15.3177707,15.7173988 14.2282752,16.8126449 12.8843389,16.8126449" transform="matrix(-1 0 0 1 16.384 0)"/>
          <path fill="#C68873" d="M11.0739281,13.3905734 L4.06984728,13.3905734 C2.72591104,13.3905734 1.63641548,12.2953273 1.63641548,10.9438733 C1.63641548,9.59326769 2.72591104,8.49802156 4.06984728,8.49802156 L11.0739281,8.49802156 C12.4182863,8.49802156 13.5077819,9.59326769 13.5077819,10.9438733 C13.5077819,12.2953273 12.4182863,13.3905734 11.0739281,13.3905734" transform="matrix(-1 0 0 1 15.144 0)"/>
          <path fill="#C68873" d="M16.8909144,18.578952 L10.5404464,11.475547 C9.04038575,9.79789462 9.17878797,7.19085251 10.8480538,5.68329838 C12.5168977,4.17532006 15.1098296,4.31402861 16.6098903,5.99210519 L22.9603582,13.0955102 C24.4604189,14.7731626 24.3220167,17.3802047 22.6531728,18.888183 L22.6527509,18.888183 C20.983907,20.3957372 18.3909751,20.2570286 16.8909144,18.578952" transform="matrix(-1 0 0 1 33.5 0)"/>
        </g>
        <path fill="#454545" d="M34.5151045,0 L34.5151045,0 C45.4583614,-2.01024368e-15 54.3296239,8.87126253 54.3296239,19.8145194 L54.3296239,28.2621895 L58.6386476,47.491836 C58.7474515,47.9773893 58.4420358,48.459211 57.9564825,48.5680149 C57.8918152,48.5825057 57.8257466,48.5898174 57.7594756,48.5898174 L11.2627972,48.5898174 C10.7652027,48.5898174 10.3618227,48.1864374 10.3618227,47.6888429 C10.3618227,47.6246539 10.3686822,47.5606487 10.3822845,47.4979175 L14.700585,27.5827119 L14.700585,19.8145194 C14.700585,8.87126253 23.5718476,2.01024368e-15 34.5151045,0 Z"/>
        <rect width="7.749" height="16.28" x="30.917" y="38.494" fill="#B4725C" rx="3.875"/>
        <g transform="translate(9.571 3.928)">
          <ellipse cx="6.605" cy="22.962" fill="#B4725C" rx="6.605" ry="6.531"/>
          <ellipse cx="42.972" cy="22.962" fill="#B4725C" rx="6.605" ry="6.531"/>
          <path fill="#C68873" d="M25.2290261,0 L25.2290261,0 C34.5370837,-1.70986244e-15 42.0827553,7.54567157 42.0827553,16.8537292 L42.0827553,25.5436265 C42.0827553,34.8516841 34.5370837,42.3973557 25.2290261,42.3973557 L25.2290261,42.3973557 C15.9209685,42.3973557 8.37529691,34.8516841 8.37529691,25.5436265 L8.37529691,16.8537292 C8.37529691,7.54567157 15.9209685,1.70986244e-15 25.2290261,0 Z"/>
          <path fill="#454545" d="M36.4420542,4.27112284 C31.8707558,11.718213 23.5056019,16.7052779 13.9434675,16.7052779 C12.0381049,16.7052779 10.1802684,16.5072663 8.3905038,16.1312362 C8.76894023,7.15832296 16.1630252,1.66539734e-15 25.2290261,0 C29.5345829,-7.90917951e-16 33.4630527,1.61450137 36.4420542,4.27112284 Z"/>
          <path fill="#AA4A4A" d="M15.3871734,28.6121979 L25.7211979,28.6121979 C26.4595792,28.6121979 27.0581554,29.2107742 27.0581554,29.9491555 L27.0581554,37.4725823 C27.0581554,38.2109635 26.4595792,38.8095398 25.7211979,38.8095398 L20.7350036,38.8095398 C17.7814785,38.8095398 15.3871734,36.4152347 15.3871734,33.4617096 L15.3871734,28.6121979 Z"/>
          <path fill="#BD5252" d="M22.4348998,38.8095398 L20.7350036,38.8095398 C17.8717045,38.8095398 15.5339805,36.5592854 15.3938243,33.7307695 C16.1103984,33.2963266 16.9535985,33.0458248 17.856035,33.0458248 C20.4591083,33.0458248 22.5693162,35.1300773 22.5693162,37.7011331 C22.5693162,38.0830918 22.5227431,38.4543066 22.4348998,38.8095398 Z"/>
          <path fill="#FFF" d="M25.7115037,28.6121979 L25.7115037,29.9331267 C25.7115037,30.917635 24.913402,31.7157368 23.9288936,31.7157368 L15.3871734,31.7157368 L15.3871734,28.6121979 L25.7115037,28.6121979 Z"/>
          <rect width="2.278" height="6.306" x="20.951" y="16.822" fill="#935A47" rx="1.139"/>
          <rect width="2.278" height="6.306" x="34.193" y="16.822" fill="#935A47" rx="1.139"/>
          <path stroke="#C68873" stroke-width="2.703" d="M17.1953588,21.9236408 C20.7637872,21.7735055 22.8515239,22.7118514 23.458569,24.7386785"/>
          <path stroke="#C68873" stroke-width="2.703" d="M34.5883654,21.9236408 C38.1567938,21.7735055 40.2445306,22.7118514 40.8515756,24.7386785" transform="matrix(-1 0 0 1 75.44 0)"/>
          <ellipse cx="41.159" cy="20.187" fill="#FFFBFB" fill-opacity=".138" stroke="#ECCABF" stroke-width="1.802" rx="9.338" ry="9.233"/>
          <path fill="#B4725C" d="M29.3251746,14.0837847 L29.3251746,14.0837847 C30.4572357,14.0837847 31.3749525,15.0015015 31.3749525,16.1335626 L31.3749525,25.4144531 C31.3749525,26.5465142 30.4572357,27.464231 29.3251746,27.464231 L29.3251746,27.464231 C28.1931136,27.464231 27.2753967,26.5465142 27.2753967,25.4144531 L27.2753967,16.1335626 C27.2753967,15.0015015 28.1931136,14.0837847 29.3251746,14.0837847 Z"/>
          <ellipse cx="18.034" cy="20.187" fill="#FFFBFB" fill-opacity=".138" stroke="#ECCABF" stroke-width="1.802" rx="9.338" ry="9.233"/>
          <path stroke="#ECCABF" stroke-linecap="round" stroke-width="1.552" d="M31.7686622,19.4017428 C31.420957,18.8920045 30.5795427,18.5324723 29.5967767,18.5324723 C28.3030539,18.5324723 27.2542843,19.1555182 27.2542843,19.9240844"/>
        </g>
      </g>
    </g>
  </g>
</svg>
