<svg xmlns="http://www.w3.org/2000/svg" xmlns:xlink="http://www.w3.org/1999/xlink" width="288" height="164" viewBox="0 0 288 164">
  <defs>
    <rect id="exp_cat-a" width="288" height="164"/>
  </defs>
  <g fill="none" fill-rule="evenodd">
    <mask id="exp_cat-b" fill="#fff">
      <use xlink:href="#exp_cat-a"/>
    </mask>
    <use fill="#FFF" xlink:href="#exp_cat-a"/>
    <g mask="url(#exp_cat-b)">
      <g transform="translate(52.13 23)">
        <path fill="#9DB5D0" fill-rule="nonzero" d="M158.75862,75.5904722 C155.173278,76.1722778 151.557889,74.1690093 150.234213,70.6372037 C143.913019,53.7664815 136.574074,46.3237407 136.500324,46.250537 L141.950722,40.6974352 L147.35687,35.1011759 C148.347852,36.0588333 157.261769,45.0399444 164.807213,65.1775185 C166.314991,69.201537 164.274574,73.6860833 160.251102,75.1944074 C159.758343,75.377963 159.259028,75.5096204 158.75862,75.5904722 Z"/>
        <g transform="translate(31.884 23)">
          <path fill="#2B4382" fill-rule="nonzero" d="M113.35402,110.802918 L61.6700204,110.802918 L61.6700204,117.676218 L113.35402,117.676218 C115.252054,117.676218 116.790871,116.137401 116.790871,114.239367 C116.790871,112.341735 115.252054,110.802918 113.35402,110.802918 Z"/>
          <g fill-rule="nonzero" transform="translate(.612 .095)">
            <circle cx="59.355" cy="59.437" r="59.114" fill="#4359A7"/>
            <path fill="#2B4382" d="M6.73804082 86.3699796L86.2877007 6.81991837C83.7137755 5.49984354 81.031483 4.3639932 78.2556735 3.42761905L3.3457415 78.3379524C4.28211565 81.1137619 5.41796599 83.7960544 6.73804082 86.3699796zM59.3552041.322693878C55.8380816.322693878 52.3988231.647394558 49.0506735 1.23619048L1.15431293 49.132551C.565517007 52.4807007.240414966 55.9199592.240414966 59.4370816.240414966 60.1025374.268911565 60.7603673.290585034 61.4206054L61.3383265.372863946C60.6784898.351190476 60.0202585.322693878 59.3552041.322693878zM103.902612 20.6018367C102.129803 18.5701497 100.221735 16.6620816 98.1900476 14.8896735L14.8073946 98.2727279C16.5802041 100.304415 18.4878707 102.212483 20.5195578 103.984891L28.2248776 96.2799728 49.6988707 117.753966C52.8423265 118.270517 56.0652517 118.551871 59.3552041 118.551871 60.194449 118.551871 61.0268707 118.523374 61.8580884 118.488456L33.9374422 90.5678095 43.9232925 80.5815578 78.6538231 115.312088C81.4147823 114.358857 84.0818231 113.207755 86.6400952 111.874034L49.6354558 74.8693946 59.5249796 64.9798707 98.3726667 103.827156C100.396728 102.04632 102.295966 100.129422 104.060347 98.0905102L65.2371429 59.2673061 75.2229932 49.2810544 112.087156 86.1452177C113.398803 83.5612585 114.52502 80.8693333 115.450156 78.0838912L80.9351565 43.5688912 90.9210068 33.5826395 118.427449 61.0890816C118.442701 60.538415 118.469592 59.9905578 118.469592 59.4362789 118.469592 55.7746667 118.119605 52.1965374 117.482245 48.7191497L96.6335714 27.8704762 103.902612 20.6018367z"/>
          </g>
        </g>
        <g>
          <path fill="#9DB5D0" fill-rule="nonzero" d="M85.7046019 77.0933333C85.2041944 77.1747315 84.689037 77.2075093 84.1629537 77.1883889 79.8690648 77.0305093 76.5153519 73.4205833 76.6737778 69.1261481 77.4653611 47.6364907 83.0834722 36.2970185 83.721 35.0749537L97.5166204 42.2756852 97.5450278 42.2210556C97.4985926 42.3133796 92.8883981 51.6949259 92.2251944 69.699213 92.0864352 73.4675648 89.2893981 76.5109815 85.7046019 77.0933333zM46.1336296 83.5128611C42.5007593 84.1023148 38.8515 82.0378611 37.5687963 78.4476019 31.0760648 60.2745093 31.998213 37.3546481 32.0402778 36.3877037 32.22875 32.0949074 35.8588889 28.7674167 40.1555093 28.9553426 44.447213 29.1438148 47.7736111 32.7739537 47.5884167 37.0645648 47.5796759 37.2716111 46.7717037 57.9500185 52.224287 73.2113519 53.6703333 77.2583148 51.5616296 81.7106296 47.5146667 83.1566759 47.057963 83.3200185 46.5957963 83.4380185 46.1336296 83.5128611z"/>
          <path fill="#9DB5D0" fill-rule="nonzero" d="M48.2762037,60.7869352 L33.5103611,44.5537407 C27.6081759,38.0653796 28.8794074,27.7884537 36.2467593,23.0285741 C71.3146111,0.373666667 104.042676,12.5915833 105.583778,13.1886852 L92.0858889,48.0139815 C92.0858889,48.0139815 92.1809444,48.0544074 92.3677778,48.1194167 C92.310963,48.09975 86.6251111,46.1571204 78.4071759,46.7951944 C67.707963,47.6272037 57.56925,52.3335463 48.2762037,60.7869352 Z"/>
          <path fill="#9DB5D0" fill-rule="nonzero" d="M45.4534907,26.6226574 C43.1901852,22.9695741 38.39425,21.8425648 34.7411667,24.1053241 C26.4451111,29.243787 19.7655463,29.3344722 17.690713,26.8105833 C16.4943241,25.3541574 15.0231481,22.901287 16.0567407,18.4298519 C16.6800648,15.7333333 17.930537,13.5874815 18.3042037,12.985463 C19.5273611,11.3525833 20.1151759,9.24715741 19.7622685,7.07453704 C19.0739352,2.83036111 15.0745,-0.0524444444 10.8303241,0.636435185 C8.61618519,0.995898148 6.77953704,2.26002778 5.6202963,3.98632407 L5.6044537,3.97539815 C5.29361111,4.42226852 2.52607407,8.50528704 1.06418519,14.2239167 C-1.08712963,22.6396111 0.504777778,30.4084907 5.66673148,36.6908981 C10.6221852,42.721463 18.2785278,45.0459537 26.9728333,43.6354167 C32.0506574,42.8116019 37.4824815,40.7132778 42.9356111,37.3355278 C46.589787,35.0722222 47.7167963,30.2757407 45.4534907,26.6226574 Z"/>
        </g>
        <g transform="translate(80.306)">
          <path fill="#ACC1D9" fill-rule="nonzero" d="M64.8393611,54.7918796 C70.7486481,55.3906204 75.5658889,50.1866019 74.5798241,44.329213 C71.6052407,26.6570741 58.1477778,12.6210833 40.7018056,10.8538148 C23.2558333,9.0865463 7.2564537,20.1381204 0.798685185,36.854787 C-1.3417037,42.3953241 2.33377778,48.4597593 8.24306481,49.0585 L64.8393611,54.7918796 Z"/>
          <path fill="#EFF6FF" fill-rule="nonzero" d="M45.2158519,56.1838426 L27.1891667,54.3575741 C21.6185833,53.79325 17.5224537,48.7738796 18.0867778,43.2032963 C18.6511019,37.632713 23.6704722,33.5365833 29.2410556,34.1009074 L47.2677407,35.9271759 C52.8383241,36.4915 56.9344537,41.5108704 56.3701296,47.0814537 C55.8058056,52.652037 50.7864352,56.7481667 45.2158519,56.1838426 Z"/>
          <path fill="#FF8E8E" fill-rule="nonzero" d="M38.2543981,35.0137685 L35.4781204,34.7324259 C34.0839722,34.5914815 33.1350556,36.1118241 33.8747407,37.3022037 L36.2860926,41.1830926 C36.8700833,42.1227222 38.1844722,42.2560185 38.9449167,41.4524167 L42.0855741,38.134213 C43.0486944,37.116463 42.4242778,35.4366019 41.0301296,35.2951111 L38.2543981,35.0137685 Z"/>
          <g fill="#ACC1D9" fill-rule="nonzero" transform="translate(14.75)">
            <path d="M.352907407 20.4648056L2.17644444 2.46543519C2.35180556.733675926 4.34797222-.145861111 5.74430556.892648148L22.7401296 13.5328519.352907407 20.4648056zM49.1032963 25.4033241L50.9268333 7.4039537C51.1021944 5.67219444 49.3234537 4.41025 47.7468426 5.14775L28.5609167 14.1228519 49.1032963 25.4033241z"/>
          </g>
          <path fill="#97ABC2" fill-rule="nonzero" d="M39.9785093 17.9939074C42.2538333 18.2244444 44.3040833 16.5511389 44.5346204 14.2758148L44.8137778 11.5192037C43.4698889 11.2242037 42.1003241 10.9953056 40.7018056 10.8538148 39.303287 10.7123241 37.9156944 10.6615185 36.5401204 10.6811852L36.260963 13.4377963C36.0304259 15.7131204 37.7031852 17.7633704 39.9785093 17.9939074zM1.6514537 34.8198333L11.8366019 35.851787C14.1119259 36.0823241 16.1621759 34.4090185 16.392713 32.1336944 16.62325 29.8583704 14.9499444 27.8081204 12.6746204 27.5775833L6.21521296 26.9231204C4.44248148 29.3497685 2.90957407 31.9954815 1.6514537 34.8198333zM6.37036111 37.8364815L.669212963 37.2590463C-.353453704 40.3155741.344166667 43.4802685 2.18737037 45.7719815L5.53234259 46.1106852C7.80766667 46.3412222 9.85791667 44.6679167 10.0884537 42.3925926 10.3189907 40.1172685 8.64568519 38.0670185 6.37036111 37.8364815zM74.1668241 42.1664259L63.9816759 41.1344722C61.7063519 40.9039352 60.0330463 38.8536852 60.2635833 36.5783611 60.4941204 34.303037 62.5443704 32.6297315 64.8196944 32.8602685L71.2791019 33.5147315C72.5301204 36.2473056 73.5008889 39.1470463 74.1668241 42.1664259zM68.9393148 44.1751574L74.640463 44.7525926C75.0294259 47.95225 73.711213 50.9126296 71.4462685 52.7880648L68.1012963 52.4493611C65.8259722 52.2188241 64.1526667 50.1685741 64.3832037 47.89325 64.6137407 45.6179259 66.6639907 43.9446204 68.9393148 44.1751574z"/>
          <g stroke="#718092" stroke-linecap="round" stroke-width="3.239" transform="rotate(5 -281.578 322.782)">
            <path d="M0.173253735,2.70661097 C1.42067032,0.568069475 5.39470752,-0.839876226 7.81021244,2.72973954"/>
            <path d="M16.7592206,2.7101344 C18.0066372,0.571592902 21.9806744,-0.836352799 24.3961793,2.73326296" transform="matrix(-1 0 0 1 41.155 0)"/>
          </g>
        </g>
        <path fill="#97ABC2" fill-rule="nonzero" d="M53.3788889 26.0681667L51.660787 15.4776667C48.8173148 16.6412778 45.9285 18.0092037 43.0123704 19.6016574L44.300537 27.5409815C44.7053426 30.0375556 47.0795463 31.7491019 49.5761204 31.34375 52.0726944 30.9389444 53.7836944 28.5647407 53.3788889 26.0681667zM71.8393333 10.083537L73.28975 19.0236759C73.6945556 21.52025 76.0687593 23.2317963 78.5658796 22.8264444 81.0624537 22.4216389 82.774 20.0474352 82.3686481 17.5508611L81.0433333 9.38373148C78.1430463 9.43836111 75.0630278 9.65305556 71.8393333 10.083537zM63.5137778 23.6513519C66.0103519 23.2465463 67.7218981 20.8723426 67.3165463 18.3757685L66.1288981 11.0548519C63.2346204 11.6535926 60.25075 12.4375278 57.1980463 13.4399815L58.2376481 19.8485833C58.643 22.3451574 61.0172037 24.0567037 63.5137778 23.6513519z"/>
      </g>
    </g>
  </g>
</svg>
