<svg xmlns="http://www.w3.org/2000/svg" xmlns:xlink="http://www.w3.org/1999/xlink" width="124" height="124" viewBox="0 0 124 124">
  <defs>
    <rect id="exp_cheap_coat-a" width="124" height="124"/>
  </defs>
  <g fill="none" fill-rule="evenodd">
    <mask id="exp_cheap_coat-b" fill="#fff">
      <use xlink:href="#exp_cheap_coat-a"/>
    </mask>
    <use fill="#FFF" xlink:href="#exp_cheap_coat-a"/>
    <g mask="url(#exp_cheap_coat-b)">
      <g transform="translate(-6 24)">
        <g>
          <path fill="#E5E5E5" d="M56.1993471,1.32775712 C62.2624517,3.42396013 66.4219958,4.47206164 68.6779792,4.47206164 C70.8554308,4.47206164 74.642519,3.49565998 80.039244,1.54285665 L80.0392427,1.54285315 C83.2487098,0.381508441 86.7919528,2.04183967 87.9532975,5.25130674 C88.1972691,5.92554132 88.322047,6.63708965 88.322047,7.35410736 L88.322047,10.6254261 C88.322047,14.0385458 85.5551668,16.8054261 82.142047,16.8054261 L54.180003,16.8054295 C50.7668832,16.8054295 48.000003,14.0385492 48.000003,10.6254295 C48.000003,10.6254283 48.000003,10.6254272 48.000003,10.6254261 L48.0000042,7.16853463 C48.000006,3.7554126 50.7668896,0.988532038 54.1800117,0.988533912 C54.8673035,0.988534289 55.5497811,1.10318203 56.1993471,1.32775712 Z"/>
          <path fill="#FFBC00" d="M67.9661017,8.22222222 L67.9661017,8.22222222 C83.9542772,8.22222222 96.9152542,21.1831993 96.9152542,37.1713748 L96.9152542,71.7411111 C96.9152542,74.0165243 95.0706674,75.8611111 92.7952542,75.8611111 L43.1369492,75.8611111 C40.861536,75.8611111 39.0169492,74.0165243 39.0169492,71.7411111 L39.0169492,37.1713748 C39.0169492,21.1831993 51.9779262,8.22222222 67.9661017,8.22222222 Z"/>
          <path fill="#E5E5E5" d="M70.1148198,8.19711998 L78.6949153,22.2704691 L58.0169492,22.2704691 L66.5970446,8.19711998 C67.1892819,7.22571318 68.456866,6.9183356 69.4282728,7.51057296 C69.7085542,7.68145205 69.9439407,7.91683859 70.1148198,8.19711998 Z" transform="matrix(1 0 0 -1 0 29.493)"/>
          <rect width="19.644" height="9.25" x="36.949" y="50.361" fill="#FFD300" rx="1.03"/>
          <rect width="19.644" height="9.25" x="79.339" y="50.361" fill="#FFD300" rx="1.03"/>
          <rect width="52.729" height="20.556" x="71.035" y="21.291" fill="#FFBC00" rx="2.06" transform="rotate(45 97.4 31.569)"/>
          <rect width="23.78" height="9.25" x="103.659" y="45.136" fill="#FFD300" rx="1.03" transform="rotate(-43 115.549 49.76)"/>
          <rect width="52.729" height="20.556" x="12.236" y="21.291" fill="#FFBC00" rx="2.06" transform="scale(-1 1) rotate(45 0 -61.621)"/>
          <rect width="23.78" height="9.25" x="8.562" y="45.136" fill="#FFD300" rx="1.03" transform="scale(-1 1) rotate(-43 0 101.68)"/>
          <path fill="#FFD300" d="M74.8603889,10.0352211 L88.9636906,0.891865356 C91.3502856,-0.655395514 94.5393058,0.0250192049 96.0865667,2.41161417 C96.6274422,3.24589544 96.9152542,4.21890843 96.9152542,5.2131778 L96.9152542,10.11454 C96.9152542,12.9588064 94.6095207,15.26454 91.7652542,15.26454 L75.1911488,15.26454 C74.0558968,15.26454 73.1355932,14.3442364 73.1355932,13.2089844 L73.1355932,13.2089844 C73.1355932,11.9271451 73.7848106,10.7325327 74.8603889,10.0352211 Z"/>
          <path fill="#FFD300" d="M40.7417448,10.0352211 L54.8450465,0.891865356 C57.2316415,-0.655395514 60.4206617,0.0250192049 61.9679226,2.41161417 C62.5087981,3.24589544 62.7966102,4.21890843 62.7966102,5.2131778 L62.7966102,10.11454 C62.7966102,12.9588064 60.4908766,15.26454 57.6466102,15.26454 L41.0725047,15.26454 C39.9372527,15.26454 39.0169492,14.3442364 39.0169492,13.2089844 L39.0169492,13.2089844 C39.0169492,11.9271451 39.6661665,10.7325327 40.7417448,10.0352211 Z" transform="matrix(-1 0 0 1 101.814 0)"/>
        </g>
        <rect width="10.339" height="62" x="63" y="15" fill="#FFD300" rx="2.06"/>
        <ellipse cx="68.102" cy="55.083" fill="#7B7B7B" rx="3.102" ry="3.083"/>
        <ellipse cx="68.102" cy="32.083" fill="#7B7B7B" rx="3.102" ry="3.083"/>
      </g>
    </g>
  </g>
</svg>
