<svg xmlns="http://www.w3.org/2000/svg" xmlns:xlink="http://www.w3.org/1999/xlink" width="124" height="124" viewBox="0 0 124 124">
  <defs>
    <rect id="exp_blue-dress-a" width="124" height="124"/>
  </defs>
  <g fill="none" fill-rule="evenodd">
    <mask id="exp_blue-dress-b" fill="#fff">
      <use xlink:href="#exp_blue-dress-a"/>
    </mask>
    <use fill="#FFF" xlink:href="#exp_blue-dress-a"/>
    <g mask="url(#exp_blue-dress-b)">
      <g transform="translate(21 12)">
        <polygon fill="#1CB0F6" points="19.765 53.581 62.235 53.581 79 93.767 3 93.767"/>
        <path fill="#5BCAFF" fill-rule="nonzero" d="M53.9541411,90.0537813 C54.3183672,89.8540863 54.6883744,89.6701105 55.0637534,89.5023371 C56.8825946,88.6894166 58.8083014,88.2654562 60.7774709,88.2654562 C63.2035423,88.2654562 65.5541382,88.9081751 67.7177347,90.1185435 C67.7787237,90.1499034 67.8392998,90.1827839 67.8994177,90.2171973 C68.0861003,90.3240602 68.2726022,90.4190034 68.4586439,90.5021537 C69.1345051,90.8042259 69.8059694,90.9520544 70.4828909,90.9520544 C71.3556882,90.9520544 72.2267788,90.7053103 73.1050023,90.1949108 C75.2637479,88.9403068 78.0308146,89.6732585 79.2854186,91.8320041 C80.5400226,93.9907498 79.8070709,96.7578165 77.6483252,98.0124205 C75.4230502,99.3056895 72.9933803,99.9939148 70.4828909,99.9939148 C68.5137215,99.9939148 66.5880147,99.5699544 64.7691735,98.757034 C64.3866012,98.5860455 64.0096085,98.3982279 63.6386288,98.1940924 C63.5582029,98.1535187 63.4784862,98.1103171 63.3995822,98.0644602 C62.5213587,97.5540607 61.6502681,97.3073167 60.7774709,97.3073167 C60.1005494,97.3073167 59.429085,97.4551452 58.7532238,97.7572174 C58.5671821,97.8403676 58.3806802,97.9353108 58.1939976,98.0421738 C57.9784983,98.1655323 57.7571117,98.2691946 57.53192,98.3537268 C55.3802849,99.5484925 53.0448715,100.182664 50.6349864,100.182664 C48.665817,100.182664 46.7401101,99.7587034 44.9212689,98.945783 C44.5458899,98.7780095 44.1758827,98.5940338 43.8116566,98.3943388 C43.5742463,98.3058212 43.3410823,98.1960779 43.1146133,98.0644602 C42.2363898,97.5540607 41.3652992,97.3073167 40.492502,97.3073167 C39.8155805,97.3073167 39.1441161,97.4551452 38.4682549,97.7572174 C38.2822132,97.8403676 38.0957113,97.9353108 37.9090287,98.0421738 C37.6935294,98.1655323 37.4721428,98.2691946 37.2469511,98.3537268 C35.095316,99.5484925 32.7599026,100.182664 30.3500175,100.182664 C28.3808481,100.182664 26.4551413,99.7587034 24.6363,98.945783 C24.2609211,98.7780095 23.8909138,98.5940338 23.5266877,98.3943388 C23.2892774,98.3058212 23.0561134,98.1960779 22.8296444,98.0644602 C21.9514209,97.5540607 21.0803303,97.3073167 20.2075331,97.3073167 C19.5306116,97.3073167 18.8591472,97.4551452 18.183286,97.7572174 C17.9972443,97.8403676 17.8107424,97.9353108 17.6240598,98.0421738 C17.4085605,98.1655323 17.1871739,98.2691946 16.9619822,98.3537268 C14.8103471,99.5484925 12.4749337,100.182664 10.0650486,100.182664 C8.09587921,100.182664 6.17017236,99.7587034 4.35133113,98.945783 C3.88902694,98.7391588 3.43487038,98.5079597 2.98962619,98.253088 C0.822697839,97.0126705 0.0716123957,94.2504709 1.3120299,92.0835426 C2.55244741,89.9166142 5.314647,89.1655288 7.48157535,90.4059463 C7.66825794,90.5128092 7.85475986,90.6077524 8.04080157,90.6909027 C8.71666279,90.9929749 9.38812712,91.1408034 10.0650486,91.1408034 C10.9378459,91.1408034 11.8089364,90.8940593 12.6871599,90.3836598 C12.913629,90.2520422 13.146793,90.1422989 13.3842033,90.0537813 C13.7484294,89.8540863 14.1184366,89.6701105 14.4938156,89.5023371 C16.3126568,88.6894166 18.2383637,88.2654562 20.2075331,88.2654562 C22.6174182,88.2654562 24.9528316,88.8996275 27.1044666,90.0943932 C27.3296583,90.1789255 27.5510449,90.2825878 27.7665442,90.4059463 C27.9532268,90.5128092 28.1397288,90.6077524 28.3257705,90.6909027 C29.0016317,90.9929749 29.673096,91.1408034 30.3500175,91.1408034 C31.2228147,91.1408034 32.0939053,90.8940593 32.9721288,90.3836598 C33.1985979,90.2520422 33.4317619,90.1422989 33.6691722,90.0537813 C34.0333983,89.8540863 34.4034055,89.6701105 34.7787845,89.5023371 C36.5976257,88.6894166 38.5233326,88.2654562 40.492502,88.2654562 C42.9023871,88.2654562 45.2378005,88.8996275 47.3894355,90.0943932 C47.6146272,90.1789255 47.8360138,90.2825878 48.0515131,90.4059463 C48.2381957,90.5128092 48.4246976,90.6077524 48.6107394,90.6909027 C49.2866006,90.9929749 49.9580649,91.1408034 50.6349864,91.1408034 C51.5077836,91.1408034 52.3788742,90.8940593 53.2570977,90.3836598 C53.4835668,90.2520422 53.7167307,90.1422989 53.9541411,90.0537813 Z"/>
        <path fill="#1CB0F6" d="M27.6273251,6.77902179e-13 C28.1541236,7.49296489 33.9400164,13.3953488 41,13.3953488 C48.0599836,13.3953488 53.8458764,7.49296489 54.3726749,6.765144e-13 L61.5043601,0 C62.6140671,-2.03849875e-16 63.5136624,0.899595293 63.5136624,2.00930233 L63.5136624,54.1902748 L18.6470588,54.1902748 L18.6470588,2.00930233 C18.6470588,0.899595293 19.5466541,-1.12841775e-15 20.6563611,-1.33226763e-15 L27.6273251,0 Z"/>
        <rect width="49.325" height="6.698" x="16.412" y="50.233" fill="#5BCAFF" rx="3.349"/>
      </g>
    </g>
  </g>
</svg>
