<?xml version="1.0" encoding="UTF-8"?>
<svg width="288px" height="164px" viewBox="0 0 288 164" version="1.1" xmlns="http://www.w3.org/2000/svg" xmlns:xlink="http://www.w3.org/1999/xlink">
    <!-- Generator: Sketch 52.6 (67491) - http://www.bohemiancoding.com/sketch -->
    <title>what are your grandparents names? copy 16</title>
    <desc>Created with Sketch.</desc>
    <g id="what-are-your-grandparents-names?-copy-16" stroke="none" stroke-width="1" fill="none" fill-rule="evenodd">
        <rect fill="#FFFFFF" x="0" y="0" width="288" height="164"></rect>
        <g id="hotel_spanish_flags" transform="translate(-11.000000, 12.000000)">
            <g id="Group" transform="translate(108.082506, 0.000000)">
                <g id="Shape" transform="translate(0.000000, 0.596130)">
                    <path d="M13.93075,0.849783279 C12.6955303,1.32519693 10.5549421,1.61789675 7.16505338,0.529959547 C4.15205197,-0.436963271 1.45362264,0.132936984 0.0407445752,0.59344739 L0.0407445752,9.79650194 C1.45362264,9.33599153 4.15205197,8.76609127 7.16505338,9.73301409 C10.5549421,10.8209513 12.6958299,10.5279534 13.93075,10.0528378 L13.93075,0.849783279 Z" id="Path" fill="#EF4B4B"></path>
                    <path d="M13.93075,3.45874611 C12.6955303,3.93415977 10.5549421,4.22685958 7.16505338,3.13892238 C4.15205197,2.17199956 1.45362264,2.74189982 0.0407445752,3.20241022 L0.0407445752,7.18724104 C1.45362264,6.72673063 4.15205197,6.15683038 7.16505338,7.12375319 C10.5549421,8.2116904 12.6958299,7.91869252 13.93075,7.44357693 L13.93075,3.45874611 Z" id="Path" fill="#FFC807"></path>
                </g>
                <path d="M14.8169445,22.4741 C14.3295076,22.4741 13.93075,22.0773755 13.93075,21.5924238 L13.93075,0.962451844 C13.93075,0.47750011 14.3295076,0.0807756115 14.8169445,0.0807756115 C15.3043815,0.0807756115 15.703139,0.47750011 15.703139,0.962451844 L15.703139,21.5921257 C15.703139,22.0773755 15.3043815,22.4741 14.8169445,22.4741 Z" id="Shape" fill="#4C4C4C"></path>
            </g>
            <g id="Group" transform="translate(170.697331, 0.000000)">
                <g id="Shape" transform="translate(0.000000, 0.596130)">
                    <path d="M14.146157,0.849783279 C12.9109373,1.32519693 10.7703491,1.61789675 7.38046037,0.529959547 C4.36745895,-0.436963271 1.66902962,0.132936984 0.256151557,0.59344739 L0.256151557,9.79650194 C1.66902962,9.33599153 4.36745895,8.76609127 7.38046037,9.73301409 C10.7703491,10.8209513 12.9112369,10.5279534 14.146157,10.0528378 L14.146157,0.849783279 Z" id="Path" fill="#EF4B4B"></path>
                    <path d="M14.146157,3.45874611 C12.9109373,3.93415977 10.7703491,4.22685958 7.38046037,3.13892238 C4.36745895,2.17199956 1.66902962,2.74189982 0.256151557,3.20241022 L0.256151557,7.18724104 C1.66902962,6.72673063 4.36745895,6.15683038 7.38046037,7.12375319 C10.7703491,8.2116904 12.9112369,7.91869252 14.146157,7.44357693 L14.146157,3.45874611 Z" id="Path" fill="#FFC807"></path>
                </g>
                <path d="M15.0326511,22.4741 C14.5452142,22.4741 14.1464566,22.0773755 14.1464566,21.5924238 L14.1464566,0.962451844 C14.1464566,0.47750011 14.5452142,0.0807756115 15.0326511,0.0807756115 C15.520088,0.0807756115 15.9188456,0.47750011 15.9188456,0.962451844 L15.9188456,21.5921257 C15.9188456,22.0773755 15.520088,22.4741 15.0326511,22.4741 Z" id="Shape" fill="#4C4C4C"></path>
            </g>
            <g id="Group" transform="translate(209.344759, 101.342096)">
                <path d="M6.04907145,1.5433805 L0.424822115,18.3667645 C-0.805304545,22.0463768 0.999740055,26.0505818 4.57957041,27.5841262 C6.62638613,28.4607353 8.9455314,28.4607353 10.9923471,27.5841262 C14.5724771,26.0505818 16.3775217,22.0463768 15.1470954,18.3667645 L9.52284608,1.5433805 C8.96740165,-0.118629865 6.60481548,-0.118629865 6.04907145,1.5433805 Z" id="Shape" fill="#7BC043"></path>
                <path d="M7.78610856,38.1532126 C7.28069608,38.1532126 6.87085358,37.7457577 6.87085358,37.242624 L6.87085358,20.4490465 C6.87085358,19.9459128 7.28069608,19.538458 7.78610856,19.538458 C8.29152105,19.538458 8.70136354,19.9459128 8.70136354,20.4490465 L8.70136354,37.242624 C8.70136354,37.7457577 8.29152105,38.1532126 7.78610856,38.1532126 Z" id="Shape" fill="#BE8242"></path>
            </g>
            <g id="Group" transform="translate(83.515924, 101.342096)">
                <path d="M6.05596208,1.5433805 L0.431413149,18.3667645 C-0.798713511,22.0463768 1.00633109,26.0505818 4.58616145,27.5841262 C6.63297717,28.4607353 8.95212244,28.4607353 10.9989382,27.5841262 C14.5790681,26.0505818 16.3841127,22.0463768 15.1536865,18.3667645 L9.52943712,1.5433805 C8.97399269,-0.118629865 6.61140651,-0.118629865 6.05596208,1.5433805 Z" id="Shape" fill="#7BC043"></path>
                <path d="M7.7926996,38.1532126 C7.28728711,38.1532126 6.87744462,37.7457577 6.87744462,37.242624 L6.87744462,20.4490465 C6.87744462,19.9459128 7.28728711,19.538458 7.7926996,19.538458 C8.29811209,19.538458 8.70795458,19.9459128 8.70795458,20.4490465 L8.70795458,37.242624 C8.70795458,37.7457577 8.29811209,38.1532126 7.7926996,38.1532126 Z" id="Shape" fill="#BE8242"></path>
            </g>
            <path d="M104.485898,145.680455 L104.485898,133.813891 C104.485898,132.783779 103.63895,131.941149 102.603559,131.941149 L85.4444003,131.941149 C84.4090087,131.941149 83.5620608,132.783779 83.5620608,133.813891 L83.5620608,145.680455 L104.485898,145.680455 Z" id="Shape" fill="#7BC043"></path>
            <path d="M224.87713,145.6581 L224.87713,133.791537 C224.87713,132.761424 224.030182,131.918794 222.994791,131.918794 L205.835632,131.918794 C204.800241,131.918794 203.953293,132.761424 203.953293,133.791537 L203.953293,145.6581 L224.87713,145.6581 Z" id="Shape" fill="#7BC043"></path>
            <g id="Group" transform="translate(94.301252, 110.284045)">
                <polygon id="Shape" fill="#E5A258" points="120.760629 35.3740546 77.1031167 35.3740546 77.2049781 0.133831179 120.862491 0.133831179"></polygon>
                <polygon id="Shape" fill="#FBC36C" points="77.1031167 35.3740546 0.207018393 35.3740546 0.308879831 0.133831179 77.2049781 0.133831179"></polygon>
            </g>
            <rect id="Rectangle-path" fill="#E5A258" x="94.6101321" y="107.742445" width="76.8960983" height="2.67543133"></rect>
            <rect id="Rectangle-path" fill="#E5A258" x="94.5082707" y="71.907582" width="76.8960983" height="2.67543133"></rect>
            <rect id="Rectangle-path" fill="#BE8242" transform="translate(193.335047, 109.080042) rotate(-180.000000) translate(-193.335047, -109.080042) " x="171.50629" y="107.742326" width="43.6575127" height="2.67543133"></rect>
            <rect id="Rectangle-path" fill="#BE8242" transform="translate(193.233305, 73.245119) rotate(-180.000000) translate(-193.233305, -73.245119) " x="171.404549" y="71.9074032" width="43.6575127" height="2.67543133"></rect>
            <g id="Group" transform="translate(94.301252, 74.516247)">
                <polygon id="Shape" fill="#FBC36C" points="77.1031167 0.0667665571 0.207018393 0.0667665571 0.308879831 33.2181506 77.2049781 33.2181506"></polygon>
                <polygon id="Shape" fill="#E5A258" points="77.1031167 0.0667665571 120.760629 0.0667665571 120.862491 33.2181506 77.2049781 33.2181506"></polygon>
            </g>
            <g id="Group" transform="translate(103.588619, 80.775612)">
                <g>
                    <g transform="translate(2.097147, 0.000000)">
                        <g>
                            <path d="M0.219301684,19.1927026 L0.219301684,1.57378313 C0.219301684,0.82414969 0.83017072,0.216097116 1.58394536,0.216097116 L14.7860865,0.216097116 C15.5398611,0.216097116 16.1507302,0.823851625 16.1507302,1.57378313 L16.1507302,19.1927026 C16.1507302,19.9426341 15.5398611,20.5503886 14.7860865,20.5503886 L1.58394536,20.5503886 C0.83017072,20.5500905 0.219301684,19.942336 0.219301684,19.1927026 Z" id="Shape" fill="#FFFFFF"></path>
                            <polygon id="Rectangle-path" fill="#BBE5F4" transform="translate(8.184986, 10.382945) rotate(90.000000) translate(-8.184986, -10.382945) " points="0.0543692496 4.46419607 16.3156027 4.46419607 16.3156027 16.3016935 0.0543692496 16.3016935"></polygon>
                        </g>
                        <rect id="Rectangle-path" fill="#8FD4DF" x="2.2661174" y="2.25247711" width="2.04681572" height="16.2612334"></rect>
                    </g>
                    <path d="M0.0617160477,14.9759772 L0.0617160477,18.9447125 C0.0617160477,19.8311578 0.78403348,20.5500905 1.67532106,20.5500905 L18.2478774,20.5500905 L18.2478774,14.4409506 L0.599484522,14.4409506 C0.302588389,14.4409506 0.0617160477,14.6805948 0.0617160477,14.9759772 Z" id="Shape" fill="#676262"></path>
                    <rect id="Rectangle-path" fill="#464646" x="16.2010617" y="14.4409506" width="2.04681572" height="6.10913998"></rect>
                    <rect id="Rectangle-path" fill="#FFFFFF" x="2.31644894" y="7.54402483" width="15.9311289" height="2.03637999"></rect>
                </g>
                <g transform="translate(32.056394, 0.000000)">
                    <g transform="translate(2.097147, 0.000000)">
                        <g>
                            <path d="M0.210913095,19.1927026 L0.210913095,1.57378313 C0.210913095,0.82414969 0.821782131,0.216097116 1.57555677,0.216097116 L14.7776979,0.216097116 C15.5314726,0.216097116 16.1423416,0.823851625 16.1423416,1.57378313 L16.1423416,19.1927026 C16.1423416,19.9426341 15.5314726,20.5503886 14.7776979,20.5503886 L1.57555677,20.5503886 C0.821782131,20.5500905 0.210913095,19.942336 0.210913095,19.1927026 Z" id="Shape" fill="#FFFFFF"></path>
                            <polygon id="Rectangle-path" fill="#BBE5F4" transform="translate(8.176537, 10.383034) rotate(90.000000) translate(-8.176537, -10.383034) " points="0.0459207421 4.46428549 16.3071542 4.46428549 16.3071542 16.3017829 0.0459207421 16.3017829"></polygon>
                        </g>
                        <rect id="Rectangle-path" fill="#8FD4DF" x="2.25772881" y="2.25247711" width="2.04681572" height="16.2612334"></rect>
                    </g>
                    <path d="M0.0533274587,14.9759772 L0.0533274587,18.9447125 C0.0533274587,19.8311578 0.775644891,20.5500905 1.66693247,20.5500905 L18.2394888,20.5500905 L18.2394888,14.4409506 L0.591095933,14.4409506 C0.293900208,14.4409506 0.0533274587,14.6805948 0.0533274587,14.9759772 Z" id="Shape" fill="#676262"></path>
                    <rect id="Rectangle-path" fill="#464646" x="16.1923735" y="14.4409506" width="2.04681572" height="6.10913998"></rect>
                    <rect id="Rectangle-path" fill="#FFFFFF" x="2.30806035" y="7.54402483" width="15.9311289" height="2.03637999"></rect>
                </g>
            </g>
            <g id="Group" transform="translate(189.272064, 80.775612)">
                <g>
                    <g>
                        <path d="M16.064148,19.1927026 L16.064148,1.57378313 C16.064148,0.82414969 15.4532789,0.216097116 14.6995043,0.216097116 L1.49736314,0.216097116 C0.743588497,0.216097116 0.132719462,0.823851625 0.132719462,1.57378313 L0.132719462,19.1927026 C0.132719462,19.9426341 0.743588497,20.5503886 1.49736314,20.5503886 L14.6995043,20.5503886 C15.4532789,20.5500905 16.064148,19.942336 16.064148,19.1927026 Z" id="Shape" fill="#FFF0D8"></path>
                        <polygon id="Rectangle-path" fill="#8FD4DF" transform="translate(8.098464, 10.382885) rotate(90.000000) translate(-8.098464, -10.382885) " points="-0.0321530542 4.46413645 16.2290804 4.46413645 16.2290804 16.3016339 -0.0321530542 16.3016339"></polygon>
                    </g>
                    <rect id="Rectangle-path" fill="#7FB7CC" transform="translate(12.993775, 10.383094) rotate(-180.000000) translate(-12.993775, -10.383094) " x="11.9703667" y="2.25247711" width="2.04681572" height="16.2612334"></rect>
                </g>
                <path d="M18.3188808,14.9759772 L18.3188808,18.9447125 C18.3188808,19.8311578 17.5965634,20.5500905 16.7052758,20.5500905 L0.132719462,20.5500905 L0.132719462,14.4409506 L17.7811124,14.4409506 C18.0783081,14.4409506 18.3188808,14.6805948 18.3188808,14.9759772 Z" id="Shape" fill="#676262"></path>
                <rect id="Rectangle-path" fill="#464646" transform="translate(1.156427, 17.495580) rotate(-180.000000) translate(-1.156427, -17.495580) " x="0.133019049" y="14.4410102" width="2.04681572" height="6.10913998"></rect>
                <rect id="Rectangle-path" fill="#FFF0D8" transform="translate(8.098643, 8.562334) rotate(-180.000000) translate(-8.098643, -8.562334) " x="0.133078968" y="7.54414405" width="15.9311289" height="2.03637999"></rect>
            </g>
            <rect id="Rectangle-path" fill="#E5A258" x="94.5082707" y="36.0727189" width="76.8960983" height="2.67543133"></rect>
            <rect id="Rectangle-path" fill="#BE8242" transform="translate(193.233305, 37.410256) rotate(-180.000000) translate(-193.233305, -37.410256) " x="171.404549" y="36.0725401" width="43.6575127" height="2.67543133"></rect>
            <g id="Group" transform="translate(94.301252, 38.450383)">
                <polygon id="Shape" fill="#FBC36C" points="77.1031167 0.297766922 0.207018393 0.297766922 0.308879831 33.4491509 77.2049781 33.4491509"></polygon>
                <polygon id="Shape" fill="#E5A258" points="77.1031167 0.297766922 120.760629 0.297766922 120.760629 33.4491509 77.1989863 33.4491509"></polygon>
            </g>
            <g id="Group" transform="translate(103.588619, 45.007813)">
                <g>
                    <g transform="translate(2.097147, 0.000000)">
                        <g>
                            <path d="M0.219301684,19.1253399 L0.219301684,1.50642045 C0.219301684,0.756787003 0.83017072,0.148734429 1.58394536,0.148734429 L14.7860865,0.148734429 C15.5398611,0.148734429 16.1507302,0.756488938 16.1507302,1.50642045 L16.1507302,19.1253399 C16.1507302,19.8752714 15.5398611,20.4830259 14.7860865,20.4830259 L1.58394536,20.4830259 C0.83017072,20.4830259 0.219301684,19.8752714 0.219301684,19.1253399 Z" id="Shape" fill="#FFFFFF"></path>
                            <polygon id="Rectangle-path" fill="#BBE5F4" transform="translate(8.184986, 10.315880) rotate(90.000000) translate(-8.184986, -10.315880) " points="0.0543692496 4.39713144 16.3156027 4.39713144 16.3156027 16.2346289 0.0543692496 16.2346289"></polygon>
                        </g>
                        <rect id="Rectangle-path" fill="#8FD4DF" x="2.2661174" y="2.18541249" width="2.04681572" height="16.2612334"></rect>
                    </g>
                    <path d="M0.0617160477,14.9089126 L0.0617160477,18.8776479 C0.0617160477,19.7640932 0.78403348,20.4830259 1.67532106,20.4830259 L18.2478774,20.4830259 L18.2478774,14.3738859 L0.599484522,14.3738859 C0.302588389,14.3738859 0.0617160477,14.6135302 0.0617160477,14.9089126 Z" id="Shape" fill="#676262"></path>
                    <rect id="Rectangle-path" fill="#464646" x="16.2010617" y="14.3738859" width="2.04681572" height="6.10913998"></rect>
                    <rect id="Rectangle-path" fill="#FFFFFF" x="2.31644894" y="7.4769602" width="15.9311289" height="2.03637999"></rect>
                </g>
                <g transform="translate(32.056394, 0.000000)">
                    <g transform="translate(2.097147, 0.000000)">
                        <g>
                            <path d="M0.210913095,19.1253399 L0.210913095,1.50642045 C0.210913095,0.756787003 0.821782131,0.148734429 1.57555677,0.148734429 L14.7776979,0.148734429 C15.5314726,0.148734429 16.1423416,0.756488938 16.1423416,1.50642045 L16.1423416,19.1253399 C16.1423416,19.8752714 15.5314726,20.4830259 14.7776979,20.4830259 L1.57555677,20.4830259 C0.821782131,20.4830259 0.210913095,19.8752714 0.210913095,19.1253399 Z" id="Shape" fill="#FFFFFF"></path>
                            <polygon id="Rectangle-path" fill="#BBE5F4" transform="translate(8.176537, 10.315940) rotate(90.000000) translate(-8.176537, -10.315940) " points="0.0459207421 4.39719106 16.3071542 4.39719106 16.3071542 16.2346885 0.0459207421 16.2346885"></polygon>
                        </g>
                        <rect id="Rectangle-path" fill="#8FD4DF" x="2.25772881" y="2.18541249" width="2.04681572" height="16.2612334"></rect>
                    </g>
                    <path d="M0.0533274587,14.9089126 L0.0533274587,18.8776479 C0.0533274587,19.7640932 0.775644891,20.4830259 1.66693247,20.4830259 L18.2394888,20.4830259 L18.2394888,14.3738859 L0.591095933,14.3738859 C0.293900208,14.3738859 0.0533274587,14.6135302 0.0533274587,14.9089126 Z" id="Shape" fill="#676262"></path>
                    <rect id="Rectangle-path" fill="#464646" x="16.1923735" y="14.3738859" width="2.04681572" height="6.10913998"></rect>
                    <rect id="Rectangle-path" fill="#FFFFFF" x="2.30806035" y="7.4769602" width="15.9311289" height="2.03637999"></rect>
                </g>
            </g>
            <g id="Group" transform="translate(189.272064, 45.007813)">
                <g>
                    <g>
                        <path d="M16.064148,19.1253399 L16.064148,1.50642045 C16.064148,0.756787003 15.4532789,0.148734429 14.6995043,0.148734429 L1.49736314,0.148734429 C0.743588497,0.148734429 0.132719462,0.756488938 0.132719462,1.50642045 L0.132719462,19.1253399 C0.132719462,19.8752714 0.743588497,20.4830259 1.49736314,20.4830259 L14.6995043,20.4830259 C15.4532789,20.4830259 16.064148,19.8752714 16.064148,19.1253399 Z" id="Shape" fill="#FFF0D8"></path>
                        <polygon id="Rectangle-path" fill="#8FD4DF" transform="translate(8.098464, 10.315821) rotate(90.000000) translate(-8.098464, -10.315821) " points="-0.0321530542 4.39707182 16.2290804 4.39707182 16.2290804 16.2345693 -0.0321530542 16.2345693"></polygon>
                    </g>
                    <rect id="Rectangle-path" fill="#7FB7CC" transform="translate(12.993775, 10.315999) rotate(-180.000000) translate(-12.993775, -10.315999) " x="11.9703667" y="2.18538269" width="2.04681572" height="16.2612334"></rect>
                </g>
                <path d="M18.3188808,14.9089126 L18.3188808,18.8776479 C18.3188808,19.7640932 17.5965634,20.4830259 16.7052758,20.4830259 L0.132719462,20.4830259 L0.132719462,14.3738859 L17.7811124,14.3738859 C18.0783081,14.3738859 18.3188808,14.6135302 18.3188808,14.9089126 Z" id="Shape" fill="#676262"></path>
                <rect id="Rectangle-path" fill="#464646" transform="translate(1.156427, 17.428516) rotate(-180.000000) translate(-1.156427, -17.428516) " x="0.133019051" y="14.3739456" width="2.04681572" height="6.10913998"></rect>
                <rect id="Rectangle-path" fill="#FFF0D8" transform="translate(8.098643, 8.495240) rotate(-180.000000) translate(-8.098643, -8.495240) " x="0.13307897" y="7.47704962" width="15.9311289" height="2.03637999"></rect>
            </g>
            <rect id="Rectangle-path" fill="#FFFFFF" x="162.087043" y="36.0727189" width="9.31732565" height="109.585679"></rect>
            <rect id="Rectangle-path" fill="#FFF0D8" x="171.404369" y="36.0727189" width="9.36825637" height="109.585679"></rect>
            <path d="M171.404369,36.0727189 L192.482197,20.2508333 L119.188698,20.2508333 C116.850678,20.2508333 114.576472,21.0088126 112.71031,22.409718 L94.5085703,36.073017 L171.404369,36.073017 L171.404369,36.0727189 Z" id="Shape" fill="#676262"></path>
            <path d="M193.793213,20.6609707 L215.061882,36.0727189 L171.404369,36.0727189 L191.203237,20.703594 C191.960307,20.1158099 193.017269,20.0985221 193.793213,20.6609707 Z" id="Shape" fill="#464646"></path>
            <path d="M91.0863256,33.3972876 C91.0863256,34.8747958 92.2903877,36.0727189 93.7754675,36.0727189 L128.911073,36.0727189 L128.911073,33.3972876 L128.911073,30.7218563 L93.7754675,30.7218563 C92.2903877,30.7218563 91.0863256,31.9197795 91.0863256,33.3972876 Z" id="Shape" fill="#676262"></path>
            <path d="M218.509891,33.3972876 C218.509891,34.8747958 217.305829,36.0727189 215.820749,36.0727189 L184.217939,36.0727189 L184.217939,33.3972876 L184.217939,30.7218563 L215.820749,30.7218563 C217.306129,30.7218563 218.509891,31.9197795 218.509891,33.3972876 Z" id="Shape" fill="#464646"></path>
            <g id="Group" transform="translate(162.009149, 36.065863)">
                <rect id="Rectangle-path" fill="#FFF0D8" x="0.0778940408" y="0.00685549471" width="9.31732565" height="2.67543133"></rect>
                <rect id="Rectangle-path" fill="#EFD9BB" x="9.39521969" y="0.00685549471" width="9.36825637" height="2.67543133"></rect>
            </g>
            <g id="Group" transform="translate(162.009149, 53.949763)">
                <rect id="Rectangle-path" fill="#FFF0D8" x="0.0778940408" y="0.0402387733" width="9.31732565" height="2.67543133"></rect>
                <rect id="Rectangle-path" fill="#EFD9BB" x="9.39521969" y="0.0402387733" width="9.36825637" height="2.67543133"></rect>
            </g>
            <g id="Group" transform="translate(162.009149, 89.717561)">
                <rect id="Rectangle-path" fill="#FFF0D8" x="0.0778940408" y="0.107303395" width="9.31732565" height="2.67543133"></rect>
                <rect id="Rectangle-path" fill="#EFD9BB" x="9.39521969" y="0.107303395" width="9.36825637" height="2.67543133"></rect>
            </g>
            <g id="Group" transform="translate(162.009149, 125.485360)">
                <rect id="Rectangle-path" fill="#FFF0D8" x="0.0778940408" y="0.174368018" width="9.31732565" height="2.67543133"></rect>
                <rect id="Rectangle-path" fill="#EFD9BB" x="9.39521969" y="0.174368018" width="9.36825637" height="2.67543133"></rect>
            </g>
            <g id="Group" transform="translate(162.009149, 142.773129)">
                <rect id="Rectangle-path" fill="#FFF0D8" x="0.0778940408" y="0.224741" width="9.31732565" height="2.67543133"></rect>
                <rect id="Rectangle-path" fill="#EFD9BB" x="9.39521969" y="0.224741" width="9.36825637" height="2.67543133"></rect>
            </g>
            <g id="Group" transform="translate(162.009149, 71.833662)">
                <rect id="Rectangle-path" fill="#FFF0D8" x="0.0778940408" y="0.0739201168" width="9.31732565" height="2.67543133"></rect>
                <rect id="Rectangle-path" fill="#EFD9BB" x="9.39521969" y="0.0739201168" width="9.36825637" height="2.67543133"></rect>
            </g>
            <g id="Group" transform="translate(162.009149, 107.601460)">
                <rect id="Rectangle-path" fill="#FFF0D8" x="0.0778940408" y="0.140984739" width="9.31732565" height="2.67543133"></rect>
                <rect id="Rectangle-path" fill="#EFD9BB" x="9.39521969" y="0.140984739" width="9.36825637" height="2.67543133"></rect>
            </g>
            <g id="Group" transform="translate(0.000000, 145.455714)">
                <path d="M171.404369,0.202386126 L83.5620608,0.224442935 L83.5620608,1.56186053 C83.5620608,2.30076364 84.1642417,2.89987426 84.9069314,2.8995762 L171.404369,2.87751939 L171.404369,0.202386126 Z" id="Shape" fill="#676262"></path>
                <path d="M171.404369,0.202386126 L171.404369,2.87781745 L223.532559,2.87781745 C224.275249,2.87781745 224.87713,2.27900489 224.87713,1.54010179 L224.87713,0.202386126 L171.404369,0.202386126 Z" id="Shape" fill="#464646"></path>
                <polygon id="Rectangle-Copy" fill="#676262" fill-rule="nonzero" points="0.576343517 0.204770646 172.695025 0.204770646 172.695025 10.6714373 0.576343517 10.6714373"></polygon>
                <polygon id="Rectangle" fill="#464646" fill-rule="nonzero" points="171.404369 0.204770646 297.96891 0.204770646 297.96891 10.6714373 171.404369 10.6714373"></polygon>
            </g>
            <path d="M176.491149,44.6471544 L180.772326,44.6471544 L180.772326,48.0912954 L176.491149,48.0912954 C176.194253,48.0912954 175.953381,47.8516511 175.953381,47.5562687 L175.953381,45.1824792 C175.953381,44.8865006 176.194253,44.6471544 176.491149,44.6471544 Z" id="Shape" fill="#EFD9BB"></path>
            <path d="M176.491149,98.3993 L180.772326,98.3993 L180.772326,101.843441 L176.491149,101.843441 C176.194253,101.843441 175.953381,101.603797 175.953381,101.308414 L175.953381,98.9346248 C175.953381,98.6389443 176.194253,98.3993 176.491149,98.3993 Z" id="Shape" fill="#EFD9BB"></path>
            <path d="M166.368519,83.9258604 L162.087343,83.9258604 L162.087343,80.4817195 L166.368519,80.4817195 C166.665415,80.4817195 166.906288,80.7213637 166.906288,81.0167461 L166.906288,83.3905357 C166.906288,83.6865142 166.665415,83.9258604 166.368519,83.9258604 Z" id="Shape" fill="#FFF0D8"></path>
            <path d="M166.368519,137.890526 L162.087343,137.890526 L162.087343,134.446683 L166.368519,134.446683 C166.665415,134.446683 166.906288,134.686328 166.906288,134.98171 L166.906288,137.3555 C166.906288,137.65118 166.665415,137.890526 166.368519,137.890526 Z" id="Shape" fill="#FFF0D8"></path>
            <g id="Group" transform="translate(94.301252, 45.007813)" fill="#E5A258">
                <path d="M4.6715453,2.99257247 L0.232783345,2.99257247 L0.232783345,0.149032494 L4.6715453,0.149032494 C4.97952635,0.149032494 5.22938647,0.397320628 5.22938647,0.7040295 L5.22938647,2.4381716 C5.22938647,2.74428434 4.97952635,2.99257247 4.6715453,2.99257247 Z" id="Shape"></path>
                <path d="M7.16984686,7.57055261 L3.28862648,7.57055261 C2.98064543,7.57055261 2.73078532,7.32226448 2.73078532,7.0155556 L2.73078532,5.28141351 C2.73078532,4.9750027 2.98034584,4.7264165 3.28862648,4.7264165 L7.16984686,4.7264165 C7.47782792,4.7264165 7.72768803,4.97470464 7.72768803,5.28141351 L7.72768803,7.0155556 C7.72768803,7.32196641 7.47782792,7.57055261 7.16984686,7.57055261 Z" id="Shape"></path>
            </g>
            <g id="Group" transform="translate(154.519338, 115.351150)" fill="#E5A258">
                <path d="M3.1289437,4.80868244 L7.56770566,4.80868244 L7.56770566,7.65252048 L3.1289437,7.65252048 C2.82096265,7.65252048 2.57110253,7.40423235 2.57110253,7.09752348 L2.57110253,5.36338138 C2.57110253,5.05697057 2.82096265,4.80868244 3.1289437,4.80868244 Z" id="Shape"></path>
                <path d="M0.630642138,0.231000365 L4.51186252,0.231000365 C4.81984357,0.231000365 5.06970369,0.479288499 5.06970369,0.785997371 L5.06970369,2.52013947 C5.06970369,2.82655027 4.82014316,3.07513647 4.51186252,3.07513647 L0.630642138,3.07513647 C0.322661084,3.07513647 0.0728009689,2.82684834 0.0728009689,2.52013947 L0.0728009689,0.785997371 C0.0728009689,0.479288499 0.322661084,0.231000365 0.630642138,0.231000365 Z" id="Shape"></path>
            </g>
            <g id="Group" transform="translate(126.657238, 84.054326)" fill="#E5A258">
                <path d="M3.10947019,4.76695334 L7.01046367,4.76695334 C7.30735981,4.76695334 7.54823215,5.00659759 7.54823215,5.30197999 L7.54823215,7.07546667 C7.54823215,7.37084907 7.30735981,7.61049332 7.01046367,7.61049332 L3.10947019,7.61049332 C2.80148914,7.61049332 2.55162902,7.36220518 2.55162902,7.05549631 L2.55162902,5.32135422 C2.55192861,5.01553954 2.80148914,4.76695334 3.10947019,4.76695334 Z" id="Shape"></path>
                <path d="M0.611168628,0.189271267 L4.49238901,0.189271267 C4.80037006,0.189271267 5.05023018,0.437559401 5.05023018,0.744268273 L5.05023018,2.47841037 C5.05023018,2.78482118 4.80066965,3.03340737 4.49238901,3.03340737 L0.611168628,3.03340737 C0.303187574,3.03340737 0.0533274587,2.78511924 0.0533274587,2.47841037 L0.0533274587,0.744268273 C0.0536270512,0.437559401 0.303187574,0.189271267 0.611168628,0.189271267 Z" id="Shape"></path>
            </g>
            <path d="M99.0491937,120.427495 L94.6104317,120.427495 L94.6104317,117.583657 L99.0491937,117.583657 C99.3571747,117.583657 99.6070348,117.831945 99.6070348,118.138654 L99.6070348,119.872796 C99.6067353,120.179207 99.3571747,120.427495 99.0491937,120.427495 Z" id="Shape" fill="#E5A258"></path>
            <path d="M210.62312,55.0761503 L215.061882,55.0761503 L215.061882,52.2323122 L210.62312,52.2323122 C210.315139,52.2323122 210.065279,52.4806004 210.065279,52.7873092 L210.065279,54.5214513 C210.065578,54.8275641 210.315139,55.0761503 210.62312,55.0761503 Z" id="Shape" fill="#BE8242"></path>
            <path d="M185.211387,135.631492 L180.772625,135.631492 L180.772625,138.47533 L185.211387,138.47533 C185.519368,138.47533 185.769228,138.227042 185.769228,137.920333 L185.769228,136.186191 C185.769228,135.880078 185.519368,135.631492 185.211387,135.631492 Z" id="Shape" fill="#BE8242"></path>
            <g id="Group" transform="translate(168.300591, 116.543410)">
                <path d="M0.625549066,0.0736220518 L5.85134043,0.0736220518 C6.15932148,0.0736220518 6.4091816,0.321910186 6.4091816,0.628619058 L6.4091816,2.36276115 C6.4091816,2.66917196 6.15962107,2.91775816 5.85134043,2.91775816 L0.625549066,2.91775816 C0.317568013,2.91775816 0.067707897,2.66947003 0.067707897,2.36276115 L0.067707897,0.628619058 C0.067707897,0.321910186 0.31726842,0.0736220518 0.625549066,0.0736220518 Z" id="Shape" fill="#FFF0D8"></path>
                <path d="M5.85104083,0.0736220518 L3.10377793,0.0736220518 L3.10377793,2.91746009 L5.85104083,2.91746009 C6.15902189,2.91746009 6.408882,2.66917196 6.408882,2.36246309 L6.408882,0.628619058 C6.408882,0.321910186 6.15902189,0.0736220518 5.85104083,0.0736220518 Z" id="Shape" fill="#EFD9BB"></path>
            </g>
            <g id="Group" transform="translate(168.300591, 62.593647)">
                <path d="M0.625549066,0.270941073 L5.85134043,0.270941073 C6.15932148,0.270941073 6.4091816,0.519229208 6.4091816,0.82593808 L6.4091816,2.56008018 C6.4091816,2.86649098 6.15962107,3.11507718 5.85134043,3.11507718 L0.625549066,3.11507718 C0.317568013,3.11507718 0.067707897,2.86678905 0.067707897,2.56008018 L0.067707897,0.82593808 C0.067707897,0.519527273 0.31726842,0.270941073 0.625549066,0.270941073 Z" id="Shape" fill="#FFF0D8"></path>
                <path d="M5.85104083,0.270941073 L3.10377793,0.270941073 L3.10377793,3.11477912 L5.85104083,3.11477912 C6.15902189,3.11477912 6.408882,2.86649098 6.408882,2.55978211 L6.408882,0.82593808 C6.408882,0.519527273 6.15902189,0.270941073 5.85104083,0.270941073 Z" id="Shape" fill="#EFD9BB"></path>
            </g>
            <g id="Group" transform="translate(103.888211, 116.543410)">
                <polygon id="Rectangle-path" fill="#BBE5F4" transform="translate(35.120895, 20.510060) rotate(-90.000000) translate(-35.120895, -20.510060) " points="26.516355 9.41749962 43.7254351 9.41749962 43.7254351 31.6026212 26.516355 31.6026212"></polygon>
                <rect id="Rectangle-path" fill="#8FD4DF" transform="translate(24.898201, 20.510209) rotate(-90.000000) translate(-24.898201, -20.510209) " x="16.2936609" y="19.6404925" width="17.2090801" height="1.73943385"></rect>
                <path d="M35.990642,0.00417290982 C29.3840289,0.00417290982 24.028514,5.33268069 24.028514,11.9053117 L47.9530695,11.9053117 C47.9527699,5.33268069 42.597255,0.00417290982 35.990642,0.00417290982 Z" id="Shape" fill="#A34343"></path>
                <rect id="Rectangle-path" fill="#A34343" x="12.0660865" y="0.00417290982" width="23.9245554" height="11.9011388"></rect>
                <path d="M12.0660865,0.00417290982 C5.45947348,0.00417290982 0.103958585,5.33268069 0.103958585,11.9053117 L24.028514,11.9053117 C24.028514,5.33268069 18.6726995,0.00417290982 12.0660865,0.00417290982 Z" id="Shape" fill="#D53F3F"></path>
                <rect id="Rectangle-path" fill="#A34343" x="0.103958585" y="11.9056098" width="1.73943385" height="17.2090801"></rect>
                <rect id="Rectangle-path" fill="#A34343" x="33.5729308" y="11.9056098" width="1.73943385" height="17.2090801"></rect>
                <rect id="Rectangle-path" fill="#A34343" x="11.1963696" y="11.9056098" width="1.73943385" height="17.2090801"></rect>
                <rect id="Rectangle-path" fill="#A34343" x="46.2136356" y="11.9056098" width="1.73943385" height="17.2090801"></rect>
                <path d="M24.028514,11.328556 L24.028514,12.6364651 C24.028514,13.571495 24.7975679,14.3366278 25.7373895,14.3366278 C26.677211,14.3366278 27.4462649,13.571495 27.4462649,12.6364651 C27.4462649,13.571495 28.2153187,14.3366278 29.1551403,14.3366278 C30.0949619,14.3366278 30.8640157,13.571495 30.8640157,12.6364651 C30.8640157,13.571495 31.6330696,14.3366278 32.5728911,14.3366278 C33.5127127,14.3366278 34.2817665,13.571495 34.2817665,12.6364651 C34.2817665,13.571495 35.0508204,14.3366278 35.990642,14.3366278 C36.9304635,14.3366278 37.6995174,13.571495 37.6995174,12.6364651 C37.6995174,13.571495 38.4685712,14.3366278 39.4083928,14.3366278 C40.3482144,14.3366278 41.1172682,13.571495 41.1172682,12.6364651 C41.1172682,13.571495 41.8863221,14.3366278 42.8261436,14.3366278 C43.7659652,14.3366278 44.5350191,13.571495 44.5350191,12.6364651 C44.5350191,13.571495 45.3040729,14.3366278 46.2438945,14.3366278 C47.183716,14.3366278 47.9527699,13.571495 47.9527699,12.6364651 L47.9527699,11.328556 L24.028514,11.328556 Z" id="Shape" fill="#A34343"></path>
                <g transform="translate(43.141315, 17.883899)">
                    <ellipse id="Oval" fill="#7BC043" cx="3.94173806" cy="3.95114947" rx="3.91567351" ry="3.89570938"></ellipse>
                    <path d="M1.04677607,7.80125491 L2.18852295,11.2331752 L5.69525275,11.2331752 L6.83699964,7.80125491 C6.93017289,7.52137189 6.72045817,7.23254691 6.42416122,7.23254691 L1.45991408,7.23254691 C1.16331754,7.23284498 0.953602815,7.52137189 1.04677607,7.80125491 Z" id="Shape" fill="#464646"></path>
                    <path d="M1.04677607,7.80125491 L1.26607776,8.46087273 L6.61709877,8.46087273 L6.83640045,7.80125491 C6.92957371,7.52137189 6.71985898,7.23254691 6.42356203,7.23254691 L1.4593149,7.23254691 C1.16331754,7.23284498 0.953902407,7.52137189 1.04677607,7.80125491 Z" id="Shape" fill="#676262"></path>
                </g>
                <g transform="translate(19.173918, 17.883899)">
                    <ellipse id="Oval" fill="#7BC043" cx="3.98487937" cy="3.95114947" rx="3.91567351" ry="3.89570938"></ellipse>
                    <path d="M1.08991739,7.80125491 L2.23166427,11.2331752 L5.73809448,11.2331752 L6.87984136,7.80125491 C6.97301461,7.52137189 6.76329989,7.23254691 6.46700294,7.23254691 L1.5027558,7.23254691 C1.20615926,7.23284498 0.99674413,7.52137189 1.08991739,7.80125491 Z" id="Shape" fill="#464646"></path>
                    <path d="M1.08991739,7.80125491 L1.30921907,8.46087273 L6.66024008,8.46087273 L6.87954177,7.80125491 C6.97271502,7.52137189 6.7630003,7.23254691 6.46670335,7.23254691 L1.50245621,7.23254691 C1.20615926,7.23284498 0.99674413,7.52137189 1.08991739,7.80125491 Z" id="Shape" fill="#676262"></path>
                </g>
                <rect id="Rectangle-path" fill="#A34343" x="22.2890802" y="11.9056098" width="1.73943385" height="17.2090801"></rect>
                <path d="M0.103958585,11.328556 L0.103958585,12.6364651 C0.103958585,13.571495 0.873012442,14.3366278 1.812834,14.3366278 C2.75265557,14.3366278 3.52170942,13.571495 3.52170942,12.6364651 C3.52170942,13.571495 4.29076328,14.3366278 5.23058484,14.3366278 C6.1704064,14.3366278 6.93946026,13.571495 6.93946026,12.6364651 C6.93946026,13.571495 7.70851412,14.3366278 8.64833568,14.3366278 C9.58815724,14.3366278 10.3572111,13.571495 10.3572111,12.6364651 C10.3572111,13.571495 11.126265,14.3366278 12.0660865,14.3366278 C13.0059081,14.3366278 13.7749619,13.571495 13.7749619,12.6364651 C13.7749619,13.571495 14.5440158,14.3366278 15.4838374,14.3366278 C16.4236589,14.3366278 17.1927128,13.571495 17.1927128,12.6364651 C17.1927128,13.571495 17.9617666,14.3366278 18.9015882,14.3366278 C19.8414097,14.3366278 20.6104636,13.571495 20.6104636,12.6364651 C20.6104636,13.571495 21.3795175,14.3366278 22.319339,14.3366278 C23.2591606,14.3366278 24.0282144,13.571495 24.0282144,12.6364651 L24.0282144,11.328556 L0.103958585,11.328556 Z" id="Shape" fill="#D53F3F"></path>
            </g>
            <g id="Group" transform="translate(189.571656, 115.649215)">
                <path d="M14.2288445,7.75147806 L1.36913756,7.75147806 C0.626447844,7.75147806 0.0245665821,7.1526655 0.0245665821,6.4137624 L0.0245665821,1.34814794 C0.0245665821,0.609244834 0.626447844,0.0104322746 1.36913756,0.0104322746 L14.2288445,0.0104322746 C14.9715342,0.0104322746 15.5734155,0.609244834 15.5734155,1.34814794 L15.5734155,6.4137624 C15.5734155,7.1526655 14.9712346,7.75147806 14.2288445,7.75147806 Z" id="Shape" fill="#FFF0D8"></path>
                <polygon id="Rectangle-path" fill="#8FD4DF" transform="translate(7.798841, 3.881015) rotate(90.000000) translate(-7.798841, -3.881015) " points="5.53354734 -2.27995446 10.0641351 -2.27995446 10.0641351 10.041984 5.53354734 10.041984"></polygon>
                <rect id="Rectangle-path" fill="#7FB7CC" x="12.3462055" y="1.61551223" width="1.61360501" height="4.53058781"></rect>
            </g>
            <g id="Group" transform="translate(116.171502, 14.009054)">
                <path d="M46.4026785,0.217289376 L2.87938318,0.217289376 C2.28529132,0.217289376 1.80384623,0.69627981 1.80384623,1.28734268 L1.80384623,11.4537433 C1.80384623,12.0448061 2.28529132,12.5237966 2.87938318,12.5237966 L10.2469611,12.5237966 L10.2469611,16.7125038 L12.8309461,16.7125038 L12.8309461,12.5237966 L36.4511156,12.5237966 L36.4511156,16.7125038 L39.034801,16.7125038 L39.034801,12.5237966 L46.4023789,12.5237966 C46.9964707,12.5237966 47.4779158,12.0448061 47.4779158,11.4537433 L47.4779158,1.28734268 C47.4782154,0.69627981 46.9967703,0.217289376 46.4026785,0.217289376 Z" id="Shape" fill="#E5A258"></path>
                <g>
                    <g fill="#FBC36C">
                        <g id="Rectangle-path" transform="translate(8.388589, 10.134210)">
                            <rect id="Rectangle" x="0.233082937" y="0.11594728" width="2.58368542" height="6.46264505"></rect>
                            <rect id="Rectangle" x="26.4372375" y="0.11594728" width="2.58368542" height="6.46264505"></rect>
                        </g>
                        <path d="M44.7773894,0.217289376 L1.25409406,0.217289376 C0.6600022,0.217289376 0.178557109,0.69627981 0.178557109,1.28734268 L0.178557109,11.4537433 C0.178557109,12.0448061 0.6600022,12.5237966 1.25409406,12.5237966 L44.7773894,12.5237966 C45.3714812,12.5237966 45.8529263,12.0448061 45.8529263,11.4537433 L45.8529263,1.28734268 C45.8529263,0.69627981 45.3714812,0.217289376 44.7773894,0.217289376 Z" id="Shape"></path>
                    </g>
                    <polygon id="Rectangle-path" fill="#FFFFFF" transform="translate(23.015921, 6.370841) rotate(90.000000) translate(-23.015921, -6.370841) " points="19.0027745 -14.3151199 27.0290685 -14.3151199 27.0290685 27.0568019 19.0027745 27.0568019"></polygon>
                </g>
                <rect id="Rectangle-path" fill="#FFF0D8" x="2.32963101" y="2.35769405" width="1.62528912" height="8.02629398"></rect>
                <path d="M38.9835707,5.66323476 L7.04791273,5.66323476 C6.65664497,5.66323476 6.33668022,5.98156816 6.33668022,6.37084104 C6.33668022,6.76011391 6.65664497,7.07844732 7.04791273,7.07844732 L38.9832711,7.07844732 C39.3745389,7.07844732 39.6945036,6.76011391 39.6945036,6.37084104 C39.6948032,5.98156816 39.3745389,5.66323476 38.9835707,5.66323476 Z" id="Shape" fill="#D53F3F"></path>
            </g>
            <g id="Group" transform="translate(188.672879, 127.869880)">
                <g id="Shape" transform="translate(2.696332, 0.000000)">
                    <path d="M11.8500803,14.3253014 L10.2367749,14.3253014 L10.2367749,5.91957065 C10.2367749,3.59615407 8.33675951,1.70582592 6.00143625,1.70582592 C3.66611299,1.70582592 1.76609758,3.59615407 1.76609758,5.91957065 L1.76609758,14.3253014 L0.152492565,14.3253014 L0.152492565,5.91957065 C0.152492565,2.71090106 2.77632337,0.100447901 6.00143625,0.100447901 C9.22654913,0.100447901 11.8503799,2.71090106 11.8503799,5.91957065 L11.8503799,14.3253014 L11.8500803,14.3253014 Z" id="Path" fill="#FDD204"></path>
                    <path d="M8.8023262,14.3253014 L7.18872119,14.3253014 L7.18872119,2.83549222 C7.18872119,2.2125364 6.679414,1.70612399 6.05356534,1.70612399 C5.42771668,1.70612399 4.91840949,2.21283447 4.91840949,2.83549222 L4.91840949,14.3253014 L3.30480448,14.3253014 L3.30480448,2.83549222 C3.30480448,1.32758145 4.53792706,0.100745966 6.05356534,0.100745966 C7.56920362,0.100745966 8.8023262,1.32728339 8.8023262,2.83549222 L8.8023262,14.3253014 Z" id="Path" fill="#FAB516"></path>
                    <path d="M6.05386493,0.101938226 C6.03618898,0.101938226 6.01911221,0.100745966 6.00143625,0.100745966 C2.77632337,0.100745966 0.152492565,2.71119912 0.152492565,5.91986871 L0.152492565,14.3255994 L1.76609758,14.3255994 L1.76609758,5.91957065 C1.76609758,3.59615407 3.66611299,1.70582592 6.00143625,1.70582592 C6.01911221,1.70582592 6.03618898,1.70821044 6.05386493,1.70850851 L6.05386493,0.101938226 Z" id="Path" fill="#FDD204"></path>
                    <path d="M6.24770126,0.10700533 L6.24770126,1.71834465 C8.46828061,1.8465126 10.2364753,3.67901614 10.2364753,5.91957065 L10.2364753,14.3253014 L11.8497808,14.3253014 L11.8497808,5.91957065 C11.8500803,2.793167 9.358969,0.23606747 6.24770126,0.10700533 Z" id="Path" fill="#FDD204"></path>
                    <path d="M6.05386493,0.100745966 L6.05386493,1.70612399 C6.67971359,1.70612399 7.18902078,2.21283447 7.18902078,2.83549222 L7.18902078,14.3253014 L8.8026258,14.3253014 L8.8026258,2.83549222 C8.8023262,1.32728339 7.56950321,0.100745966 6.05386493,0.100745966 Z" id="Path" fill="#FAB516"></path>
                </g>
                <path d="M16.7202555,15.663017 L0.675281415,15.663017 C0.305584314,15.663017 0.00299592465,15.3619714 0.00299592465,14.9941592 C0.00299592465,14.626347 0.305584314,14.3253014 0.675281415,14.3253014 L16.7202555,14.3253014 C17.0899526,14.3253014 17.3925409,14.626347 17.3925409,14.9941592 C17.3925409,15.3619714 17.0899526,15.663017 16.7202555,15.663017 Z" id="Shape" fill="#D53F3F"></path>
                <g id="Oval" transform="translate(2.097147, 14.903249)" fill="#464646">
                    <ellipse cx="1.56626941" cy="1.5860038" rx="1.30592355" ry="1.29926528"></ellipse>
                    <ellipse cx="11.4555171" cy="1.5860038" rx="1.30592355" ry="1.29926528"></ellipse>
                </g>
            </g>
        </g>
    </g>
</svg>