<svg xmlns="http://www.w3.org/2000/svg" xmlns:xlink="http://www.w3.org/1999/xlink" width="288" height="164" viewBox="0 0 288 164">
  <defs>
    <rect id="exp_you_are_not_stephen-a" width="288" height="164"/>
  </defs>
  <g fill="none" fill-rule="evenodd">
    <mask id="exp_you_are_not_stephen-b" fill="#fff">
      <use xlink:href="#exp_you_are_not_stephen-a"/>
    </mask>
    <use fill="#FFF" xlink:href="#exp_you_are_not_stephen-a"/>
    <g mask="url(#exp_you_are_not_stephen-b)">
      <g transform="translate(35 10)">
        <g fill-rule="nonzero" transform="scale(-1 1) rotate(-10 316.577 693.046)">
          <path fill="#DE8366" d="M18.1009232,51.9955088 C17.9794405,53.4041033 19.0120435,54.6289681 20.4090947,54.7514545 L26.7261954,55.2414004 C28.4269533,55.3638869 29.8847458,54.0777789 30.0669698,52.3629683 L30.2491939,50.4031846 L20.8950255,49.6070226 C19.437233,49.5457793 18.222406,50.5869144 18.1009232,51.9955088 Z"/>
          <path fill="#E59B80" d="M45.8597216,9.2477289 C43.7337743,4.77697254 38.3885352,2.93967541 34.0151578,5.08318873 L9.65787516,16.5969174 C1.39705112,20.5164846 -0.0607413532,31.7239971 6.86377291,37.6645912 L30.6743834,58.1810758 L35.594433,52.3629683 C38.9959487,48.3209146 38.5100179,42.257834 34.5010886,38.8282127 L23.9928345,29.7029703 L41.790051,21.1901603 C46.1634284,19.0466469 47.985669,13.7184853 45.8597216,9.2477289 Z"/>
          <path fill="#575757" d="M19.0120435,10.4113504 L37.4166736,1.34735123 C41.790051,-1.10237828 47.3175141,0.612432377 49.6256855,5.08318873 L49.6256855,18.4342146 L30.0062285,29.1517812 L19.0120435,10.4113504 Z"/>
          <path fill="#E59B80" d="M19.6801984,55.9763193 C19.5587157,57.3849137 20.5913187,58.6097785 21.9883698,58.732265 L28.3054706,59.2222109 C30.0062285,59.3446974 31.4640209,58.0585894 31.646245,56.3437787 L31.8284691,54.3839951 L22.4743007,53.587833 C21.0165082,53.5265898 19.8016811,54.5677248 19.6801984,55.9763193 Z"/>
          <path fill="#575757" d="M32.3751412,35.5823211 L17.4327684,48.8721037 L5.28449773,39.0731857 C-2.49039548,32.8263754 -1.15408571,20.5777279 7.71415185,16.1682148 L26.7869368,6.67551291 L35.7159157,24.1910789 L23.9928345,29.8254568 L32.3751412,35.5823211 Z"/>
        </g>
        <path fill="#9F2B2B" fill-rule="nonzero" d="M8.91299435,77.6237624 C8.38870056,77.6237624 7.9299435,77.1617162 7.9299435,76.6336634 L0,0.594059406 L19.3988701,0.594059406 L25.559322,76.6336634 L8.91299435,77.6237624 Z" transform="translate(56.362 114.191)"/>
        <path fill="#C53C3C" fill-rule="nonzero" d="M64.6847458,125.346535 L43.7129944,125.346535 C36.1762712,125.016502 30.3435028,118.613861 30.6711864,111.023102 L78.3163842,112.145215 L78.3163842,112.739274 C77.9887006,120.066007 71.8937853,125.676568 64.6847458,125.346535 Z"/>
        <path fill="#575757" fill-rule="nonzero" d="M82.7073446,80.1980198 L82.7073446,110.231023 C82.7073446,112.409241 80.9378531,114.191419 78.7751412,114.191419 L30.7367232,114.191419 C28.5740113,114.191419 26.8045198,112.409241 26.8045198,110.231023 L26.8045198,82.5082508 C26.8045198,70.3630363 35.520904,60.2640264 47.0553672,58.2838284 C48.4316384,58.0858086 49.8079096,57.9537954 51.1841808,57.9537954 L63.2429379,57.9537954 C66.4542373,57.9537954 69.4689266,58.9438944 72.1559322,60.5940594 C73.1389831,61.1881188 74.0564972,61.8481848 74.9084746,62.640264 C79.9548023,66.9966997 82.7073446,73.4653465 82.7073446,80.1980198 Z"/>
        <path fill="#DE8366" fill-rule="nonzero" stroke="#3A3A3A" stroke-width="3.96" d="M61.0329958,71.809446 C55.8791323,71.809446 51.759915,67.6630814 51.759915,62.4883021 L51.759915,62.1264245 C51.759915,56.9673158 55.91487,52.8052805 61.0329958,52.8052805 L62.4710291,52.8052805 C67.6093699,52.8052805 71.74411,56.9875726 71.74411,62.1264245 L71.74411,62.4883021 C71.74411,67.6474108 67.5891549,71.809446 62.4710291,71.809446 L61.0329958,71.809446 Z"/>
        <g transform="rotate(-10 66.543 -181.147)">
          <ellipse cx="45.81" cy="25.281" fill="#9E5C38" fill-rule="nonzero" rx="4.194" ry="4.224"/>
          <polygon fill="#9E5C38" fill-rule="nonzero" points="50.005 24.62 47.507 13.823 44.106 15.182 45.614 23.828"/>
          <ellipse cx="39.43" cy="38.908" fill="#DE8366" fill-rule="nonzero" rx="7.865" ry="7.921" transform="rotate(-79.927 39.43 38.908)"/>
          <path fill="#9E5C38" fill-rule="nonzero" d="M37.8146893,42.0462046 L39.9774011,42.4422442 C42.0745763,42.8382838 44.040678,41.3861386 44.4338983,39.339934 L48.0384181,18.7458746 L41.7468927,20.0660066 L37.8146893,42.0462046 Z"/>
          <path fill="#E59B80" fill-rule="nonzero" d="M18.4813559,58.5478548 L27.5909605,60.1980198 C34.079096,61.3861386 39.6497175,60.1980198 41.3536723,50.4950495 L45.220339,28.4488449 C47.120904,17.8217822 40.0429379,7.72277228 29.5570621,5.80858086 C19.0056497,3.89438944 8.97853107,11.0231023 7.0779661,21.5841584 L4.19435028,37.8877888 C2.49039548,47.6567657 8.91299435,56.8316832 18.4813559,58.5478548 Z"/>
          <g fill-rule="nonzero" transform="translate(22.282 29.703)">
            <path fill="#BA725B" d="M1.76949153,8.97689769 C0.917514124,8.84488449 0.327683616,7.98679868 0.524293785,7.12871287 L1.57288136,1.32013201 C1.7039548,0.462046205 2.5559322,-0.132013201 3.4079096,0.0660066007 C4.25988701,0.198019802 4.84971751,1.05610561 4.65310734,1.91419142 L3.60451977,7.72277228 C3.4079096,8.58085809 2.62146893,9.10891089 1.76949153,8.97689769 Z"/>
            <ellipse cx="5.354" cy="18.843" fill="#A44242" rx="3.408" ry="3.432"/>
            <path fill="#BA725B" d="M15.2700565,11.4191419 C14.4180791,11.2871287 13.8282486,10.4290429 14.0248588,9.5709571 L15.0734463,3.76237624 C15.2045198,2.90429043 16.0564972,2.31023102 16.9084746,2.50825083 C17.760452,2.64026403 18.3502825,3.49834983 18.1536723,4.35643564 L17.1050847,10.1650165 C16.9084746,10.9570957 16.1220339,11.5511551 15.2700565,11.4191419 Z"/>
            <g fill="#DE8366" transform="translate(3.932 .66)">
              <path d="M7.34011299,12.8052805 L3.14576271,12.0792079 C2.49039548,11.9471947 2.03163842,11.3531353 2.16271186,10.6930693 L3.80112994,1.51815182 C3.93220339,0.858085809 4.5220339,0.396039604 5.17740113,0.528052805 L9.37175141,1.25412541 C10.0271186,1.38613861 10.4858757,1.98019802 10.3548023,2.64026403 L8.71638418,11.8151815 C8.65084746,12.4752475 7.99548023,12.9372937 7.34011299,12.8052805 Z"/>
              <path d="M1.83502825,11.8151815 L4.32542373,12.2772277 L4.98079096,8.58085809 L2.49039548,8.11881188 C1.57288136,7.98679868 0.720903955,8.58085809 0.589830508,9.43894389 L0.524293785,9.8349835 C0.327683616,10.7590759 0.917514124,11.6171617 1.83502825,11.8151815 Z"/>
            </g>
          </g>
          <path fill="#9E5C38" fill-rule="nonzero" d="M2.8180791,29.8349835 L8.12655367,30.8910891 C10.4858757,31.2871287 12.7141243,29.7029703 13.1728814,27.3927393 L16.9740113,8.44884488 L11.5344633,7.32673267 C9.24067797,6.93069307 7.0779661,8.44884488 6.68474576,10.7590759 L2.8180791,29.8349835 Z"/>
          <path fill="#DE8366" fill-rule="nonzero" d="M9.69943503,24.5544554 C9.83050847,24.5544554 9.8960452,24.620462 10.0271186,24.620462 L7.27457627,40.1980198 C7.14350282,40.1980198 7.0779661,40.1980198 6.94689266,40.1320132 C2.68700565,39.339934 -0.196610169,35.2475248 0.589830508,30.9570957 C1.31073446,26.6666667 5.3740113,23.7623762 9.69943503,24.5544554 Z"/>
          <path stroke="#A56644" stroke-linecap="round" stroke-width="3.6" d="M28.3118644 27.6567657C28.3118644 27.6567657 25.4282486 26.9966997 22.5446328 27.2607261M37.3041218 26.0366843C37.3041218 26.0366843 40.2532744 26.4327239 42.8747433 27.6868493"/>
          <path fill="#9E5C38" fill-rule="nonzero" d="M10.0271186,23.30033 L12.779661,23.8283828 C17.8259887,24.7524752 22.6757062,21.320132 23.5276836,16.2376238 L24.379661,11.4851485 L12.4519774,9.37293729 L10.0271186,23.30033 Z"/>
          <path fill="#9E5C38" fill-rule="nonzero" d="M22.020339,12.0132013 L25.3627119,15.9075908 C27.2632768,18.1518152 29.6225989,19.8679868 32.3096045,20.9240924 L47.9728814,27.2607261 L48.4316384,20.7920792 C48.8248588,15.1155116 46.7276836,9.5049505 42.5988701,5.54455446 C38.3389831,1.45214521 32.5062147,-0.462046205 26.6079096,0.462046205 L20.1853107,1.45214521 C17.3672316,1.98019802 15.0079096,3.76237624 13.8937853,6.40264026 L11.5344633,12.2112211 L19.3333333,12.8712871 L22.020339,12.0132013 Z"/>
          <path stroke="#9E5C38" stroke-linecap="round" stroke-linejoin="round" stroke-width="3.091" d="M14.8768362,1.45214521 C14.8768362,1.45214521 12.5830508,6.66666667 14.0903955,10.4290429 L9.50282486,3.82838284"/>
        </g>
        <g fill-rule="nonzero" transform="translate(0 60.726)">
          <path fill="#DE8366" d="M18.1009232,51.9955088 C17.9794405,53.4041033 19.0120435,54.6289681 20.4090947,54.7514545 L26.7261954,55.2414004 C28.4269533,55.3638869 29.8847458,54.0777789 30.0669698,52.3629683 L30.2491939,50.4031846 L20.8950255,49.6070226 C19.437233,49.5457793 18.222406,50.5869144 18.1009232,51.9955088 Z"/>
          <path fill="#E59B80" d="M45.8597216,9.2477289 C43.7337743,4.77697254 38.3885352,2.93967541 34.0151578,5.08318873 L9.65787516,16.5969174 C1.39705112,20.5164846 -0.0607413532,31.7239971 6.86377291,37.6645912 L30.6743834,58.1810758 L35.594433,52.3629683 C38.9959487,48.3209146 38.5100179,42.257834 34.5010886,38.8282127 L23.9928345,29.7029703 L41.790051,21.1901603 C46.1634284,19.0466469 47.985669,13.7184853 45.8597216,9.2477289 Z"/>
          <path fill="#575757" d="M19.0120435,10.4113504 L37.4166736,1.34735123 C41.790051,-1.10237828 47.3175141,0.612432377 49.6256855,5.08318873 L49.6256855,18.4342146 L30.0062285,29.1517812 L19.0120435,10.4113504 Z"/>
          <path fill="#E59B80" d="M19.6801984,55.9763193 C19.5587157,57.3849137 20.5913187,58.6097785 21.9883698,58.732265 L28.3054706,59.2222109 C30.0062285,59.3446974 31.4640209,58.0585894 31.646245,56.3437787 L31.8284691,54.3839951 L22.4743007,53.587833 C21.0165082,53.5265898 19.8016811,54.5677248 19.6801984,55.9763193 Z"/>
          <path fill="#575757" d="M32.3751412,35.5823211 L17.4327684,48.8721037 L5.28449773,39.0731857 C-2.49039548,32.8263754 -1.15408571,20.5777279 7.71415185,16.1682148 L26.7869368,6.67551291 L35.7159157,24.1910789 L23.9928345,29.8254568 L32.3751412,35.5823211 Z"/>
        </g>
        <rect width="17.629" height="69.637" x="36.045" y="118.086" fill="#C53C3C" fill-rule="nonzero"/>
        <g transform="matrix(-1 0 0 1 219 8)">
          <ellipse cx="32.421" cy="51.698" fill="#61361E" fill-rule="nonzero" rx="21.365" ry="21.371"/>
          <polyline stroke="#F34848" stroke-linecap="round" stroke-linejoin="round" stroke-width="14.247" points="51.141 58.414 77.254 55.565 66.266 31.48"/>
          <g fill="#F34848" fill-rule="nonzero" transform="translate(9.496 4.07)">
            <ellipse cx="11.395" cy="4.885" rx="4.544" ry="4.546"/>
            <ellipse cx="4.748" cy="6.377" rx="4.544" ry="4.546"/>
            <ellipse cx="6.783" cy="13.501" rx="4.544" ry="4.546"/>
            <ellipse cx="10.445" cy="9.363" rx="4.544" ry="4.546"/>
          </g>
          <g fill-rule="nonzero" transform="translate(50.191 10.855)">
            <path fill="#E59B80" d="M12.8869565,5.9024735 L2.91652174,16.7575972 L8.3426087,21.7780919 C11.3269565,24.5597173 16.0069565,24.3561837 18.7878261,21.3710247 C21.5686957,18.3858657 21.3652174,13.7045936 18.3808696,10.9229682 L12.8869565,5.9024735 Z"/>
            <path fill="#DE8366" d="M1.08521739,11.4657244 C0.135652174,12.4833922 0.203478261,14.0438163 1.22086957,14.9936396 L6.17217391,19.5392226 L9.56347826,15.8756184 L4.61217391,11.3300353 C3.6626087,10.380212 2.03478261,10.4480565 1.08521739,11.4657244 Z"/>
            <path fill="#E59B80" d="M5.56173913,8.88763251 C4.61217391,9.90530035 4.68,11.4657244 5.6973913,12.4155477 L12.5478261,18.7250883 L15.9391304,15.0614841 L9.08869565,8.75194346 C8.07130435,7.80212014 6.44347826,7.86996466 5.56173913,8.88763251 Z"/>
            <path fill="#E59B80" d="M9.02086957,0.610600707 C7.73217391,1.15335689 7.12173913,2.57809187 7.66434783,3.86713781 L11.2591304,12.4833922 L12.8191304,11.804947 C14.5147826,11.1265018 15.3286957,9.1590106 14.6504348,7.46289753 L12.3443478,1.89964664 C11.8017391,0.67844523 10.3095652,0.067844523 9.02086957,0.610600707 Z"/>
          </g>
          <path stroke="#938579" stroke-linecap="round" stroke-width="2.714" d="M7.52869565,110.99364 L28.4869565,75.4431095 C31.0643478,71.4402827 31.946087,66.555477 30.9286957,61.8742049 L29.2330435,54.0042403"/>
          <polygon fill="#E59B80" fill-rule="nonzero" points="56.703 189.558 67.283 189.558 53.447 104.616 32.353 104.616"/>
          <polygon fill="#E59B80" fill-rule="nonzero" points="9.903 189.558 20.755 189.558 34.727 104.616 16.414 104.616"/>
          <path fill="#FF6464" fill-rule="nonzero" d="M55.5495652,71.1010601 C55.1426087,71.1010601 55.1426087,71.1010601 54.7356522,71.1010601 L54.7356522,92.2685512 L18.8556522,90.029682 L14.7182609,65.4021201 C14.04,60.7208481 16.6852174,56.175265 21.093913,54.4791519 L25.0956522,53.4614841 L25.5704348,53.3936396 L28.3513043,52.8508834 L33.9130435,51.8332155 L46.3252174,54.5469965 L47.0713043,54.6826855 L49.3095652,55.2254417 C49.8521739,55.3611307 50.3269565,55.4968198 50.8017391,55.7681979 C51.8191304,56.2431095 52.7686957,56.9893993 53.5147826,57.9392226 L57.72,63.2310954 C60.5686957,67.1660777 61.2469565,71.1010601 55.5495652,71.1010601 Z"/>
          <path fill="#BA725B" fill-rule="nonzero" d="M45.1043478,81.0063604 C44.6973913,79.7173145 43.4086957,78.9710247 42.12,79.3780919 L33.4382609,81.8883392 L34.7947826,86.5696113 L43.4765217,84.059364 C44.7652174,83.6522968 45.5113043,82.2954064 45.1043478,81.0063604 Z"/>
          <path fill="#F34848" fill-rule="nonzero" d="M52.8365217,67.7088339 C51.48,69.9477032 49.0382609,71.2367491 45.8504348,71.2367491 C39.9495652,71.2367491 32.8956522,66.7590106 29.7078261,60.9922261 L25.5026087,53.2579505 L28.2834783,52.7151943 L33.8452174,51.6975265 L46.2573913,54.4113074 L47.0034783,54.5469965 L49.2417391,55.0897527 C49.7843478,55.2254417 50.2591304,55.3611307 50.733913,55.6325088 L52.226087,58.2784452 C54.1252174,61.8063604 54.3965217,65.1985866 52.8365217,67.7088339 Z"/>
          <path fill="#DE8366" fill-rule="nonzero" d="M45.9182609,68.5229682 C41.0347826,68.5229682 34.8626087,64.5201413 32.1495652,59.6353357 L28.3513043,52.7151943 L33.9130435,51.6975265 L46.3252174,54.4113074 L47.0713043,54.5469965 L49.8521739,59.6353357 C52.5652174,64.5879859 50.8017391,68.5229682 45.9182609,68.5229682 Z"/>
          <path stroke="#938579" stroke-linecap="round" stroke-width="2.714" d="M49.106087,55.6325088 C48.9026087,54.5469965 48.0208696,53.7328622 46.9356522,53.4614841 L42.7982609,52.5116608"/>
          <path fill="#DE8366" fill-rule="nonzero" d="M40.0173913,62.8240283 L34.5234783,57.1250883 C33.3704348,55.9038869 32.76,54.2077739 32.9634783,52.3759717 L34.5234783,37.2466431 L49.5130435,37.2466431 L48.0208696,51.9010601 C47.8173913,54.0720848 47.4104348,56.2431095 46.8678261,58.4141343 L46.2573913,60.7208481 C45.5113043,63.6381625 41.9165217,64.7915194 40.0173913,62.8240283 Z"/>
          <path fill="#3A3A3A" fill-rule="nonzero" d="M9.63130435,152.378799 C7.59652174,152.378799 6.03652174,150.614841 6.30782609,148.64735 L11.733913,101.902473 C12.3443478,95.6607774 15.8713043,93.15053 21.026087,91.454417 L52.4973913,92.8791519 C56.0921739,94.439576 57.9234783,97.9674912 58.6695652,101.69894 L64.9773913,148.579505 C65.2486957,150.614841 63.6886957,152.378799 61.653913,152.378799 L9.63130435,152.378799 Z"/>
          <path fill="#5A5A5A" fill-rule="nonzero" d="M19.6695652,88.5371025 L54.3286957,88.5371025 C55.4817391,88.5371025 56.3634783,89.4869258 56.3634783,90.5724382 L56.3634783,91.7936396 C56.3634783,92.9469965 55.413913,93.8289753 54.3286957,93.8289753 L19.6695652,93.8289753 C18.5165217,93.8289753 17.6347826,92.8791519 17.6347826,91.7936396 L17.6347826,90.5724382 C17.6347826,89.4869258 18.5165217,88.5371025 19.6695652,88.5371025 Z"/>
          <path fill="#FF6464" fill-rule="nonzero" d="M59.8904348,68.3194346 C59.8904348,73.5434629 55.6852174,77.7498233 50.4626087,77.7498233 L49.5808696,77.7498233 L50.0556522,70.0155477 L59.8904348,68.3194346 Z"/>
          <path fill="#DE8366" fill-rule="nonzero" d="M33.573913,45.659364 L33.3026087,48.1696113 C33.0313043,50.4084806 31.4034783,52.1724382 29.1652174,52.5795053 L28.2834783,52.7151943 L38.3217391,61.1279152 L39.6782609,52.3081272 L33.573913,45.659364 Z"/>
          <g fill-rule="nonzero" transform="translate(0 105.837)">
            <path fill="#938579" d="M28.9617391,14.654417 C27.5373913,22.4565371 20.0086957,28.7660777 12.2086957,28.7660777 C4.40869565,28.7660777 -0.746086957,22.4565371 0.67826087,14.654417 C1.56,9.90530035 4.68,5.69893993 8.74956522,3.12084806 C11.3947826,1.49257951 14.3791304,0.474911661 17.4313043,0.474911661 C19.8052174,0.474911661 21.9756522,1.08551237 23.7391304,2.10318021 C27.8086957,4.54558304 29.9791304,9.29469965 28.9617391,14.654417 Z"/>
            <path fill="#666161" d="M23.7391304,2.17102473 L21.9078261,12.1441696 C21.1617391,16.214841 17.2278261,19.5392226 13.0904348,19.5392226 C9.02086957,19.5392226 6.30782609,16.214841 7.05391304,12.1441696 L8.74956522,3.18869258 C11.3947826,1.56042403 14.3791304,0.542756184 17.4313043,0.542756184 C19.8730435,0.542756184 21.9756522,1.15335689 23.7391304,2.17102473 Z"/>
            <path fill="#FFD201" d="M14.5147826,15.9434629 L12.3443478,15.9434629 C11.8017391,15.9434629 11.4626087,15.4685512 11.5304348,14.9257951 C11.666087,14.3830389 12.1408696,13.9081272 12.6834783,13.9081272 L14.853913,13.9081272 C15.3965217,13.9081272 15.7356522,14.3830389 15.6678261,14.9257951 C15.6,15.5363958 15.0573913,15.9434629 14.5147826,15.9434629 Z"/>
          </g>
          <path stroke="#938579" stroke-linecap="round" stroke-width="2.714" d="M27.0626087,110.99364 L48.1565217,74.8325088 C50.733913,70.829682 51.6156522,66.6233216 50.5982609,61.9420495 L49.3095652,55.8360424"/>
          <g transform="translate(14.922)">
            <path fill="#DE8366" fill-rule="nonzero" d="M49.7843478,31.2763251 C50.3269565,34.5328622 48.0886957,37.5858657 44.7652174,38.1286219 C43.8834783,38.264311 43.0695652,38.1964664 42.2556522,37.9929329 L40.56,27.1378092 C41.2382609,26.730742 42.0521739,26.3915194 42.866087,26.2558304 C46.1895652,25.7809187 49.2417391,28.019788 49.7843478,31.2763251 Z"/>
            <ellipse cx="24.485" cy="23.949" fill="#61361E" fill-rule="nonzero" rx="23.875" ry="23.881"/>
            <g transform="translate(9.496 5.428)">
              <path fill="#E59B80" fill-rule="nonzero" d="M31.8782609,46.4734982 L15.1930435,48.780212 C9.56347826,49.5943463 4.34086957,45.5915194 3.52695652,39.960424 L1.42434783,24.8989399 L36.8295652,19.9462898 L39.3391304,36.5681979 C40.0173913,41.385159 36.693913,45.795053 31.8782609,46.4734982 Z"/>
              <path fill="#E59B80" fill-rule="nonzero" d="M2.91652174,34.1257951 L0.813913043,21.0996466 C-0.746086957,11.3300353 5.96869565,2.17102473 15.7356522,0.610600707 C25.5026087,-0.949823322 34.6591304,5.76678445 36.2191304,15.5363958 L36.9652174,19.9462898"/>
              <path stroke="#BA725B" stroke-linecap="round" stroke-width="1.56" d="M20.1443478,34.6685512 C20.1443478,34.6685512 23.9426087,39.2819788 29.0295652,36.9074205"/>
              <g fill="#BA725B" fill-rule="nonzero" transform="translate(17.635 20.353)">
                <path d="M2.91652174 11.2621908C2.1026087 11.3978799 1.28869565 10.8551237 1.15304348 9.97314488L.271304348 4.34204947C.135652174 3.52791519.67826087 2.71378092 1.56 2.57809187 2.37391304 2.44240283 3.18782609 2.98515901 3.32347826 3.86713781L4.20521739 9.49823322C4.27304348 10.3123675 3.73043478 11.1265018 2.91652174 11.2621908zM14.9217391 9.36254417C14.1078261 9.49823322 13.293913 8.95547703 13.1582609 8.07349823L12.2765217 2.44240283C12.1408696 1.62826855 12.6834783.814134276 13.5652174.67844523 14.3791304.542756184 15.1930435 1.08551237 15.3286957 1.96749117L16.2104348 7.59858657C16.2782609 8.48056537 15.7356522 9.22685512 14.9217391 9.36254417z"/>
              </g>
              <path fill="#DE8366" fill-rule="nonzero" d="M27.9443478,32.2939929 L25.8417391,32.6332155 C25.4347826,32.7010601 25.0956522,32.429682 25.0278261,32.0904594 L23.9426087,25.2381625 C23.8747826,24.8310954 24.146087,24.4918728 24.4852174,24.4240283 L26.5878261,24.0848057 C26.9947826,24.0169611 27.333913,24.2883392 27.4017391,24.6275618 L28.4869565,31.4798587 C28.5547826,31.8869258 28.3513043,32.2261484 27.9443478,32.2939929 Z"/>
            </g>
            <path fill="#DE8366" fill-rule="nonzero" d="M5.49391304,38.264311 C6.03652174,41.5208481 9.08869565,43.7597173 12.3443478,43.2848057 C13.226087,43.1491166 13.9721739,42.809894 14.6504348,42.4028269 L12.9547826,31.5477032 C12.1408696,31.3441696 11.3269565,31.2763251 10.4452174,31.4120141 C7.18956522,31.9547703 4.95130435,35.0077739 5.49391304,38.264311 Z"/>
            <path fill="#61361E" fill-rule="nonzero" d="M12.48,50.8155477 L8.68173913,23.609894 L12.3443478,23.0671378 L15.6,46.6091873 C15.8713043,48.644523 14.5147826,50.5441696 12.48,50.8155477 Z"/>
            <path fill="#61361E" fill-rule="nonzero" d="M41.9843478,10.7872792 C43.68,21.5745583 21.7043478,36.0254417 10.4452174,31.4120141 L5.01913043,25.3738516 L10.0382609,9.02332155 L19.466087,2.91731449 L29.9113043,2.84946996 L41.9843478,10.7872792 Z"/>
            <g fill="#FFD201" fill-rule="nonzero" transform="translate(8.817 40.707)">
              <ellipse cx="2.103" cy="2.171" rx="1.899" ry="1.9"/>
              <ellipse cx="2.577" cy="5.563" rx="1.899" ry="1.9"/>
              <ellipse cx="2.917" cy="8.141" rx="1.085" ry="1.086"/>
            </g>
          </g>
          <g fill="#E59B80" fill-rule="nonzero" transform="translate(26.452 81.413)">
            <path d="M14.6504348,14.5187279 L14.5147826,0.542756184 L7.39304348,0.339222615 C3.45913043,0.407067138 0.271304348,3.59575972 0.339130435,7.53074205 C0.406956522,11.4657244 3.59478261,14.654417 7.52869565,14.5865724 L14.6504348,14.5187279 Z"/>
            <path d="M22.5182609,2.91731449 C22.5182609,1.56042403 21.4330435,0.474911661 20.0765217,0.542756184 L11.0556522,0.610600707 L11.1234783,5.42756184 L20.1443478,5.35971731 C21.4330435,5.35971731 22.5182609,4.27420495 22.5182609,2.91731449 Z"/>
            <path d="M18.9234783,7.6664311 C18.9234783,6.30954064 17.8382609,5.22402827 16.4817391,5.29187279 L7.46086957,5.35971731 L7.52869565,10.1766784 L16.5495652,10.1088339 C17.8382609,10.0409894 18.9234783,8.95547703 18.9234783,7.6664311 Z"/>
            <path d="M17.0243478,12.1441696 C17.0243478,10.7872792 15.9391304,9.70176678 14.5826087,9.76961131 L5.56173913,9.83745583 L5.56173913,11.804947 C5.56173913,13.365371 6.85043478,14.654417 8.47826087,14.654417 L14.6504348,14.5865724 C16.0069565,14.5865724 17.0243478,13.5010601 17.0243478,12.1441696 Z"/>
          </g>
          <path stroke="#FF6464" stroke-linecap="round" stroke-linejoin="round" stroke-width="14.247" d="M21.5686957,62.7561837 L8.88521739,77.0713781 C6.37565217,79.9208481 7.86782609,84.4664311 11.5982609,85.2127208 L25.2991304,88.0621908"/>
          <path stroke="#61361E" stroke-linecap="round" stroke-width="2.035" d="M55.8886957,22.5922261 C57.5165217,19.4035336 58.8730435,14.4508834 55.8886957,9.49823322"/>
        </g>
      </g>
    </g>
  </g>
</svg>
